%TF.GenerationSoftware,KiCad,Pcbnew,7.0.5-0*%
%TF.CreationDate,2023-10-01T08:52:51-07:00*%
%TF.ProjectId,MiSTerLaggy,4d695354-6572-44c6-9167-67792e6b6963,rev?*%
%TF.SameCoordinates,Original*%
%TF.FileFunction,Legend,Bot*%
%TF.FilePolarity,Positive*%
%FSLAX46Y46*%
G04 Gerber Fmt 4.6, Leading zero omitted, Abs format (unit mm)*
G04 Created by KiCad (PCBNEW 7.0.5-0) date 2023-10-01 08:52:51*
%MOMM*%
%LPD*%
G01*
G04 APERTURE LIST*
%ADD10C,0.150000*%
%ADD11C,0.200000*%
%ADD12C,0.650000*%
%ADD13O,1.000000X2.100000*%
%ADD14O,1.000000X1.800000*%
%ADD15C,2.200000*%
G04 APERTURE END LIST*
D10*
X1162969Y-4389038D02*
X1353445Y-3855704D01*
X1353445Y-3855704D02*
X1543922Y-4389038D01*
X2267731Y-3855704D02*
X1810588Y-3855704D01*
X2039160Y-3855704D02*
X2039160Y-4655704D01*
X2039160Y-4655704D02*
X1962969Y-4541419D01*
X1962969Y-4541419D02*
X1886779Y-4465228D01*
X1886779Y-4465228D02*
X1810588Y-4427133D01*
X2610589Y-3931895D02*
X2648684Y-3893800D01*
X2648684Y-3893800D02*
X2610589Y-3855704D01*
X2610589Y-3855704D02*
X2572493Y-3893800D01*
X2572493Y-3893800D02*
X2610589Y-3931895D01*
X2610589Y-3931895D02*
X2610589Y-3855704D01*
X2915350Y-4655704D02*
X3410588Y-4655704D01*
X3410588Y-4655704D02*
X3143922Y-4350942D01*
X3143922Y-4350942D02*
X3258207Y-4350942D01*
X3258207Y-4350942D02*
X3334398Y-4312847D01*
X3334398Y-4312847D02*
X3372493Y-4274752D01*
X3372493Y-4274752D02*
X3410588Y-4198561D01*
X3410588Y-4198561D02*
X3410588Y-4008085D01*
X3410588Y-4008085D02*
X3372493Y-3931895D01*
X3372493Y-3931895D02*
X3334398Y-3893800D01*
X3334398Y-3893800D02*
X3258207Y-3855704D01*
X3258207Y-3855704D02*
X3029636Y-3855704D01*
X3029636Y-3855704D02*
X2953445Y-3893800D01*
X2953445Y-3893800D02*
X2915350Y-3931895D01*
D11*
G36*
X-860399Y-6679863D02*
G01*
X-858884Y-6690927D01*
X-857771Y-6701642D01*
X-856852Y-6717061D01*
X-856836Y-6731697D01*
X-857721Y-6745548D01*
X-859509Y-6758616D01*
X-862198Y-6770900D01*
X-865790Y-6782399D01*
X-870283Y-6793115D01*
X-875679Y-6803047D01*
X-879777Y-6809233D01*
X-886435Y-6817875D01*
X-896119Y-6828076D01*
X-906727Y-6836766D01*
X-918259Y-6843944D01*
X-930714Y-6849611D01*
X-944093Y-6853767D01*
X-954733Y-6855893D01*
X-965893Y-6857168D01*
X-977572Y-6857593D01*
X-990156Y-6857146D01*
X-1002517Y-6855807D01*
X-1014657Y-6853576D01*
X-1026574Y-6850452D01*
X-1038270Y-6846435D01*
X-1049744Y-6841526D01*
X-1060996Y-6835724D01*
X-1072025Y-6829030D01*
X-1082833Y-6821443D01*
X-1093419Y-6812963D01*
X-1100353Y-6806815D01*
X-1110347Y-6796925D01*
X-1119675Y-6786397D01*
X-1128337Y-6775232D01*
X-1136333Y-6763429D01*
X-1143664Y-6750989D01*
X-1150328Y-6737911D01*
X-1156327Y-6724195D01*
X-1161659Y-6709843D01*
X-1166326Y-6694852D01*
X-1170327Y-6679224D01*
X-1172624Y-6668451D01*
X-862314Y-6668451D01*
X-860399Y-6679863D01*
G37*
G36*
X1705443Y-6325115D02*
G01*
X1719594Y-6326790D01*
X1730257Y-6328779D01*
X1740963Y-6331397D01*
X1751711Y-6334642D01*
X1762501Y-6338515D01*
X1773334Y-6343017D01*
X1784210Y-6348146D01*
X1795128Y-6353904D01*
X1806088Y-6360290D01*
X1816541Y-6367326D01*
X1826272Y-6374731D01*
X1835280Y-6382505D01*
X1843567Y-6390649D01*
X1851132Y-6399163D01*
X1857974Y-6408045D01*
X1864095Y-6417298D01*
X1869494Y-6426919D01*
X1874588Y-6438235D01*
X1878919Y-6450175D01*
X1882442Y-6461371D01*
X1886014Y-6474028D01*
X1888726Y-6484479D01*
X1891467Y-6495752D01*
X1894236Y-6507847D01*
X1897034Y-6520763D01*
X1897972Y-6525251D01*
X1906301Y-6565283D01*
X1894878Y-6561979D01*
X1881970Y-6558516D01*
X1871313Y-6555814D01*
X1859821Y-6553022D01*
X1847492Y-6550140D01*
X1834328Y-6547169D01*
X1820327Y-6544108D01*
X1805491Y-6540957D01*
X1789819Y-6537716D01*
X1778906Y-6535506D01*
X1773311Y-6534386D01*
X1762294Y-6532172D01*
X1751746Y-6529961D01*
X1736801Y-6526654D01*
X1722909Y-6523356D01*
X1710071Y-6520068D01*
X1698285Y-6516788D01*
X1687553Y-6513519D01*
X1674882Y-6509174D01*
X1664083Y-6504846D01*
X1653217Y-6499459D01*
X1642121Y-6492239D01*
X1632210Y-6484548D01*
X1623483Y-6476388D01*
X1615939Y-6467757D01*
X1609579Y-6458656D01*
X1604403Y-6449084D01*
X1600411Y-6439043D01*
X1597602Y-6428531D01*
X1595685Y-6415548D01*
X1595472Y-6403129D01*
X1596965Y-6391273D01*
X1600163Y-6379982D01*
X1605067Y-6369255D01*
X1611676Y-6359092D01*
X1614797Y-6355185D01*
X1623609Y-6346362D01*
X1633588Y-6339034D01*
X1644735Y-6333201D01*
X1657049Y-6328864D01*
X1667741Y-6326471D01*
X1679181Y-6325036D01*
X1691367Y-6324557D01*
X1705443Y-6325115D01*
G37*
G36*
X2631361Y-6342318D02*
G01*
X2645348Y-6344019D01*
X2659155Y-6346852D01*
X2672783Y-6350819D01*
X2686232Y-6355920D01*
X2699501Y-6362154D01*
X2712590Y-6369521D01*
X2725501Y-6378022D01*
X2738231Y-6387656D01*
X2746619Y-6394709D01*
X2754927Y-6402265D01*
X2759050Y-6406232D01*
X2767156Y-6414534D01*
X2774948Y-6423322D01*
X2782428Y-6432594D01*
X2789595Y-6442351D01*
X2796449Y-6452593D01*
X2802990Y-6463319D01*
X2809219Y-6474531D01*
X2815135Y-6486228D01*
X2820738Y-6498409D01*
X2826028Y-6511075D01*
X2831006Y-6524226D01*
X2835671Y-6537862D01*
X2840023Y-6551983D01*
X2844063Y-6566588D01*
X2847789Y-6581679D01*
X2851203Y-6597254D01*
X2854409Y-6613511D01*
X2857110Y-6629234D01*
X2859304Y-6644424D01*
X2860993Y-6659081D01*
X2862176Y-6673205D01*
X2862853Y-6686796D01*
X2863024Y-6699854D01*
X2862689Y-6712378D01*
X2861848Y-6724369D01*
X2860502Y-6735828D01*
X2858649Y-6746753D01*
X2854922Y-6762141D01*
X2850057Y-6776329D01*
X2844054Y-6789318D01*
X2841800Y-6793381D01*
X2834501Y-6804857D01*
X2826508Y-6815203D01*
X2817821Y-6824421D01*
X2808439Y-6832510D01*
X2798363Y-6839470D01*
X2787593Y-6845302D01*
X2776129Y-6850005D01*
X2763970Y-6853579D01*
X2751118Y-6856025D01*
X2737571Y-6857342D01*
X2728154Y-6857593D01*
X2714265Y-6857040D01*
X2700608Y-6855382D01*
X2687182Y-6852620D01*
X2673988Y-6848752D01*
X2661025Y-6843779D01*
X2648293Y-6837701D01*
X2635793Y-6830518D01*
X2623525Y-6822229D01*
X2611487Y-6812836D01*
X2599682Y-6802337D01*
X2591939Y-6794725D01*
X2584384Y-6786608D01*
X2577100Y-6777975D01*
X2570086Y-6768825D01*
X2563343Y-6759160D01*
X2556871Y-6748978D01*
X2550670Y-6738279D01*
X2544739Y-6727065D01*
X2539079Y-6715333D01*
X2533690Y-6703086D01*
X2528572Y-6690322D01*
X2523724Y-6677042D01*
X2519147Y-6663246D01*
X2514841Y-6648933D01*
X2510806Y-6634104D01*
X2507042Y-6618758D01*
X2503548Y-6602896D01*
X2500270Y-6586254D01*
X2497490Y-6570178D01*
X2495208Y-6554668D01*
X2493423Y-6539726D01*
X2492135Y-6525350D01*
X2491345Y-6511541D01*
X2491052Y-6498299D01*
X2491256Y-6485623D01*
X2491959Y-6473514D01*
X2493158Y-6461972D01*
X2494855Y-6450996D01*
X2498333Y-6435596D01*
X2502931Y-6421470D01*
X2508648Y-6408620D01*
X2510802Y-6404620D01*
X2517763Y-6393385D01*
X2525348Y-6383255D01*
X2533556Y-6374230D01*
X2542387Y-6366310D01*
X2551842Y-6359495D01*
X2561920Y-6353785D01*
X2572622Y-6349181D01*
X2583947Y-6345681D01*
X2595895Y-6343287D01*
X2608467Y-6341997D01*
X2617194Y-6341752D01*
X2631361Y-6342318D01*
G37*
G36*
X3571696Y-6342318D02*
G01*
X3585683Y-6344019D01*
X3599490Y-6346852D01*
X3613118Y-6350819D01*
X3626567Y-6355920D01*
X3639836Y-6362154D01*
X3652925Y-6369521D01*
X3665836Y-6378022D01*
X3678566Y-6387656D01*
X3686954Y-6394709D01*
X3695261Y-6402265D01*
X3699385Y-6406232D01*
X3707491Y-6414534D01*
X3715283Y-6423322D01*
X3722763Y-6432594D01*
X3729929Y-6442351D01*
X3736784Y-6452593D01*
X3743325Y-6463319D01*
X3749554Y-6474531D01*
X3755470Y-6486228D01*
X3761073Y-6498409D01*
X3766363Y-6511075D01*
X3771341Y-6524226D01*
X3776006Y-6537862D01*
X3780358Y-6551983D01*
X3784398Y-6566588D01*
X3788124Y-6581679D01*
X3791538Y-6597254D01*
X3794744Y-6613511D01*
X3797445Y-6629234D01*
X3799639Y-6644424D01*
X3801328Y-6659081D01*
X3802511Y-6673205D01*
X3803187Y-6686796D01*
X3803359Y-6699854D01*
X3803024Y-6712378D01*
X3802183Y-6724369D01*
X3800837Y-6735828D01*
X3798984Y-6746753D01*
X3795257Y-6762141D01*
X3790392Y-6776329D01*
X3784389Y-6789318D01*
X3782135Y-6793381D01*
X3774836Y-6804857D01*
X3766843Y-6815203D01*
X3758156Y-6824421D01*
X3748774Y-6832510D01*
X3738698Y-6839470D01*
X3727928Y-6845302D01*
X3716464Y-6850005D01*
X3704305Y-6853579D01*
X3691453Y-6856025D01*
X3677906Y-6857342D01*
X3668489Y-6857593D01*
X3654600Y-6857040D01*
X3640943Y-6855382D01*
X3627517Y-6852620D01*
X3614323Y-6848752D01*
X3601360Y-6843779D01*
X3588628Y-6837701D01*
X3576128Y-6830518D01*
X3563860Y-6822229D01*
X3551822Y-6812836D01*
X3540016Y-6802337D01*
X3532274Y-6794725D01*
X3524719Y-6786608D01*
X3517435Y-6777975D01*
X3510421Y-6768825D01*
X3503678Y-6759160D01*
X3497206Y-6748978D01*
X3491005Y-6738279D01*
X3485074Y-6727065D01*
X3479414Y-6715333D01*
X3474025Y-6703086D01*
X3468907Y-6690322D01*
X3464059Y-6677042D01*
X3459482Y-6663246D01*
X3455176Y-6648933D01*
X3451141Y-6634104D01*
X3447377Y-6618758D01*
X3443883Y-6602896D01*
X3440605Y-6586254D01*
X3437825Y-6570178D01*
X3435543Y-6554668D01*
X3433758Y-6539726D01*
X3432470Y-6525350D01*
X3431680Y-6511541D01*
X3431387Y-6498299D01*
X3431591Y-6485623D01*
X3432294Y-6473514D01*
X3433493Y-6461972D01*
X3435190Y-6450996D01*
X3438668Y-6435596D01*
X3443266Y-6421470D01*
X3448983Y-6408620D01*
X3451137Y-6404620D01*
X3458098Y-6393385D01*
X3465683Y-6383255D01*
X3473891Y-6374230D01*
X3482722Y-6366310D01*
X3492177Y-6359495D01*
X3502255Y-6353785D01*
X3512957Y-6349181D01*
X3524282Y-6345681D01*
X3536230Y-6343287D01*
X3548802Y-6341997D01*
X3557529Y-6341752D01*
X3571696Y-6342318D01*
G37*
G36*
X5465476Y-7778993D02*
G01*
X-5449944Y-7778993D01*
X-5449944Y-6187000D01*
X-4992802Y-6187000D01*
X-4760405Y-7304655D01*
X-4432900Y-7304655D01*
X-4395018Y-6542177D01*
X-4041989Y-7304655D01*
X-3713947Y-7304655D01*
X-3753276Y-7115513D01*
X-3516208Y-7115513D01*
X-3476982Y-7304655D01*
X-3269034Y-7304655D01*
X-3308259Y-7115513D01*
X-3516208Y-7115513D01*
X-3753276Y-7115513D01*
X-3946344Y-6187000D01*
X-3709379Y-6187000D01*
X-3541462Y-6995150D01*
X-3333514Y-6995150D01*
X-3435733Y-6503191D01*
X-3263203Y-6503191D01*
X-3262891Y-6514157D01*
X-3262371Y-6525294D01*
X-3261642Y-6536605D01*
X-3260705Y-6548088D01*
X-3043891Y-6565283D01*
X-3044092Y-6552204D01*
X-3043891Y-6539566D01*
X-3043286Y-6527369D01*
X-3042279Y-6515613D01*
X-3040868Y-6504297D01*
X-3039055Y-6493423D01*
X-3035579Y-6477937D01*
X-3031196Y-6463443D01*
X-3025907Y-6449941D01*
X-3019711Y-6437431D01*
X-3012608Y-6425912D01*
X-3004598Y-6415385D01*
X-2998755Y-6408919D01*
X-2989234Y-6399988D01*
X-2978806Y-6391936D01*
X-2967472Y-6384762D01*
X-2955231Y-6378467D01*
X-2942083Y-6373050D01*
X-2928028Y-6368511D01*
X-2913067Y-6364851D01*
X-2897199Y-6362070D01*
X-2886116Y-6360703D01*
X-2874631Y-6359727D01*
X-2862742Y-6359142D01*
X-2850451Y-6358946D01*
X-2837419Y-6359122D01*
X-2824722Y-6359648D01*
X-2812358Y-6360524D01*
X-2800327Y-6361751D01*
X-2788631Y-6363328D01*
X-2777268Y-6365256D01*
X-2766239Y-6367534D01*
X-2755544Y-6370163D01*
X-2745182Y-6373143D01*
X-2730266Y-6378269D01*
X-2716100Y-6384184D01*
X-2702686Y-6390888D01*
X-2690022Y-6398381D01*
X-2681996Y-6403814D01*
X-2670604Y-6412409D01*
X-2660105Y-6421269D01*
X-2650499Y-6430393D01*
X-2641784Y-6439782D01*
X-2633963Y-6449435D01*
X-2627034Y-6459352D01*
X-2620998Y-6469534D01*
X-2615854Y-6479981D01*
X-2611603Y-6490692D01*
X-2608244Y-6501667D01*
X-2606501Y-6509131D01*
X-2604592Y-6520939D01*
X-2603903Y-6532183D01*
X-2604687Y-6544931D01*
X-2607228Y-6556867D01*
X-2611526Y-6567990D01*
X-2615367Y-6574955D01*
X-2622933Y-6584885D01*
X-2631099Y-6592785D01*
X-2640957Y-6600344D01*
X-2650063Y-6606145D01*
X-2660251Y-6611729D01*
X-2671522Y-6617094D01*
X-2683877Y-6622240D01*
X-2694275Y-6626077D01*
X-2707604Y-6630603D01*
X-2719523Y-6634448D01*
X-2733090Y-6638681D01*
X-2748306Y-6643302D01*
X-2759365Y-6646597D01*
X-2771157Y-6650065D01*
X-2783682Y-6653704D01*
X-2796939Y-6657516D01*
X-2810928Y-6661500D01*
X-2825651Y-6665656D01*
X-2841105Y-6669984D01*
X-2849107Y-6672212D01*
X-2869437Y-6678033D01*
X-2888916Y-6684009D01*
X-2907546Y-6690140D01*
X-2925325Y-6696426D01*
X-2942254Y-6702868D01*
X-2958333Y-6709465D01*
X-2973562Y-6716217D01*
X-2987941Y-6723125D01*
X-3001470Y-6730188D01*
X-3014149Y-6737406D01*
X-3025977Y-6744780D01*
X-3036956Y-6752309D01*
X-3047085Y-6759993D01*
X-3056363Y-6767833D01*
X-3064791Y-6775828D01*
X-3072370Y-6783978D01*
X-3082054Y-6795689D01*
X-3090891Y-6807717D01*
X-3098880Y-6820062D01*
X-3106020Y-6832724D01*
X-3112313Y-6845703D01*
X-3117758Y-6858999D01*
X-3122354Y-6872612D01*
X-3126103Y-6886542D01*
X-3129004Y-6900788D01*
X-3131057Y-6915352D01*
X-3132261Y-6930232D01*
X-3132618Y-6945430D01*
X-3132127Y-6960944D01*
X-3130788Y-6976776D01*
X-3128601Y-6992924D01*
X-3125566Y-7009390D01*
X-3123175Y-7020026D01*
X-3120436Y-7030577D01*
X-3117348Y-7041041D01*
X-3113912Y-7051419D01*
X-3110128Y-7061711D01*
X-3105995Y-7071918D01*
X-3101514Y-7082038D01*
X-3096684Y-7092072D01*
X-3091506Y-7102020D01*
X-3085979Y-7111882D01*
X-3080104Y-7121658D01*
X-3073881Y-7131348D01*
X-3067309Y-7140951D01*
X-3060389Y-7150469D01*
X-3053120Y-7159901D01*
X-3045503Y-7169247D01*
X-3037546Y-7178443D01*
X-3029324Y-7187361D01*
X-3020838Y-7195999D01*
X-3012087Y-7204358D01*
X-3003072Y-7212438D01*
X-2993793Y-7220239D01*
X-2984249Y-7227760D01*
X-2974440Y-7235003D01*
X-2964368Y-7241966D01*
X-2954030Y-7248650D01*
X-2943428Y-7255055D01*
X-2932562Y-7261181D01*
X-2921431Y-7267028D01*
X-2910036Y-7272595D01*
X-2898376Y-7277884D01*
X-2886452Y-7282893D01*
X-2874253Y-7287610D01*
X-2861835Y-7292023D01*
X-2849200Y-7296132D01*
X-2836346Y-7299936D01*
X-2823273Y-7303436D01*
X-2809983Y-7306632D01*
X-2796474Y-7309523D01*
X-2782746Y-7312110D01*
X-2768801Y-7314393D01*
X-2754637Y-7316371D01*
X-2740255Y-7318045D01*
X-2725655Y-7319415D01*
X-2710836Y-7320480D01*
X-2695799Y-7321241D01*
X-2680544Y-7321697D01*
X-2665070Y-7321849D01*
X-2652443Y-7321758D01*
X-2640051Y-7321483D01*
X-2627893Y-7321025D01*
X-2615971Y-7320384D01*
X-2604284Y-7319560D01*
X-2592832Y-7318553D01*
X-2581616Y-7317363D01*
X-2570634Y-7315989D01*
X-2559887Y-7314433D01*
X-2539099Y-7310770D01*
X-2519251Y-7306375D01*
X-2500344Y-7301247D01*
X-2482377Y-7295387D01*
X-2465350Y-7288794D01*
X-2449263Y-7281468D01*
X-2434117Y-7273410D01*
X-2419912Y-7264620D01*
X-2406646Y-7255097D01*
X-2394321Y-7244841D01*
X-2382936Y-7233853D01*
X-2377596Y-7228085D01*
X-2367552Y-7216120D01*
X-2358374Y-7203665D01*
X-2350063Y-7190722D01*
X-2342619Y-7177290D01*
X-2336042Y-7163368D01*
X-2330332Y-7148958D01*
X-2325489Y-7134058D01*
X-2321512Y-7118670D01*
X-2320894Y-7115513D01*
X-2138214Y-7115513D01*
X-2098989Y-7304655D01*
X-1237910Y-7304655D01*
X-1277136Y-7115513D01*
X-1597924Y-7115513D01*
X-1732793Y-6467245D01*
X-1420210Y-6467245D01*
X-1419699Y-6485730D01*
X-1418488Y-6504665D01*
X-1416576Y-6524049D01*
X-1413963Y-6543882D01*
X-1410649Y-6564164D01*
X-1406633Y-6584896D01*
X-1403949Y-6597337D01*
X-1401101Y-6609609D01*
X-1398089Y-6621710D01*
X-1394913Y-6633642D01*
X-1391573Y-6645403D01*
X-1388070Y-6656995D01*
X-1384403Y-6668416D01*
X-1384391Y-6668451D01*
X-1380573Y-6679668D01*
X-1376578Y-6690749D01*
X-1372420Y-6701661D01*
X-1368099Y-6712402D01*
X-1363613Y-6722974D01*
X-1358964Y-6733375D01*
X-1354151Y-6743606D01*
X-1349174Y-6753668D01*
X-1344034Y-6763559D01*
X-1338730Y-6773281D01*
X-1333262Y-6782832D01*
X-1327631Y-6792213D01*
X-1321835Y-6801424D01*
X-1315876Y-6810466D01*
X-1309754Y-6819337D01*
X-1297017Y-6836569D01*
X-1283626Y-6853122D01*
X-1269580Y-6868994D01*
X-1254878Y-6884187D01*
X-1239522Y-6898699D01*
X-1223687Y-6912461D01*
X-1207614Y-6925335D01*
X-1191304Y-6937321D01*
X-1174757Y-6948419D01*
X-1157973Y-6958629D01*
X-1140951Y-6967952D01*
X-1123692Y-6976387D01*
X-1106196Y-6983933D01*
X-1088463Y-6990592D01*
X-1070493Y-6996363D01*
X-1052286Y-7001247D01*
X-1033841Y-7005242D01*
X-1015159Y-7008350D01*
X-996240Y-7010569D01*
X-977084Y-7011901D01*
X-957691Y-7012345D01*
X-946855Y-7012229D01*
X-925761Y-7011304D01*
X-905434Y-7009452D01*
X-885876Y-7006675D01*
X-867086Y-7002973D01*
X-849065Y-6998345D01*
X-831811Y-6992791D01*
X-815326Y-6986311D01*
X-799609Y-6978906D01*
X-784660Y-6970575D01*
X-770480Y-6961319D01*
X-757067Y-6951137D01*
X-744423Y-6940029D01*
X-732547Y-6927996D01*
X-721439Y-6915037D01*
X-711100Y-6901152D01*
X-706218Y-6893863D01*
X-697130Y-6878560D01*
X-689074Y-6862273D01*
X-682051Y-6845002D01*
X-676060Y-6826746D01*
X-671103Y-6807506D01*
X-667178Y-6787282D01*
X-664285Y-6766073D01*
X-663226Y-6755099D01*
X-662425Y-6743879D01*
X-661883Y-6732413D01*
X-661598Y-6720702D01*
X-661572Y-6708743D01*
X-661804Y-6696539D01*
X-662294Y-6684089D01*
X-663043Y-6671393D01*
X-664049Y-6658450D01*
X-665314Y-6645262D01*
X-666836Y-6631827D01*
X-668617Y-6618146D01*
X-670657Y-6604219D01*
X-672954Y-6590046D01*
X-675509Y-6575627D01*
X-678323Y-6560962D01*
X-681395Y-6546051D01*
X-684725Y-6530893D01*
X-1205133Y-6530893D01*
X-1207202Y-6518839D01*
X-1208840Y-6507125D01*
X-1210048Y-6495751D01*
X-1210825Y-6484716D01*
X-1211185Y-6468802D01*
X-1210577Y-6453654D01*
X-1209000Y-6439270D01*
X-1206455Y-6425651D01*
X-1202943Y-6412798D01*
X-1198462Y-6400710D01*
X-1193012Y-6389386D01*
X-1186595Y-6378828D01*
X-1179387Y-6369129D01*
X-1171564Y-6360384D01*
X-1163128Y-6352593D01*
X-1154078Y-6345757D01*
X-1144414Y-6339874D01*
X-1134136Y-6334945D01*
X-1123244Y-6330970D01*
X-1111738Y-6327949D01*
X-1099618Y-6325882D01*
X-1086884Y-6324769D01*
X-1078054Y-6324557D01*
X-1066056Y-6324939D01*
X-1054377Y-6326085D01*
X-1043018Y-6327995D01*
X-1031977Y-6330669D01*
X-1021256Y-6334107D01*
X-1010853Y-6338309D01*
X-1000770Y-6343276D01*
X-991005Y-6349006D01*
X-981560Y-6355584D01*
X-972434Y-6363094D01*
X-963627Y-6371536D01*
X-955138Y-6380910D01*
X-946969Y-6391216D01*
X-939119Y-6402454D01*
X-931588Y-6414624D01*
X-926149Y-6424362D01*
X-924376Y-6427725D01*
X-724219Y-6393336D01*
X-732214Y-6379871D01*
X-740482Y-6366813D01*
X-749022Y-6354163D01*
X-757836Y-6341920D01*
X-766922Y-6330084D01*
X-776282Y-6318655D01*
X-785914Y-6307633D01*
X-795819Y-6297019D01*
X-805997Y-6286811D01*
X-816447Y-6277011D01*
X-827171Y-6267619D01*
X-838167Y-6258633D01*
X-849437Y-6250054D01*
X-860979Y-6241883D01*
X-872794Y-6234119D01*
X-884882Y-6226762D01*
X-897230Y-6219865D01*
X-909826Y-6213413D01*
X-922669Y-6207406D01*
X-935761Y-6201843D01*
X-949100Y-6196726D01*
X-962686Y-6192054D01*
X-976520Y-6187826D01*
X-979596Y-6187000D01*
X-581019Y-6187000D01*
X-413102Y-6995150D01*
X-220199Y-6995150D01*
X-243842Y-6880967D01*
X-235632Y-6890858D01*
X-227592Y-6900315D01*
X-219722Y-6909337D01*
X-212022Y-6917925D01*
X-204492Y-6926079D01*
X-193516Y-6937494D01*
X-182922Y-6947932D01*
X-172711Y-6957392D01*
X-162882Y-6965875D01*
X-153436Y-6973380D01*
X-144372Y-6979908D01*
X-132883Y-6987090D01*
X-121578Y-6993009D01*
X-110096Y-6998139D01*
X-98439Y-7002480D01*
X-86605Y-7006031D01*
X-74594Y-7008793D01*
X-62408Y-7010767D01*
X-50045Y-7011950D01*
X-37506Y-7012345D01*
X-24334Y-7011962D01*
X-11418Y-7010815D01*
X1244Y-7008902D01*
X13650Y-7006224D01*
X25802Y-7002782D01*
X37698Y-6998574D01*
X49339Y-6993601D01*
X60726Y-6987863D01*
X71857Y-6981360D01*
X82733Y-6974091D01*
X89842Y-6968821D01*
X-15475Y-6771082D01*
X-26818Y-6779268D01*
X-38144Y-6786362D01*
X-49453Y-6792365D01*
X-60745Y-6797277D01*
X-72021Y-6801097D01*
X-83280Y-6803826D01*
X-94522Y-6805463D01*
X-105747Y-6806009D01*
X-116561Y-6805631D01*
X-129701Y-6804096D01*
X-142420Y-6801380D01*
X-154720Y-6797484D01*
X-166600Y-6792407D01*
X-178061Y-6786150D01*
X-184735Y-6781829D01*
X-193463Y-6775175D01*
X-202048Y-6767304D01*
X-210490Y-6758215D01*
X-218789Y-6747909D01*
X-226945Y-6736386D01*
X-232969Y-6726945D01*
X-238913Y-6716818D01*
X-244776Y-6706007D01*
X-250559Y-6694512D01*
X-256401Y-6681508D01*
X-260406Y-6671487D01*
X-264499Y-6660386D01*
X-268680Y-6648204D01*
X-272949Y-6634940D01*
X-277306Y-6620596D01*
X-281752Y-6605171D01*
X-286286Y-6588664D01*
X-290908Y-6571077D01*
X-295618Y-6552409D01*
X-300416Y-6532660D01*
X-305302Y-6511830D01*
X-307779Y-6501009D01*
X-310277Y-6489919D01*
X-312797Y-6478558D01*
X-315340Y-6466927D01*
X-317904Y-6455025D01*
X-320490Y-6442854D01*
X-323099Y-6430412D01*
X-373608Y-6187000D01*
X461409Y-6187000D01*
X693806Y-7304655D01*
X912501Y-7304655D01*
X719330Y-6376141D01*
X1263381Y-6376141D01*
X1258972Y-6354881D01*
X1380041Y-6354881D01*
X1380343Y-6366811D01*
X1381250Y-6379025D01*
X1382761Y-6391522D01*
X1384683Y-6403129D01*
X1384877Y-6404303D01*
X1386161Y-6410799D01*
X1389130Y-6423613D01*
X1392594Y-6436163D01*
X1396554Y-6448448D01*
X1401009Y-6460469D01*
X1405961Y-6472225D01*
X1411409Y-6483717D01*
X1417352Y-6494945D01*
X1423792Y-6505907D01*
X1430727Y-6516606D01*
X1438158Y-6527040D01*
X1443387Y-6533849D01*
X1451627Y-6543800D01*
X1460225Y-6553303D01*
X1469183Y-6562357D01*
X1478499Y-6570963D01*
X1488174Y-6579119D01*
X1498208Y-6586828D01*
X1508601Y-6594087D01*
X1519353Y-6600898D01*
X1530464Y-6607260D01*
X1541934Y-6613174D01*
X1549780Y-6616867D01*
X1562100Y-6622193D01*
X1575285Y-6627392D01*
X1589334Y-6632464D01*
X1604248Y-6637407D01*
X1614670Y-6640632D01*
X1625477Y-6643801D01*
X1636667Y-6646913D01*
X1648242Y-6649968D01*
X1660201Y-6652966D01*
X1672544Y-6655908D01*
X1685271Y-6658793D01*
X1698382Y-6661621D01*
X1711877Y-6664393D01*
X1725757Y-6667108D01*
X1744344Y-6670652D01*
X1762224Y-6674164D01*
X1779397Y-6677646D01*
X1795862Y-6681095D01*
X1811620Y-6684513D01*
X1826671Y-6687900D01*
X1841014Y-6691255D01*
X1854650Y-6694579D01*
X1867578Y-6697871D01*
X1879799Y-6701132D01*
X1891313Y-6704361D01*
X1902120Y-6707559D01*
X1917003Y-6712296D01*
X1930295Y-6716963D01*
X1938272Y-6720035D01*
X1942840Y-6741797D01*
X1944980Y-6753218D01*
X1946464Y-6764006D01*
X1947421Y-6777406D01*
X1947211Y-6789681D01*
X1945834Y-6800830D01*
X1942472Y-6813185D01*
X1937286Y-6823783D01*
X1931824Y-6830995D01*
X1922935Y-6838657D01*
X1911213Y-6845021D01*
X1899794Y-6849177D01*
X1886562Y-6852502D01*
X1875448Y-6854450D01*
X1863314Y-6855930D01*
X1850160Y-6856943D01*
X1835986Y-6857489D01*
X1825969Y-6857593D01*
X1812372Y-6857236D01*
X1799388Y-6856165D01*
X1787017Y-6854381D01*
X1775259Y-6851883D01*
X1764113Y-6848672D01*
X1753580Y-6844747D01*
X1743661Y-6840108D01*
X1734354Y-6834756D01*
X1725492Y-6828505D01*
X1716773Y-6821171D01*
X1708197Y-6812755D01*
X1699763Y-6803255D01*
X1691472Y-6792672D01*
X1683324Y-6781006D01*
X1677307Y-6771545D01*
X1671369Y-6761476D01*
X1667456Y-6754424D01*
X1486374Y-6788814D01*
X1493424Y-6802822D01*
X1500735Y-6816369D01*
X1508309Y-6829454D01*
X1516146Y-6842077D01*
X1524245Y-6854239D01*
X1532606Y-6865938D01*
X1541230Y-6877176D01*
X1550116Y-6887952D01*
X1559264Y-6898266D01*
X1568675Y-6908119D01*
X1578348Y-6917510D01*
X1588283Y-6926439D01*
X1598481Y-6934906D01*
X1608941Y-6942911D01*
X1619664Y-6950455D01*
X1630648Y-6957537D01*
X1642047Y-6964174D01*
X1653943Y-6970382D01*
X1666336Y-6976163D01*
X1679227Y-6981515D01*
X1692615Y-6986440D01*
X1706501Y-6990936D01*
X1720884Y-6995003D01*
X1735765Y-6998643D01*
X1751143Y-7001854D01*
X1767018Y-7004638D01*
X1783391Y-7006993D01*
X1800261Y-7008919D01*
X1817629Y-7010418D01*
X1835495Y-7011489D01*
X1853857Y-7012131D01*
X1872718Y-7012345D01*
X1889807Y-7012213D01*
X1906284Y-7011816D01*
X1922148Y-7011155D01*
X1937399Y-7010229D01*
X1952037Y-7009039D01*
X1966063Y-7007584D01*
X1979475Y-7005865D01*
X1992274Y-7003882D01*
X2004461Y-7001634D01*
X2016035Y-6999121D01*
X2026995Y-6996345D01*
X2037343Y-6993303D01*
X2051716Y-6988245D01*
X2064710Y-6982592D01*
X2072606Y-6978493D01*
X2083654Y-6971985D01*
X2093927Y-6965156D01*
X2103426Y-6958006D01*
X2112150Y-6950535D01*
X2120100Y-6942742D01*
X2127275Y-6934629D01*
X2135638Y-6923311D01*
X2142623Y-6911423D01*
X2148232Y-6898963D01*
X2150519Y-6892519D01*
X2153289Y-6882030D01*
X2155251Y-6870005D01*
X2156406Y-6856445D01*
X2156753Y-6841351D01*
X2156536Y-6830435D01*
X2155960Y-6818837D01*
X2155025Y-6806557D01*
X2153731Y-6793595D01*
X2152078Y-6779951D01*
X2150066Y-6765625D01*
X2147695Y-6750616D01*
X2144966Y-6734925D01*
X2141877Y-6718552D01*
X2138429Y-6701497D01*
X2084159Y-6452174D01*
X2081489Y-6439093D01*
X2078987Y-6426449D01*
X2076653Y-6414242D01*
X2074487Y-6402471D01*
X2072488Y-6391136D01*
X2070658Y-6380238D01*
X2068227Y-6364710D01*
X2066175Y-6350164D01*
X2064500Y-6336601D01*
X2063203Y-6324020D01*
X2062283Y-6312421D01*
X2061645Y-6298484D01*
X2061591Y-6295272D01*
X2061704Y-6282532D01*
X2062313Y-6269564D01*
X2063417Y-6256370D01*
X2065016Y-6242949D01*
X2067111Y-6229302D01*
X2069701Y-6215428D01*
X2071969Y-6204873D01*
X2074515Y-6194192D01*
X2076367Y-6187000D01*
X1871106Y-6187000D01*
X1869616Y-6197666D01*
X1868401Y-6208447D01*
X1867242Y-6220738D01*
X1866320Y-6232136D01*
X1865437Y-6244582D01*
X1864926Y-6252554D01*
X1864165Y-6263527D01*
X1863365Y-6274568D01*
X1863046Y-6278615D01*
X1850891Y-6268630D01*
X1838708Y-6259126D01*
X1826497Y-6250104D01*
X1814257Y-6241564D01*
X1801989Y-6233506D01*
X1789693Y-6225929D01*
X1777369Y-6218834D01*
X1765016Y-6212221D01*
X1752634Y-6206089D01*
X1740225Y-6200439D01*
X1731936Y-6196940D01*
X1719520Y-6192091D01*
X1707057Y-6187718D01*
X1694547Y-6183823D01*
X1681989Y-6180405D01*
X1669384Y-6177463D01*
X1656732Y-6174999D01*
X1644033Y-6173011D01*
X1631287Y-6171501D01*
X1618493Y-6170467D01*
X1605652Y-6169911D01*
X1597065Y-6169805D01*
X1582174Y-6170071D01*
X1567793Y-6170871D01*
X1553922Y-6172204D01*
X1540561Y-6174070D01*
X1527710Y-6176469D01*
X1515369Y-6179401D01*
X1503538Y-6182867D01*
X1492218Y-6186865D01*
X1481407Y-6191397D01*
X1471106Y-6196462D01*
X1461316Y-6202060D01*
X1452035Y-6208191D01*
X1443265Y-6214855D01*
X1435004Y-6222052D01*
X1427254Y-6229783D01*
X1420013Y-6238046D01*
X1413364Y-6246718D01*
X1407319Y-6255673D01*
X1399385Y-6269637D01*
X1392811Y-6284239D01*
X1387597Y-6299478D01*
X1384877Y-6309992D01*
X1382761Y-6320789D01*
X1381250Y-6331870D01*
X1380343Y-6343233D01*
X1380041Y-6354881D01*
X1258972Y-6354881D01*
X1224155Y-6187000D01*
X461409Y-6187000D01*
X-373608Y-6187000D01*
X-581019Y-6187000D01*
X-979596Y-6187000D01*
X-990602Y-6184044D01*
X-1004932Y-6180707D01*
X-1019509Y-6177814D01*
X-1034334Y-6175367D01*
X-1049407Y-6173365D01*
X-1064727Y-6171807D01*
X-1080295Y-6170695D01*
X-1096111Y-6170027D01*
X-1112174Y-6169805D01*
X-1124854Y-6169939D01*
X-1137269Y-6170341D01*
X-1149420Y-6171011D01*
X-1161307Y-6171950D01*
X-1172929Y-6173157D01*
X-1184286Y-6174631D01*
X-1195379Y-6176374D01*
X-1206208Y-6178385D01*
X-1216772Y-6180665D01*
X-1237107Y-6186027D01*
X-1256383Y-6192463D01*
X-1274602Y-6199971D01*
X-1291764Y-6208551D01*
X-1307867Y-6218205D01*
X-1322912Y-6228930D01*
X-1336900Y-6240728D01*
X-1349829Y-6253599D01*
X-1361701Y-6267543D01*
X-1372515Y-6282559D01*
X-1382271Y-6298647D01*
X-1386752Y-6307094D01*
X-1393253Y-6321087D01*
X-1399052Y-6335530D01*
X-1404150Y-6350423D01*
X-1408548Y-6365764D01*
X-1412244Y-6381554D01*
X-1415239Y-6397794D01*
X-1417533Y-6414483D01*
X-1419126Y-6431621D01*
X-1420019Y-6449208D01*
X-1420210Y-6467245D01*
X-1732793Y-6467245D01*
X-1791096Y-6187000D01*
X-2009791Y-6187000D01*
X-1816619Y-7115513D01*
X-2138214Y-7115513D01*
X-2320894Y-7115513D01*
X-2318403Y-7102792D01*
X-2316160Y-7086426D01*
X-2314784Y-7069570D01*
X-2314275Y-7052225D01*
X-2314633Y-7034391D01*
X-2315858Y-7016068D01*
X-2317949Y-6997257D01*
X-2320908Y-6977956D01*
X-2539871Y-6977956D01*
X-2539635Y-6993012D01*
X-2540136Y-7007252D01*
X-2541373Y-7020674D01*
X-2543347Y-7033280D01*
X-2546058Y-7045069D01*
X-2549506Y-7056040D01*
X-2553690Y-7066195D01*
X-2560415Y-7078463D01*
X-2568450Y-7089279D01*
X-2575335Y-7096438D01*
X-2585851Y-7104939D01*
X-2598055Y-7112306D01*
X-2608315Y-7117088D01*
X-2619524Y-7121232D01*
X-2631682Y-7124738D01*
X-2644790Y-7127607D01*
X-2658847Y-7129839D01*
X-2673853Y-7131433D01*
X-2689809Y-7132389D01*
X-2700973Y-7132672D01*
X-2706714Y-7132708D01*
X-2718474Y-7132555D01*
X-2729979Y-7132095D01*
X-2741227Y-7131329D01*
X-2752219Y-7130256D01*
X-2762955Y-7128877D01*
X-2778580Y-7126234D01*
X-2793628Y-7122901D01*
X-2808099Y-7118879D01*
X-2821995Y-7114168D01*
X-2835314Y-7108767D01*
X-2848058Y-7102676D01*
X-2860225Y-7095896D01*
X-2864153Y-7093482D01*
X-2873611Y-7086900D01*
X-2882103Y-7079780D01*
X-2891361Y-7070125D01*
X-2899110Y-7059630D01*
X-2905350Y-7048296D01*
X-2910082Y-7036122D01*
X-2912781Y-7025778D01*
X-2914447Y-7014041D01*
X-2914408Y-7002842D01*
X-2912663Y-6992180D01*
X-2908318Y-6980097D01*
X-2902822Y-6970619D01*
X-2895620Y-6961678D01*
X-2893975Y-6959955D01*
X-2883614Y-6951143D01*
X-2873442Y-6944430D01*
X-2861210Y-6937627D01*
X-2846919Y-6930734D01*
X-2836248Y-6926089D01*
X-2824662Y-6921405D01*
X-2812160Y-6916680D01*
X-2798744Y-6911915D01*
X-2784412Y-6907111D01*
X-2769165Y-6902266D01*
X-2753003Y-6897382D01*
X-2735926Y-6892458D01*
X-2717934Y-6887494D01*
X-2708594Y-6884997D01*
X-2689981Y-6880020D01*
X-2672022Y-6875031D01*
X-2654718Y-6870029D01*
X-2638069Y-6865015D01*
X-2622075Y-6859988D01*
X-2606736Y-6854948D01*
X-2592052Y-6849896D01*
X-2578022Y-6844831D01*
X-2564648Y-6839754D01*
X-2551928Y-6834664D01*
X-2539863Y-6829561D01*
X-2528453Y-6824446D01*
X-2517698Y-6819318D01*
X-2507598Y-6814178D01*
X-2498152Y-6809025D01*
X-2489362Y-6803859D01*
X-2476967Y-6795835D01*
X-2465270Y-6787276D01*
X-2454273Y-6778184D01*
X-2443974Y-6768559D01*
X-2434374Y-6758400D01*
X-2425474Y-6747707D01*
X-2417272Y-6736480D01*
X-2409769Y-6724720D01*
X-2402966Y-6712426D01*
X-2396861Y-6699599D01*
X-2393179Y-6690750D01*
X-2388281Y-6677005D01*
X-2384266Y-6662669D01*
X-2381134Y-6647743D01*
X-2378885Y-6632227D01*
X-2377520Y-6616120D01*
X-2377100Y-6605055D01*
X-2377072Y-6593727D01*
X-2377438Y-6582136D01*
X-2378195Y-6570283D01*
X-2379346Y-6558168D01*
X-2380888Y-6545791D01*
X-2382824Y-6533151D01*
X-2385151Y-6520248D01*
X-2386462Y-6513699D01*
X-2389141Y-6501790D01*
X-2392205Y-6489976D01*
X-2395656Y-6478257D01*
X-2399493Y-6466632D01*
X-2403716Y-6455101D01*
X-2408325Y-6443665D01*
X-2413321Y-6432323D01*
X-2418703Y-6421076D01*
X-2424470Y-6409923D01*
X-2430625Y-6398865D01*
X-2437165Y-6387901D01*
X-2444092Y-6377031D01*
X-2451404Y-6366256D01*
X-2459103Y-6355576D01*
X-2467189Y-6344989D01*
X-2475660Y-6334498D01*
X-2484424Y-6324221D01*
X-2493455Y-6314281D01*
X-2502752Y-6304676D01*
X-2512316Y-6295407D01*
X-2522147Y-6286474D01*
X-2532244Y-6277876D01*
X-2542607Y-6269615D01*
X-2553238Y-6261689D01*
X-2564134Y-6254099D01*
X-2575298Y-6246845D01*
X-2586728Y-6239927D01*
X-2598424Y-6233345D01*
X-2610387Y-6227098D01*
X-2622617Y-6221187D01*
X-2635113Y-6215613D01*
X-2647876Y-6210374D01*
X-2660887Y-6205461D01*
X-2674197Y-6200865D01*
X-2687804Y-6196587D01*
X-2701710Y-6192625D01*
X-2715913Y-6188980D01*
X-2730415Y-6185652D01*
X-2745215Y-6182641D01*
X-2760313Y-6179947D01*
X-2775709Y-6177570D01*
X-2791403Y-6175510D01*
X-2807395Y-6173767D01*
X-2823685Y-6172340D01*
X-2840273Y-6171231D01*
X-2857159Y-6170439D01*
X-2874343Y-6169963D01*
X-2891825Y-6169805D01*
X-2904558Y-6169899D01*
X-2917065Y-6170182D01*
X-2929347Y-6170653D01*
X-2941403Y-6171312D01*
X-2953233Y-6172160D01*
X-2964838Y-6173196D01*
X-2976217Y-6174420D01*
X-2987370Y-6175833D01*
X-2998298Y-6177434D01*
X-3009000Y-6179224D01*
X-3029727Y-6183368D01*
X-3049552Y-6188266D01*
X-3068474Y-6193918D01*
X-3086494Y-6200323D01*
X-3103611Y-6207481D01*
X-3119825Y-6215393D01*
X-3135137Y-6224059D01*
X-3149546Y-6233478D01*
X-3163053Y-6243650D01*
X-3175657Y-6254577D01*
X-3187359Y-6266256D01*
X-3198193Y-6278692D01*
X-3208193Y-6291817D01*
X-3217361Y-6305634D01*
X-3225695Y-6320141D01*
X-3233195Y-6335338D01*
X-3239863Y-6351226D01*
X-3245697Y-6367805D01*
X-3250697Y-6385074D01*
X-3254865Y-6403034D01*
X-3258199Y-6421684D01*
X-3260700Y-6441025D01*
X-3262368Y-6461057D01*
X-3263202Y-6481779D01*
X-3263203Y-6503191D01*
X-3435733Y-6503191D01*
X-3501431Y-6187000D01*
X-3709379Y-6187000D01*
X-3946344Y-6187000D01*
X-4149456Y-6187000D01*
X-3966494Y-7066884D01*
X-4364659Y-6187000D01*
X-4575294Y-6187000D01*
X-4606728Y-7066884D01*
X-4789690Y-6187000D01*
X-4992802Y-6187000D01*
X-5449944Y-6187000D01*
X-5449944Y-6045479D01*
X2206839Y-6045479D01*
X2207009Y-6057204D01*
X2207888Y-6069206D01*
X2209477Y-6081485D01*
X2211775Y-6094041D01*
X2214261Y-6105056D01*
X2216774Y-6115589D01*
X2217418Y-6118221D01*
X2447397Y-6083831D01*
X2447510Y-6071124D01*
X2449059Y-6060004D01*
X2452681Y-6049036D01*
X2459213Y-6039145D01*
X2464591Y-6034397D01*
X2475504Y-6027823D01*
X2486647Y-6023383D01*
X2499652Y-6019889D01*
X2511398Y-6017773D01*
X2524336Y-6016262D01*
X2538466Y-6015355D01*
X2549846Y-6015071D01*
X2553789Y-6015053D01*
X2568693Y-6015270D01*
X2582978Y-6015922D01*
X2596645Y-6017008D01*
X2609693Y-6018528D01*
X2622122Y-6020484D01*
X2633932Y-6022873D01*
X2645124Y-6025697D01*
X2655698Y-6028956D01*
X2668833Y-6033977D01*
X2680868Y-6039770D01*
X2690217Y-6045390D01*
X2699119Y-6052007D01*
X2707575Y-6059621D01*
X2715585Y-6068232D01*
X2723149Y-6077840D01*
X2730267Y-6088445D01*
X2732990Y-6092966D01*
X2738622Y-6104297D01*
X2743302Y-6116121D01*
X2747036Y-6127138D01*
X2750761Y-6139541D01*
X2754479Y-6153329D01*
X2757261Y-6164579D01*
X2760039Y-6176609D01*
X2762812Y-6189418D01*
X2786992Y-6305482D01*
X2772155Y-6291134D01*
X2757132Y-6277712D01*
X2741922Y-6265216D01*
X2726525Y-6253646D01*
X2710941Y-6243001D01*
X2695171Y-6233282D01*
X2679213Y-6224488D01*
X2663069Y-6216620D01*
X2646738Y-6209678D01*
X2630220Y-6203661D01*
X2613516Y-6198570D01*
X2596624Y-6194405D01*
X2579546Y-6191165D01*
X2562281Y-6188851D01*
X2544829Y-6187462D01*
X2527191Y-6187000D01*
X2507780Y-6187537D01*
X2489107Y-6189149D01*
X2471174Y-6191836D01*
X2453979Y-6195597D01*
X2437523Y-6200433D01*
X2421806Y-6206344D01*
X2406828Y-6213329D01*
X2392588Y-6221389D01*
X2379088Y-6230524D01*
X2366326Y-6240733D01*
X2354303Y-6252017D01*
X2343019Y-6264376D01*
X2332474Y-6277809D01*
X2322668Y-6292317D01*
X2313600Y-6307900D01*
X2305272Y-6324557D01*
X2299384Y-6338365D01*
X2294147Y-6352587D01*
X2289561Y-6367222D01*
X2285625Y-6382270D01*
X2282340Y-6397732D01*
X2279706Y-6413608D01*
X2277723Y-6429897D01*
X2276390Y-6446599D01*
X2275708Y-6463715D01*
X2275676Y-6481245D01*
X2276264Y-6498299D01*
X2276295Y-6499188D01*
X2277565Y-6517544D01*
X2279486Y-6536314D01*
X2282057Y-6555497D01*
X2285279Y-6575094D01*
X2289152Y-6595105D01*
X2291861Y-6607689D01*
X2294717Y-6620087D01*
X2297719Y-6632297D01*
X2300868Y-6644321D01*
X2304163Y-6656158D01*
X2307605Y-6667809D01*
X2311193Y-6679272D01*
X2314927Y-6690549D01*
X2318808Y-6701639D01*
X2322835Y-6712542D01*
X2327008Y-6723258D01*
X2331328Y-6733787D01*
X2335794Y-6744130D01*
X2340407Y-6754286D01*
X2345166Y-6764255D01*
X2350072Y-6774037D01*
X2355124Y-6783633D01*
X2360322Y-6793041D01*
X2371158Y-6811298D01*
X2382580Y-6828807D01*
X2394587Y-6845570D01*
X2407179Y-6861585D01*
X2420358Y-6876853D01*
X2434122Y-6891373D01*
X2448471Y-6905147D01*
X2463240Y-6918128D01*
X2478193Y-6930271D01*
X2493330Y-6941577D01*
X2508653Y-6952046D01*
X2524160Y-6961677D01*
X2539852Y-6970471D01*
X2555728Y-6978427D01*
X2571789Y-6985545D01*
X2588035Y-6991827D01*
X2604466Y-6997270D01*
X2621081Y-7001876D01*
X2637882Y-7005645D01*
X2654866Y-7008576D01*
X2672036Y-7010670D01*
X2689390Y-7011926D01*
X2706929Y-7012345D01*
X2724830Y-7011859D01*
X2742129Y-7010401D01*
X2758825Y-7007972D01*
X2774919Y-7004570D01*
X2790410Y-7000197D01*
X2805299Y-6994852D01*
X2819586Y-6988535D01*
X2833270Y-6981247D01*
X2846352Y-6972986D01*
X2858831Y-6963754D01*
X2870708Y-6953550D01*
X2881982Y-6942374D01*
X2892655Y-6930226D01*
X2902724Y-6917107D01*
X2912192Y-6903015D01*
X2921057Y-6887952D01*
X2943356Y-6995150D01*
X3137871Y-6995150D01*
X2987418Y-6270824D01*
X2983659Y-6253240D01*
X2979840Y-6236220D01*
X2975960Y-6219765D01*
X2972020Y-6203875D01*
X2968018Y-6188550D01*
X2963955Y-6173789D01*
X2959832Y-6159592D01*
X2955648Y-6145961D01*
X2951402Y-6132894D01*
X2947096Y-6120391D01*
X2942730Y-6108453D01*
X2938302Y-6097080D01*
X2933813Y-6086271D01*
X2929264Y-6076027D01*
X2922325Y-6061720D01*
X2919982Y-6057233D01*
X2913544Y-6045479D01*
X3147174Y-6045479D01*
X3147344Y-6057204D01*
X3148223Y-6069206D01*
X3149812Y-6081485D01*
X3152110Y-6094041D01*
X3154596Y-6105056D01*
X3157109Y-6115589D01*
X3157752Y-6118221D01*
X3387732Y-6083831D01*
X3387845Y-6071124D01*
X3389394Y-6060004D01*
X3393016Y-6049036D01*
X3399548Y-6039145D01*
X3404926Y-6034397D01*
X3415839Y-6027823D01*
X3426982Y-6023383D01*
X3439987Y-6019889D01*
X3451733Y-6017773D01*
X3464671Y-6016262D01*
X3478801Y-6015355D01*
X3490181Y-6015071D01*
X3494124Y-6015053D01*
X3509028Y-6015270D01*
X3523313Y-6015922D01*
X3536980Y-6017008D01*
X3550027Y-6018528D01*
X3562457Y-6020484D01*
X3574267Y-6022873D01*
X3585459Y-6025697D01*
X3596033Y-6028956D01*
X3609168Y-6033977D01*
X3621203Y-6039770D01*
X3630552Y-6045390D01*
X3639454Y-6052007D01*
X3647910Y-6059621D01*
X3655920Y-6068232D01*
X3663484Y-6077840D01*
X3670602Y-6088445D01*
X3673325Y-6092966D01*
X3678957Y-6104297D01*
X3683637Y-6116121D01*
X3687371Y-6127138D01*
X3691096Y-6139541D01*
X3694814Y-6153329D01*
X3697596Y-6164579D01*
X3700374Y-6176609D01*
X3703147Y-6189418D01*
X3727327Y-6305482D01*
X3712490Y-6291134D01*
X3697467Y-6277712D01*
X3682257Y-6265216D01*
X3666860Y-6253646D01*
X3651276Y-6243001D01*
X3635506Y-6233282D01*
X3619548Y-6224488D01*
X3603404Y-6216620D01*
X3587073Y-6209678D01*
X3570555Y-6203661D01*
X3553851Y-6198570D01*
X3536959Y-6194405D01*
X3519881Y-6191165D01*
X3502616Y-6188851D01*
X3485164Y-6187462D01*
X3467526Y-6187000D01*
X3448114Y-6187537D01*
X3429442Y-6189149D01*
X3411509Y-6191836D01*
X3394314Y-6195597D01*
X3377858Y-6200433D01*
X3362141Y-6206344D01*
X3347163Y-6213329D01*
X3332923Y-6221389D01*
X3319423Y-6230524D01*
X3306661Y-6240733D01*
X3294638Y-6252017D01*
X3283354Y-6264376D01*
X3272809Y-6277809D01*
X3263003Y-6292317D01*
X3253935Y-6307900D01*
X3245607Y-6324557D01*
X3239719Y-6338365D01*
X3234482Y-6352587D01*
X3229896Y-6367222D01*
X3225960Y-6382270D01*
X3222675Y-6397732D01*
X3220041Y-6413608D01*
X3218058Y-6429897D01*
X3216725Y-6446599D01*
X3216043Y-6463715D01*
X3216011Y-6481245D01*
X3216599Y-6498299D01*
X3216630Y-6499188D01*
X3217900Y-6517544D01*
X3219821Y-6536314D01*
X3222392Y-6555497D01*
X3225614Y-6575094D01*
X3229487Y-6595105D01*
X3232196Y-6607689D01*
X3235052Y-6620087D01*
X3238054Y-6632297D01*
X3241203Y-6644321D01*
X3244498Y-6656158D01*
X3247940Y-6667809D01*
X3251528Y-6679272D01*
X3255262Y-6690549D01*
X3259143Y-6701639D01*
X3263170Y-6712542D01*
X3267343Y-6723258D01*
X3271663Y-6733787D01*
X3276129Y-6744130D01*
X3280742Y-6754286D01*
X3285501Y-6764255D01*
X3290407Y-6774037D01*
X3295459Y-6783633D01*
X3300657Y-6793041D01*
X3311493Y-6811298D01*
X3322915Y-6828807D01*
X3334922Y-6845570D01*
X3347514Y-6861585D01*
X3360693Y-6876853D01*
X3374457Y-6891373D01*
X3388806Y-6905147D01*
X3403574Y-6918128D01*
X3418528Y-6930271D01*
X3433665Y-6941577D01*
X3448988Y-6952046D01*
X3464495Y-6961677D01*
X3480187Y-6970471D01*
X3496063Y-6978427D01*
X3512124Y-6985545D01*
X3528370Y-6991827D01*
X3544801Y-6997270D01*
X3561416Y-7001876D01*
X3578217Y-7005645D01*
X3595201Y-7008576D01*
X3612371Y-7010670D01*
X3629725Y-7011926D01*
X3647264Y-7012345D01*
X3665165Y-7011859D01*
X3682464Y-7010401D01*
X3699160Y-7007972D01*
X3715254Y-7004570D01*
X3730745Y-7000197D01*
X3745634Y-6994852D01*
X3759921Y-6988535D01*
X3773605Y-6981247D01*
X3786686Y-6972986D01*
X3799166Y-6963754D01*
X3811043Y-6953550D01*
X3822317Y-6942374D01*
X3832990Y-6930226D01*
X3843059Y-6917107D01*
X3852527Y-6903015D01*
X3861392Y-6887952D01*
X3883691Y-6995150D01*
X4078206Y-6995150D01*
X3927752Y-6270824D01*
X3923994Y-6253240D01*
X3920175Y-6236220D01*
X3916295Y-6219765D01*
X3912354Y-6203875D01*
X3908353Y-6188550D01*
X3904290Y-6173789D01*
X3900167Y-6159592D01*
X3895983Y-6145961D01*
X3891737Y-6132894D01*
X3887431Y-6120391D01*
X3883065Y-6108453D01*
X3878637Y-6097080D01*
X3874148Y-6086271D01*
X3869599Y-6076027D01*
X3862660Y-6061720D01*
X3860317Y-6057233D01*
X3853206Y-6044251D01*
X3845878Y-6031803D01*
X3838333Y-6019889D01*
X3830571Y-6008508D01*
X3822591Y-5997661D01*
X3814394Y-5987347D01*
X3805980Y-5977567D01*
X3797348Y-5968321D01*
X3788499Y-5959609D01*
X3779434Y-5951430D01*
X3773269Y-5946274D01*
X3763735Y-5938871D01*
X3753771Y-5931775D01*
X3743377Y-5924986D01*
X3732553Y-5918504D01*
X3721300Y-5912330D01*
X3709617Y-5906462D01*
X3697504Y-5900901D01*
X3684961Y-5895647D01*
X3671989Y-5890700D01*
X3658587Y-5886060D01*
X3649413Y-5883137D01*
X3635279Y-5879056D01*
X3620583Y-5875376D01*
X3605437Y-5872122D01*
X4036294Y-5872122D01*
X4049996Y-6026068D01*
X4061565Y-6023486D01*
X4072900Y-6021249D01*
X4083999Y-6019355D01*
X4094863Y-6017806D01*
X4108113Y-6016354D01*
X4120995Y-6015440D01*
X4133511Y-6015063D01*
X4135969Y-6015053D01*
X4149280Y-6015480D01*
X4162108Y-6016762D01*
X4174454Y-6018899D01*
X4186319Y-6021891D01*
X4197703Y-6025738D01*
X4208604Y-6030439D01*
X4219024Y-6035995D01*
X4228962Y-6042406D01*
X4238418Y-6049672D01*
X4247393Y-6057793D01*
X4253108Y-6063681D01*
X4261424Y-6072983D01*
X4269546Y-6082751D01*
X4277475Y-6092988D01*
X4285210Y-6103692D01*
X4292751Y-6114863D01*
X4300099Y-6126502D01*
X4307253Y-6138609D01*
X4314213Y-6151183D01*
X4320980Y-6164224D01*
X4327553Y-6177734D01*
X4331828Y-6187000D01*
X4200987Y-6995150D01*
X4422100Y-6995150D01*
X4491147Y-6422889D01*
X4793129Y-6995150D01*
X5008332Y-6995150D01*
X4569330Y-6216284D01*
X4488729Y-6067443D01*
X4481052Y-6055079D01*
X4473535Y-6043278D01*
X4466179Y-6032039D01*
X4458983Y-6021362D01*
X4451948Y-6011247D01*
X4445073Y-6001694D01*
X4438359Y-5992703D01*
X4429657Y-5981589D01*
X4421240Y-5971474D01*
X4415115Y-5964543D01*
X4407046Y-5955887D01*
X4398827Y-5947651D01*
X4390456Y-5939834D01*
X4381934Y-5932437D01*
X4373261Y-5925460D01*
X4364437Y-5918903D01*
X4355462Y-5912766D01*
X4346336Y-5907048D01*
X4336995Y-5901692D01*
X4327244Y-5896637D01*
X4317081Y-5891885D01*
X4306506Y-5887436D01*
X4295520Y-5883288D01*
X4284123Y-5879443D01*
X4272314Y-5875900D01*
X4260094Y-5872659D01*
X4247584Y-5869762D01*
X4234772Y-5867252D01*
X4221658Y-5865128D01*
X4208241Y-5863390D01*
X4194522Y-5862038D01*
X4180501Y-5861073D01*
X4166178Y-5860493D01*
X4155237Y-5860312D01*
X4151552Y-5860300D01*
X4140359Y-5860404D01*
X4129245Y-5860716D01*
X4118213Y-5861235D01*
X4107260Y-5861963D01*
X4096388Y-5862898D01*
X4085595Y-5864041D01*
X4074884Y-5865391D01*
X4060726Y-5867515D01*
X4046711Y-5870009D01*
X4036294Y-5872122D01*
X3605437Y-5872122D01*
X3605325Y-5872098D01*
X3589505Y-5869221D01*
X3578646Y-5867526D01*
X3567537Y-5866009D01*
X3556178Y-5864671D01*
X3544570Y-5863512D01*
X3532712Y-5862530D01*
X3520604Y-5861728D01*
X3508247Y-5861103D01*
X3495639Y-5860657D01*
X3482782Y-5860389D01*
X3469675Y-5860300D01*
X3457342Y-5860365D01*
X3445262Y-5860558D01*
X3433435Y-5860881D01*
X3421861Y-5861333D01*
X3410539Y-5861914D01*
X3399471Y-5862624D01*
X3388656Y-5863463D01*
X3367784Y-5865528D01*
X3347923Y-5868110D01*
X3329074Y-5871208D01*
X3311237Y-5874822D01*
X3294412Y-5878953D01*
X3278599Y-5883600D01*
X3263797Y-5888764D01*
X3250007Y-5894444D01*
X3237228Y-5900640D01*
X3225461Y-5907352D01*
X3214706Y-5914581D01*
X3204963Y-5922326D01*
X3200471Y-5926392D01*
X3192127Y-5934792D01*
X3184493Y-5943470D01*
X3177569Y-5952424D01*
X3171354Y-5961655D01*
X3165848Y-5971163D01*
X3161052Y-5980949D01*
X3156965Y-5991011D01*
X3153588Y-6001351D01*
X3150920Y-6011967D01*
X3148962Y-6022861D01*
X3147713Y-6034031D01*
X3147174Y-6045479D01*
X2913544Y-6045479D01*
X2912871Y-6044251D01*
X2905543Y-6031803D01*
X2897998Y-6019889D01*
X2890236Y-6008508D01*
X2882256Y-5997661D01*
X2874059Y-5987347D01*
X2865645Y-5977567D01*
X2857013Y-5968321D01*
X2848164Y-5959609D01*
X2839099Y-5951430D01*
X2832934Y-5946274D01*
X2823400Y-5938871D01*
X2813436Y-5931775D01*
X2803042Y-5924986D01*
X2792218Y-5918504D01*
X2780965Y-5912330D01*
X2769282Y-5906462D01*
X2757169Y-5900901D01*
X2744626Y-5895647D01*
X2731654Y-5890700D01*
X2718252Y-5886060D01*
X2709078Y-5883137D01*
X2694944Y-5879056D01*
X2680248Y-5875376D01*
X2664990Y-5872098D01*
X2649170Y-5869221D01*
X2638311Y-5867526D01*
X2627202Y-5866009D01*
X2615844Y-5864671D01*
X2604235Y-5863512D01*
X2592377Y-5862530D01*
X2580269Y-5861728D01*
X2567912Y-5861103D01*
X2555304Y-5860657D01*
X2542447Y-5860389D01*
X2529340Y-5860300D01*
X2517007Y-5860365D01*
X2504927Y-5860558D01*
X2493100Y-5860881D01*
X2481526Y-5861333D01*
X2470204Y-5861914D01*
X2459136Y-5862624D01*
X2448321Y-5863463D01*
X2427449Y-5865528D01*
X2407588Y-5868110D01*
X2388740Y-5871208D01*
X2370903Y-5874822D01*
X2354077Y-5878953D01*
X2338264Y-5883600D01*
X2323462Y-5888764D01*
X2309672Y-5894444D01*
X2296893Y-5900640D01*
X2285126Y-5907352D01*
X2274371Y-5914581D01*
X2264628Y-5922326D01*
X2260136Y-5926392D01*
X2251792Y-5934792D01*
X2244158Y-5943470D01*
X2237234Y-5952424D01*
X2231019Y-5961655D01*
X2225513Y-5971163D01*
X2220717Y-5980949D01*
X2216630Y-5991011D01*
X2213253Y-6001351D01*
X2210585Y-6011967D01*
X2208627Y-6022861D01*
X2207378Y-6034031D01*
X2206839Y-6045479D01*
X-5449944Y-6045479D01*
X-5449944Y-5403158D01*
X5465476Y-5403158D01*
X5465476Y-7778993D01*
G37*
D10*
X-3894174Y5643629D02*
X-3941793Y5596010D01*
X-3941793Y5596010D02*
X-4037031Y5548391D01*
X-4037031Y5548391D02*
X-4132269Y5548391D01*
X-4132269Y5548391D02*
X-4227507Y5596010D01*
X-4227507Y5596010D02*
X-4275126Y5643629D01*
X-4275126Y5643629D02*
X-4322745Y5738867D01*
X-4322745Y5738867D02*
X-4322745Y5834105D01*
X-4322745Y5834105D02*
X-4275126Y5929343D01*
X-4275126Y5929343D02*
X-4227507Y5976962D01*
X-4227507Y5976962D02*
X-4132269Y6024581D01*
X-4132269Y6024581D02*
X-4037031Y6024581D01*
X-4037031Y6024581D02*
X-3941793Y5976962D01*
X-3941793Y5976962D02*
X-3894174Y5929343D01*
X-3894174Y5548391D02*
X-3894174Y5929343D01*
X-3894174Y5929343D02*
X-3846555Y5976962D01*
X-3846555Y5976962D02*
X-3798936Y5976962D01*
X-3798936Y5976962D02*
X-3703697Y5929343D01*
X-3703697Y5929343D02*
X-3656078Y5834105D01*
X-3656078Y5834105D02*
X-3656078Y5596010D01*
X-3656078Y5596010D02*
X-3751316Y5453153D01*
X-3751316Y5453153D02*
X-3894174Y5357915D01*
X-3894174Y5357915D02*
X-4084650Y5310296D01*
X-4084650Y5310296D02*
X-4275126Y5357915D01*
X-4275126Y5357915D02*
X-4417983Y5453153D01*
X-4417983Y5453153D02*
X-4513221Y5596010D01*
X-4513221Y5596010D02*
X-4560840Y5786486D01*
X-4560840Y5786486D02*
X-4513221Y5976962D01*
X-4513221Y5976962D02*
X-4417983Y6119820D01*
X-4417983Y6119820D02*
X-4275126Y6215058D01*
X-4275126Y6215058D02*
X-4084650Y6262677D01*
X-4084650Y6262677D02*
X-3894174Y6215058D01*
X-3894174Y6215058D02*
X-3751316Y6119820D01*
X-3322745Y5453153D02*
X-3132269Y6119820D01*
X-3132269Y6119820D02*
X-2941793Y5643629D01*
X-2941793Y5643629D02*
X-2751317Y6119820D01*
X-2751317Y6119820D02*
X-2560841Y5453153D01*
X-2179888Y6119820D02*
X-2179888Y5453153D01*
X-2179888Y5119820D02*
X-2227507Y5167439D01*
X-2227507Y5167439D02*
X-2179888Y5215058D01*
X-2179888Y5215058D02*
X-2132269Y5167439D01*
X-2132269Y5167439D02*
X-2179888Y5119820D01*
X-2179888Y5119820D02*
X-2179888Y5215058D01*
X-1275127Y6072200D02*
X-1370365Y6119820D01*
X-1370365Y6119820D02*
X-1560841Y6119820D01*
X-1560841Y6119820D02*
X-1656079Y6072200D01*
X-1656079Y6072200D02*
X-1703698Y6024581D01*
X-1703698Y6024581D02*
X-1751317Y5929343D01*
X-1751317Y5929343D02*
X-1751317Y5643629D01*
X-1751317Y5643629D02*
X-1703698Y5548391D01*
X-1703698Y5548391D02*
X-1656079Y5500772D01*
X-1656079Y5500772D02*
X-1560841Y5453153D01*
X-1560841Y5453153D02*
X-1370365Y5453153D01*
X-1370365Y5453153D02*
X-1275127Y5500772D01*
X-846555Y6119820D02*
X-846555Y5119820D01*
X-751317Y5738867D02*
X-465603Y6119820D01*
X-465603Y5453153D02*
X-846555Y5834105D01*
X343921Y6072200D02*
X248683Y6119820D01*
X248683Y6119820D02*
X58207Y6119820D01*
X58207Y6119820D02*
X-37031Y6072200D01*
X-37031Y6072200D02*
X-84650Y5976962D01*
X-84650Y5976962D02*
X-84650Y5596010D01*
X-84650Y5596010D02*
X-37031Y5500772D01*
X-37031Y5500772D02*
X58207Y5453153D01*
X58207Y5453153D02*
X248683Y5453153D01*
X248683Y5453153D02*
X343921Y5500772D01*
X343921Y5500772D02*
X391540Y5596010D01*
X391540Y5596010D02*
X391540Y5691248D01*
X391540Y5691248D02*
X-84650Y5786486D01*
X820112Y6119820D02*
X820112Y5453153D01*
X820112Y5643629D02*
X867731Y5548391D01*
X867731Y5548391D02*
X915350Y5500772D01*
X915350Y5500772D02*
X1010588Y5453153D01*
X1010588Y5453153D02*
X1105826Y5453153D01*
X1343922Y5453153D02*
X1534398Y6119820D01*
X1534398Y6119820D02*
X1724874Y5643629D01*
X1724874Y5643629D02*
X1915350Y6119820D01*
X1915350Y6119820D02*
X2105826Y5453153D01*
X2915350Y6119820D02*
X2915350Y5596010D01*
X2915350Y5596010D02*
X2867731Y5500772D01*
X2867731Y5500772D02*
X2772493Y5453153D01*
X2772493Y5453153D02*
X2582017Y5453153D01*
X2582017Y5453153D02*
X2486779Y5500772D01*
X2915350Y6072200D02*
X2820112Y6119820D01*
X2820112Y6119820D02*
X2582017Y6119820D01*
X2582017Y6119820D02*
X2486779Y6072200D01*
X2486779Y6072200D02*
X2439160Y5976962D01*
X2439160Y5976962D02*
X2439160Y5881724D01*
X2439160Y5881724D02*
X2486779Y5786486D01*
X2486779Y5786486D02*
X2582017Y5738867D01*
X2582017Y5738867D02*
X2820112Y5738867D01*
X2820112Y5738867D02*
X2915350Y5691248D01*
X3391541Y6119820D02*
X3391541Y5119820D01*
X3486779Y5738867D02*
X3772493Y6119820D01*
X3772493Y5453153D02*
X3391541Y5834105D01*
X4629636Y6119820D02*
X4629636Y5596010D01*
X4629636Y5596010D02*
X4582017Y5500772D01*
X4582017Y5500772D02*
X4486779Y5453153D01*
X4486779Y5453153D02*
X4296303Y5453153D01*
X4296303Y5453153D02*
X4201065Y5500772D01*
X4629636Y6072200D02*
X4534398Y6119820D01*
X4534398Y6119820D02*
X4296303Y6119820D01*
X4296303Y6119820D02*
X4201065Y6072200D01*
X4201065Y6072200D02*
X4153446Y5976962D01*
X4153446Y5976962D02*
X4153446Y5881724D01*
X4153446Y5881724D02*
X4201065Y5786486D01*
X4201065Y5786486D02*
X4296303Y5738867D01*
X4296303Y5738867D02*
X4534398Y5738867D01*
X4534398Y5738867D02*
X4629636Y5691248D01*
%LPC*%
D12*
%TO.C,J1*%
X2890000Y4195000D03*
X-2890000Y4195000D03*
D13*
X4320000Y3675000D03*
D14*
X4320000Y7875000D03*
D13*
X-4320000Y3675000D03*
D14*
X-4320000Y7875000D03*
%TD*%
D15*
%TO.C,H1*%
X0Y-2750000D03*
%TD*%
%LPD*%
M02*
