%TF.GenerationSoftware,KiCad,Pcbnew,7.0.5-0*%
%TF.CreationDate,2023-08-30T06:54:43-07:00*%
%TF.ProjectId,MiSTerLaggy,4d695354-6572-44c6-9167-67792e6b6963,rev?*%
%TF.SameCoordinates,Original*%
%TF.FileFunction,Legend,Bot*%
%TF.FilePolarity,Positive*%
%FSLAX46Y46*%
G04 Gerber Fmt 4.6, Leading zero omitted, Abs format (unit mm)*
G04 Created by KiCad (PCBNEW 7.0.5-0) date 2023-08-30 06:54:43*
%MOMM*%
%LPD*%
G01*
G04 APERTURE LIST*
%ADD10C,0.100000*%
%ADD11C,0.150000*%
%ADD12C,0.700000*%
%ADD13O,0.900000X2.400000*%
%ADD14O,0.900000X1.700000*%
%ADD15C,1.600000*%
%ADD16O,1.600000X1.600000*%
%ADD17R,1.800000X1.800000*%
%ADD18C,1.800000*%
%ADD19C,2.200000*%
G04 APERTURE END LIST*
D10*
X10119925Y-5735657D02*
X10148496Y-5707085D01*
X10148496Y-5707085D02*
X10205639Y-5678514D01*
X10205639Y-5678514D02*
X10262782Y-5678514D01*
X10262782Y-5678514D02*
X10319925Y-5707085D01*
X10319925Y-5707085D02*
X10348496Y-5735657D01*
X10348496Y-5735657D02*
X10377068Y-5792800D01*
X10377068Y-5792800D02*
X10377068Y-5849942D01*
X10377068Y-5849942D02*
X10348496Y-5907085D01*
X10348496Y-5907085D02*
X10319925Y-5935657D01*
X10319925Y-5935657D02*
X10262782Y-5964228D01*
X10262782Y-5964228D02*
X10205639Y-5964228D01*
X10205639Y-5964228D02*
X10148496Y-5935657D01*
X10148496Y-5935657D02*
X10119925Y-5907085D01*
X10119925Y-5678514D02*
X10119925Y-5907085D01*
X10119925Y-5907085D02*
X10091353Y-5935657D01*
X10091353Y-5935657D02*
X10062782Y-5935657D01*
X10062782Y-5935657D02*
X10005639Y-5907085D01*
X10005639Y-5907085D02*
X9977068Y-5849942D01*
X9977068Y-5849942D02*
X9977068Y-5707085D01*
X9977068Y-5707085D02*
X10034211Y-5621371D01*
X10034211Y-5621371D02*
X10119925Y-5564228D01*
X10119925Y-5564228D02*
X10234211Y-5535657D01*
X10234211Y-5535657D02*
X10348496Y-5564228D01*
X10348496Y-5564228D02*
X10434211Y-5621371D01*
X10434211Y-5621371D02*
X10491353Y-5707085D01*
X10491353Y-5707085D02*
X10519925Y-5821371D01*
X10519925Y-5821371D02*
X10491353Y-5935657D01*
X10491353Y-5935657D02*
X10434211Y-6021371D01*
X10434211Y-6021371D02*
X10348496Y-6078514D01*
X10348496Y-6078514D02*
X10234211Y-6107085D01*
X10234211Y-6107085D02*
X10119925Y-6078514D01*
X10119925Y-6078514D02*
X10034211Y-6021371D01*
X9777067Y-5621371D02*
X9662782Y-6021371D01*
X9662782Y-6021371D02*
X9548496Y-5735657D01*
X9548496Y-5735657D02*
X9434210Y-6021371D01*
X9434210Y-6021371D02*
X9319924Y-5621371D01*
X9091353Y-6021371D02*
X9091353Y-5621371D01*
X9091353Y-5421371D02*
X9119925Y-5449942D01*
X9119925Y-5449942D02*
X9091353Y-5478514D01*
X9091353Y-5478514D02*
X9062782Y-5449942D01*
X9062782Y-5449942D02*
X9091353Y-5421371D01*
X9091353Y-5421371D02*
X9091353Y-5478514D01*
X8548497Y-5992800D02*
X8605639Y-6021371D01*
X8605639Y-6021371D02*
X8719925Y-6021371D01*
X8719925Y-6021371D02*
X8777068Y-5992800D01*
X8777068Y-5992800D02*
X8805639Y-5964228D01*
X8805639Y-5964228D02*
X8834211Y-5907085D01*
X8834211Y-5907085D02*
X8834211Y-5735657D01*
X8834211Y-5735657D02*
X8805639Y-5678514D01*
X8805639Y-5678514D02*
X8777068Y-5649942D01*
X8777068Y-5649942D02*
X8719925Y-5621371D01*
X8719925Y-5621371D02*
X8605639Y-5621371D01*
X8605639Y-5621371D02*
X8548497Y-5649942D01*
X8291353Y-6021371D02*
X8291353Y-5421371D01*
X8234211Y-5792800D02*
X8062782Y-6021371D01*
X8062782Y-5621371D02*
X8291353Y-5849942D01*
X7577068Y-5992800D02*
X7634211Y-6021371D01*
X7634211Y-6021371D02*
X7748497Y-6021371D01*
X7748497Y-6021371D02*
X7805639Y-5992800D01*
X7805639Y-5992800D02*
X7834211Y-5935657D01*
X7834211Y-5935657D02*
X7834211Y-5707085D01*
X7834211Y-5707085D02*
X7805639Y-5649942D01*
X7805639Y-5649942D02*
X7748497Y-5621371D01*
X7748497Y-5621371D02*
X7634211Y-5621371D01*
X7634211Y-5621371D02*
X7577068Y-5649942D01*
X7577068Y-5649942D02*
X7548497Y-5707085D01*
X7548497Y-5707085D02*
X7548497Y-5764228D01*
X7548497Y-5764228D02*
X7834211Y-5821371D01*
X7291353Y-6021371D02*
X7291353Y-5621371D01*
X7291353Y-5735657D02*
X7262782Y-5678514D01*
X7262782Y-5678514D02*
X7234211Y-5649942D01*
X7234211Y-5649942D02*
X7177068Y-5621371D01*
X7177068Y-5621371D02*
X7119925Y-5621371D01*
X6977067Y-5621371D02*
X6862782Y-6021371D01*
X6862782Y-6021371D02*
X6748496Y-5735657D01*
X6748496Y-5735657D02*
X6634210Y-6021371D01*
X6634210Y-6021371D02*
X6519924Y-5621371D01*
X6034211Y-6021371D02*
X6034211Y-5707085D01*
X6034211Y-5707085D02*
X6062782Y-5649942D01*
X6062782Y-5649942D02*
X6119925Y-5621371D01*
X6119925Y-5621371D02*
X6234211Y-5621371D01*
X6234211Y-5621371D02*
X6291353Y-5649942D01*
X6034211Y-5992800D02*
X6091353Y-6021371D01*
X6091353Y-6021371D02*
X6234211Y-6021371D01*
X6234211Y-6021371D02*
X6291353Y-5992800D01*
X6291353Y-5992800D02*
X6319925Y-5935657D01*
X6319925Y-5935657D02*
X6319925Y-5878514D01*
X6319925Y-5878514D02*
X6291353Y-5821371D01*
X6291353Y-5821371D02*
X6234211Y-5792800D01*
X6234211Y-5792800D02*
X6091353Y-5792800D01*
X6091353Y-5792800D02*
X6034211Y-5764228D01*
X5748496Y-6021371D02*
X5748496Y-5421371D01*
X5691354Y-5792800D02*
X5519925Y-6021371D01*
X5519925Y-5621371D02*
X5748496Y-5849942D01*
X5005640Y-6021371D02*
X5005640Y-5707085D01*
X5005640Y-5707085D02*
X5034211Y-5649942D01*
X5034211Y-5649942D02*
X5091354Y-5621371D01*
X5091354Y-5621371D02*
X5205640Y-5621371D01*
X5205640Y-5621371D02*
X5262782Y-5649942D01*
X5005640Y-5992800D02*
X5062782Y-6021371D01*
X5062782Y-6021371D02*
X5205640Y-6021371D01*
X5205640Y-6021371D02*
X5262782Y-5992800D01*
X5262782Y-5992800D02*
X5291354Y-5935657D01*
X5291354Y-5935657D02*
X5291354Y-5878514D01*
X5291354Y-5878514D02*
X5262782Y-5821371D01*
X5262782Y-5821371D02*
X5205640Y-5792800D01*
X5205640Y-5792800D02*
X5062782Y-5792800D01*
X5062782Y-5792800D02*
X5005640Y-5764228D01*
D11*
X6512030Y-1510961D02*
X6321554Y-2044295D01*
X6321554Y-2044295D02*
X6131077Y-1510961D01*
X5407268Y-2044295D02*
X5864411Y-2044295D01*
X5635839Y-2044295D02*
X5635839Y-1244295D01*
X5635839Y-1244295D02*
X5712030Y-1358580D01*
X5712030Y-1358580D02*
X5788220Y-1434771D01*
X5788220Y-1434771D02*
X5864411Y-1472866D01*
X5064410Y-1968104D02*
X5026315Y-2006200D01*
X5026315Y-2006200D02*
X5064410Y-2044295D01*
X5064410Y-2044295D02*
X5102506Y-2006200D01*
X5102506Y-2006200D02*
X5064410Y-1968104D01*
X5064410Y-1968104D02*
X5064410Y-2044295D01*
X4531077Y-1244295D02*
X4454887Y-1244295D01*
X4454887Y-1244295D02*
X4378696Y-1282390D01*
X4378696Y-1282390D02*
X4340601Y-1320485D01*
X4340601Y-1320485D02*
X4302506Y-1396676D01*
X4302506Y-1396676D02*
X4264411Y-1549057D01*
X4264411Y-1549057D02*
X4264411Y-1739533D01*
X4264411Y-1739533D02*
X4302506Y-1891914D01*
X4302506Y-1891914D02*
X4340601Y-1968104D01*
X4340601Y-1968104D02*
X4378696Y-2006200D01*
X4378696Y-2006200D02*
X4454887Y-2044295D01*
X4454887Y-2044295D02*
X4531077Y-2044295D01*
X4531077Y-2044295D02*
X4607268Y-2006200D01*
X4607268Y-2006200D02*
X4645363Y-1968104D01*
X4645363Y-1968104D02*
X4683458Y-1891914D01*
X4683458Y-1891914D02*
X4721554Y-1739533D01*
X4721554Y-1739533D02*
X4721554Y-1549057D01*
X4721554Y-1549057D02*
X4683458Y-1396676D01*
X4683458Y-1396676D02*
X4645363Y-1320485D01*
X4645363Y-1320485D02*
X4607268Y-1282390D01*
X4607268Y-1282390D02*
X4531077Y-1244295D01*
G36*
X5990222Y-12411D02*
G01*
X6020627Y-42816D01*
X6054886Y-111332D01*
X6054886Y-361636D01*
X6020627Y-430153D01*
X5990219Y-460561D01*
X5921705Y-494819D01*
X5766640Y-494819D01*
X5728696Y-475847D01*
X5728696Y2877D01*
X5766638Y21848D01*
X5921704Y21848D01*
X5990222Y-12411D01*
G37*
G36*
X6894984Y-12411D02*
G01*
X6925389Y-42816D01*
X6959648Y-111332D01*
X6959647Y-361636D01*
X6925389Y-430153D01*
X6894981Y-460561D01*
X6826467Y-494819D01*
X6671402Y-494819D01*
X6633457Y-475847D01*
X6633458Y2877D01*
X6671400Y21848D01*
X6826466Y21848D01*
X6894984Y-12411D01*
G37*
G36*
X7566849Y-266580D02*
G01*
X7573393Y-263866D01*
X7778847Y-263866D01*
X7835889Y-292387D01*
X7864410Y-349427D01*
X7864410Y-409255D01*
X7835888Y-466298D01*
X7778848Y-494819D01*
X7576164Y-494819D01*
X7538220Y-475847D01*
X7538220Y-263866D01*
X7551766Y-263866D01*
X7566849Y-266580D01*
G37*
G36*
X11167857Y-1067857D02*
G01*
X4209523Y-1067857D01*
X4209523Y92362D01*
X4718516Y92362D01*
X4957121Y-575733D01*
X4956833Y-577226D01*
X4958813Y-582178D01*
X4958508Y-587501D01*
X4966176Y-601089D01*
X4967644Y-605198D01*
X4968484Y-606353D01*
X5057928Y-829961D01*
X5061281Y-845375D01*
X5073689Y-857783D01*
X5084527Y-871573D01*
X5089043Y-873137D01*
X5117823Y-901917D01*
X5124267Y-912767D01*
X5142776Y-922021D01*
X5160890Y-931912D01*
X5162348Y-931807D01*
X5248845Y-975056D01*
X5281134Y-980866D01*
X5321817Y-963993D01*
X5346919Y-927803D01*
X5348472Y-883787D01*
X5325981Y-845918D01*
X5221931Y-793893D01*
X5193803Y-765765D01*
X5114824Y-568316D01*
X5334392Y46474D01*
X5575579Y46474D01*
X5578696Y37095D01*
X5578696Y-520889D01*
X5577967Y-541565D01*
X5578696Y-542792D01*
X5578696Y-708635D01*
X5576765Y-726520D01*
X5583621Y-740233D01*
X5587939Y-754936D01*
X5593292Y-759574D01*
X5630027Y-833043D01*
X5632710Y-845375D01*
X5647337Y-860002D01*
X5661399Y-875120D01*
X5662817Y-875482D01*
X5689252Y-901917D01*
X5695696Y-912767D01*
X5714205Y-922021D01*
X5732319Y-931912D01*
X5733777Y-931807D01*
X5807023Y-968430D01*
X5822150Y-978152D01*
X5837480Y-978152D01*
X5852563Y-980866D01*
X5859107Y-978152D01*
X5982989Y-978152D01*
X6000873Y-980083D01*
X6014586Y-973226D01*
X6029289Y-968909D01*
X6033927Y-963555D01*
X6125451Y-917793D01*
X6149473Y-895449D01*
X6160384Y-852778D01*
X6146494Y-810983D01*
X6112212Y-783331D01*
X6068423Y-778603D01*
X5969324Y-828152D01*
X5861878Y-828152D01*
X5793360Y-793893D01*
X5762953Y-763486D01*
X5728696Y-694971D01*
X5728696Y-644819D01*
X5742242Y-644819D01*
X5757325Y-647533D01*
X5763869Y-644819D01*
X5935370Y-644819D01*
X5953254Y-646750D01*
X5966967Y-639893D01*
X5981670Y-635576D01*
X5986308Y-630222D01*
X6059776Y-593487D01*
X6072110Y-590805D01*
X6086741Y-576172D01*
X6101854Y-562116D01*
X6102216Y-560696D01*
X6128650Y-534262D01*
X6139501Y-527818D01*
X6148757Y-509304D01*
X6158647Y-491194D01*
X6158542Y-489734D01*
X6195164Y-416490D01*
X6204886Y-401364D01*
X6204886Y-386034D01*
X6207600Y-370951D01*
X6204886Y-364407D01*
X6204886Y-97658D01*
X6206816Y-79784D01*
X6199961Y-66074D01*
X6195643Y-51368D01*
X6190288Y-46728D01*
X6153554Y26741D01*
X6150872Y39071D01*
X6143469Y46474D01*
X6480341Y46474D01*
X6483457Y37095D01*
X6483458Y-520889D01*
X6482729Y-541565D01*
X6483457Y-542792D01*
X6483458Y-708635D01*
X6481527Y-726520D01*
X6488383Y-740233D01*
X6492701Y-754936D01*
X6498054Y-759574D01*
X6534789Y-833043D01*
X6537472Y-845375D01*
X6552099Y-860002D01*
X6566161Y-875120D01*
X6567579Y-875482D01*
X6594014Y-901917D01*
X6600458Y-912767D01*
X6618967Y-922021D01*
X6637081Y-931912D01*
X6638539Y-931807D01*
X6711785Y-968430D01*
X6726912Y-978152D01*
X6742242Y-978152D01*
X6757325Y-980866D01*
X6763869Y-978152D01*
X6887751Y-978152D01*
X6905635Y-980083D01*
X6919348Y-973226D01*
X6934051Y-968909D01*
X6938689Y-963555D01*
X7030213Y-917793D01*
X7054235Y-895449D01*
X7065146Y-852778D01*
X7051256Y-810983D01*
X7016974Y-783331D01*
X6973185Y-778603D01*
X6874086Y-828152D01*
X6766640Y-828152D01*
X6698122Y-793893D01*
X6667715Y-763486D01*
X6633458Y-694971D01*
X6633458Y-644819D01*
X6647004Y-644819D01*
X6662087Y-647533D01*
X6668631Y-644819D01*
X6840132Y-644819D01*
X6858016Y-646750D01*
X6871729Y-639893D01*
X6886432Y-635576D01*
X6891070Y-630222D01*
X6964538Y-593487D01*
X6976872Y-590805D01*
X6991503Y-576172D01*
X7006616Y-562116D01*
X7006978Y-560696D01*
X7033412Y-534262D01*
X7044263Y-527818D01*
X7053519Y-509304D01*
X7063409Y-491194D01*
X7063304Y-489734D01*
X7099926Y-416490D01*
X7109648Y-401364D01*
X7109648Y-386034D01*
X7112362Y-370951D01*
X7109648Y-364407D01*
X7109648Y-97658D01*
X7111578Y-79784D01*
X7104723Y-66074D01*
X7101295Y-54400D01*
X7385506Y-54400D01*
X7388220Y-60943D01*
X7388220Y-139936D01*
X7387491Y-160612D01*
X7388220Y-161839D01*
X7388220Y-520889D01*
X7387491Y-541565D01*
X7388220Y-542792D01*
X7388220Y-580601D01*
X7397463Y-612079D01*
X7430749Y-640921D01*
X7474344Y-647189D01*
X7511529Y-630207D01*
X7521309Y-635097D01*
X7536436Y-644819D01*
X7551766Y-644819D01*
X7566849Y-647533D01*
X7573393Y-644819D01*
X7792513Y-644819D01*
X7810397Y-646750D01*
X7824110Y-639893D01*
X7838813Y-635576D01*
X7843451Y-630222D01*
X7908242Y-597826D01*
X7911157Y-597929D01*
X7927764Y-588065D01*
X7934975Y-584460D01*
X7936989Y-582586D01*
X7939756Y-580943D01*
X8147755Y-580943D01*
X8166051Y-621007D01*
X8203103Y-644819D01*
X8695955Y-644819D01*
X8712439Y-647189D01*
X8727591Y-640269D01*
X8743575Y-635576D01*
X8747311Y-631263D01*
X8752503Y-628893D01*
X8761510Y-614876D01*
X8772417Y-602290D01*
X8773228Y-596643D01*
X8776315Y-591841D01*
X8776315Y-575178D01*
X8778685Y-558695D01*
X8776315Y-553505D01*
X8776315Y85724D01*
X8957279Y85724D01*
X8975575Y45660D01*
X9012627Y21848D01*
X9112181Y21848D01*
X9180699Y-12411D01*
X9211104Y-42816D01*
X9245363Y-111332D01*
X9245363Y-580601D01*
X9254606Y-612079D01*
X9287892Y-640921D01*
X9331487Y-647189D01*
X9371551Y-628893D01*
X9395363Y-591841D01*
X9395363Y-97658D01*
X9397293Y-79784D01*
X9395363Y-75923D01*
X9395363Y107630D01*
X9386120Y139108D01*
X9352834Y167950D01*
X9309239Y174218D01*
X9269175Y155922D01*
X9247627Y122394D01*
X9241740Y125609D01*
X9240279Y125505D01*
X9167038Y162125D01*
X9151909Y171848D01*
X9136579Y171848D01*
X9121496Y174562D01*
X9114952Y171848D01*
X9023867Y171848D01*
X8992389Y162605D01*
X8963547Y129319D01*
X8957279Y85724D01*
X8776315Y85724D01*
X8776315Y418421D01*
X9719277Y418421D01*
X9721554Y413542D01*
X9721554Y-580601D01*
X9730797Y-612079D01*
X9764083Y-640921D01*
X9807678Y-647189D01*
X9847742Y-628893D01*
X9871554Y-591841D01*
X9871554Y92114D01*
X10061667Y-315271D01*
X10070394Y-334804D01*
X10080324Y-341302D01*
X10088170Y-350207D01*
X10098372Y-353111D01*
X10107249Y-358920D01*
X10119117Y-359017D01*
X10130530Y-362267D01*
X10140680Y-359195D01*
X10151291Y-359283D01*
X10161330Y-352947D01*
X10172686Y-349511D01*
X10179565Y-341438D01*
X10188538Y-335776D01*
X10193557Y-325020D01*
X10201254Y-315989D01*
X10202677Y-305477D01*
X10388220Y92115D01*
X10388220Y-580601D01*
X10397463Y-612079D01*
X10430749Y-640921D01*
X10474344Y-647189D01*
X10514408Y-628893D01*
X10538220Y-591841D01*
X10538220Y424512D01*
X10540679Y440669D01*
X10533757Y456162D01*
X10528977Y472441D01*
X10524908Y475966D01*
X10522713Y480881D01*
X10508513Y490173D01*
X10495691Y501283D01*
X10490363Y502050D01*
X10485858Y504997D01*
X10468886Y505137D01*
X10452096Y507551D01*
X10447201Y505316D01*
X10441816Y505360D01*
X10427461Y496302D01*
X10412032Y489255D01*
X10409122Y484728D01*
X10404569Y481854D01*
X10397392Y466476D01*
X10388220Y452203D01*
X10388220Y446821D01*
X10129887Y-106750D01*
X9866916Y456758D01*
X9862311Y472441D01*
X9849488Y483552D01*
X9838271Y496284D01*
X9833092Y497759D01*
X9829025Y501283D01*
X9812231Y503698D01*
X9795911Y508344D01*
X9790758Y506785D01*
X9785430Y507551D01*
X9769993Y500502D01*
X9753755Y495588D01*
X9750264Y491492D01*
X9745366Y489255D01*
X9736190Y474978D01*
X9725187Y462066D01*
X9724464Y456733D01*
X9721554Y452203D01*
X9721553Y435237D01*
X9719277Y418421D01*
X8776315Y418421D01*
X8776315Y440963D01*
X8767072Y472441D01*
X8733786Y501283D01*
X8690191Y507551D01*
X8650127Y489255D01*
X8626315Y452203D01*
X8626315Y-494819D01*
X8214343Y-494819D01*
X8182865Y-504062D01*
X8154023Y-537348D01*
X8147755Y-580943D01*
X7939756Y-580943D01*
X7949025Y-575438D01*
X7952807Y-567873D01*
X7958997Y-562116D01*
X7962462Y-548562D01*
X8004687Y-464112D01*
X8014410Y-448983D01*
X8014409Y-433652D01*
X8017124Y-418570D01*
X8014410Y-412026D01*
X8014410Y-335753D01*
X8016340Y-317879D01*
X8009485Y-304169D01*
X8005167Y-289463D01*
X7999812Y-284823D01*
X7967417Y-220032D01*
X7967520Y-217120D01*
X7957660Y-200519D01*
X7954051Y-193300D01*
X7952175Y-191283D01*
X7945029Y-179251D01*
X7937464Y-175468D01*
X7931707Y-169279D01*
X7918153Y-165813D01*
X7833704Y-123589D01*
X7818575Y-113866D01*
X7803245Y-113866D01*
X7788162Y-111152D01*
X7781618Y-113866D01*
X7576164Y-113866D01*
X7538220Y-94894D01*
X7538220Y-63715D01*
X7566741Y-6672D01*
X7623781Y21848D01*
X7778847Y21848D01*
X7867893Y-22675D01*
X7900182Y-28485D01*
X7940865Y-11612D01*
X7965967Y24578D01*
X7967520Y68594D01*
X7945029Y106463D01*
X7833704Y162125D01*
X7818575Y171848D01*
X7803245Y171848D01*
X7788162Y174562D01*
X7781618Y171848D01*
X7610108Y171848D01*
X7592233Y173778D01*
X7578523Y166924D01*
X7563817Y162605D01*
X7559177Y157251D01*
X7494386Y124856D01*
X7491474Y124958D01*
X7474873Y115099D01*
X7467654Y111489D01*
X7465637Y109614D01*
X7453605Y102467D01*
X7449822Y94903D01*
X7443633Y89145D01*
X7440167Y75592D01*
X7397943Y-8857D01*
X7388220Y-23987D01*
X7388220Y-39317D01*
X7385506Y-54400D01*
X7101295Y-54400D01*
X7100405Y-51368D01*
X7095050Y-46728D01*
X7058316Y26741D01*
X7055634Y39071D01*
X7041014Y53691D01*
X7026945Y68816D01*
X7025526Y69179D01*
X6999091Y95614D01*
X6992648Y106463D01*
X6974147Y115714D01*
X6956025Y125609D01*
X6954564Y125505D01*
X6881323Y162125D01*
X6866194Y171848D01*
X6850864Y171848D01*
X6835781Y174562D01*
X6829237Y171848D01*
X6657727Y171848D01*
X6639852Y173778D01*
X6626142Y166924D01*
X6611436Y162605D01*
X6606796Y157251D01*
X6604564Y156135D01*
X6590929Y167950D01*
X6547334Y174218D01*
X6507270Y155922D01*
X6483458Y118870D01*
X6483457Y58665D01*
X6480341Y46474D01*
X6143469Y46474D01*
X6136252Y53691D01*
X6122183Y68816D01*
X6120764Y69179D01*
X6094329Y95614D01*
X6087886Y106463D01*
X6069385Y115714D01*
X6051263Y125609D01*
X6049802Y125505D01*
X5976561Y162125D01*
X5961432Y171848D01*
X5946102Y171848D01*
X5931019Y174562D01*
X5924475Y171848D01*
X5752965Y171848D01*
X5735090Y173778D01*
X5721380Y166924D01*
X5706674Y162605D01*
X5702034Y157251D01*
X5699802Y156135D01*
X5686167Y167950D01*
X5642572Y174218D01*
X5602508Y155922D01*
X5578696Y118870D01*
X5578696Y58665D01*
X5575579Y46474D01*
X5334392Y46474D01*
X5347000Y81776D01*
X5348883Y114529D01*
X5327236Y152886D01*
X5288289Y173452D01*
X5244406Y169697D01*
X5209519Y142812D01*
X5034647Y-346828D01*
X4863557Y132227D01*
X4844266Y158762D01*
X4803218Y174729D01*
X4760055Y165969D01*
X4728478Y135264D01*
X4718516Y92362D01*
X4209523Y92362D01*
X4209523Y1042857D01*
X11167857Y1042857D01*
X11167857Y-1067857D01*
G37*
%LPC*%
D12*
%TO.C,J1*%
X10650000Y-4360000D03*
X9800000Y-4360000D03*
X8950000Y-4360000D03*
X8100000Y-4360000D03*
X7250000Y-4360000D03*
X6400000Y-4360000D03*
X5550000Y-4360000D03*
X4700000Y-4360000D03*
X4700000Y-3010000D03*
X5550000Y-3010000D03*
X6400000Y-3010000D03*
X7250000Y-3010000D03*
X8100000Y-3010000D03*
X8950000Y-3010000D03*
X9800000Y-3010000D03*
X10650000Y-3010000D03*
D13*
X12000000Y-3380000D03*
D14*
X12000000Y0D03*
D13*
X3350000Y-3380000D03*
D14*
X3350000Y0D03*
%TD*%
D15*
%TO.C,R1*%
X11510000Y-7000000D03*
D16*
X3890000Y-7000000D03*
%TD*%
D17*
%TO.C,Q1*%
X7700000Y-9800000D03*
D18*
X7700000Y-12340000D03*
%TD*%
D19*
%TO.C,H2*%
X11100000Y-11100000D03*
%TD*%
%TO.C,H1*%
X4300000Y-11100000D03*
%TD*%
%LPD*%
M02*
