%TF.GenerationSoftware,KiCad,Pcbnew,7.0.5-0*%
%TF.CreationDate,2023-08-30T06:54:43-07:00*%
%TF.ProjectId,MiSTerLaggy,4d695354-6572-44c6-9167-67792e6b6963,rev?*%
%TF.SameCoordinates,Original*%
%TF.FileFunction,Copper,L2,Bot*%
%TF.FilePolarity,Positive*%
%FSLAX46Y46*%
G04 Gerber Fmt 4.6, Leading zero omitted, Abs format (unit mm)*
G04 Created by KiCad (PCBNEW 7.0.5-0) date 2023-08-30 06:54:43*
%MOMM*%
%LPD*%
G01*
G04 APERTURE LIST*
%TA.AperFunction,ComponentPad*%
%ADD10C,0.700000*%
%TD*%
%TA.AperFunction,ComponentPad*%
%ADD11O,0.900000X2.400000*%
%TD*%
%TA.AperFunction,ComponentPad*%
%ADD12O,0.900000X1.700000*%
%TD*%
%TA.AperFunction,ComponentPad*%
%ADD13C,1.600000*%
%TD*%
%TA.AperFunction,ComponentPad*%
%ADD14O,1.600000X1.600000*%
%TD*%
%TA.AperFunction,ComponentPad*%
%ADD15R,1.800000X1.800000*%
%TD*%
%TA.AperFunction,ComponentPad*%
%ADD16C,1.800000*%
%TD*%
%TA.AperFunction,Conductor*%
%ADD17C,0.250000*%
%TD*%
G04 APERTURE END LIST*
D10*
%TO.P,J1,A1,GND*%
%TO.N,GND*%
X10650000Y-4360000D03*
%TO.P,J1,A4,VBUS*%
%TO.N,unconnected-(J1-VBUS-PadA4)*%
X9800000Y-4360000D03*
%TO.P,J1,A5,CC1*%
%TO.N,unconnected-(J1-CC1-PadA5)*%
X8950000Y-4360000D03*
%TO.P,J1,A6,D+*%
%TO.N,Net-(Q1-C)*%
X8100000Y-4360000D03*
%TO.P,J1,A7,D-*%
%TO.N,+3.3V*%
X7250000Y-4360000D03*
%TO.P,J1,A8,SBU1*%
%TO.N,unconnected-(J1-SBU1-PadA8)*%
X6400000Y-4360000D03*
%TO.P,J1,A9,VBUS*%
%TO.N,unconnected-(J1-VBUS-PadA4)*%
X5550000Y-4360000D03*
%TO.P,J1,A12,GND*%
%TO.N,GND*%
X4700000Y-4360000D03*
%TO.P,J1,B1,GND*%
X4700000Y-3010000D03*
%TO.P,J1,B4,VBUS*%
%TO.N,unconnected-(J1-VBUS-PadA4)*%
X5550000Y-3010000D03*
%TO.P,J1,B5,CC2*%
%TO.N,unconnected-(J1-CC2-PadB5)*%
X6400000Y-3010000D03*
%TO.P,J1,B6,D+*%
%TO.N,Net-(Q1-C)*%
X7250000Y-3010000D03*
%TO.P,J1,B7,D-*%
%TO.N,+3.3V*%
X8100000Y-3010000D03*
%TO.P,J1,B8,SBU2*%
%TO.N,unconnected-(J1-SBU2-PadB8)*%
X8950000Y-3010000D03*
%TO.P,J1,B9,VBUS*%
%TO.N,unconnected-(J1-VBUS-PadA4)*%
X9800000Y-3010000D03*
%TO.P,J1,B12,GND*%
%TO.N,GND*%
X10650000Y-3010000D03*
D11*
%TO.P,J1,S1,SHIELD*%
X12000000Y-3380000D03*
D12*
X12000000Y0D03*
D11*
X3350000Y-3380000D03*
D12*
X3350000Y0D03*
%TD*%
D13*
%TO.P,R1,1*%
%TO.N,Net-(Q1-C)*%
X11510000Y-7000000D03*
D14*
%TO.P,R1,2*%
%TO.N,+3.3V*%
X3890000Y-7000000D03*
%TD*%
D15*
%TO.P,Q1,1,C*%
%TO.N,Net-(Q1-C)*%
X7700000Y-9800000D03*
D16*
%TO.P,Q1,2,E*%
%TO.N,GND*%
X7700000Y-12340000D03*
%TD*%
D17*
%TO.N,Net-(Q1-C)*%
X8100000Y-4255405D02*
X8100000Y-4360000D01*
X7250000Y-3010000D02*
X7250000Y-3405405D01*
X7250000Y-3405405D02*
X8100000Y-4255405D01*
%TD*%
%TA.AperFunction,Conductor*%
%TO.N,GND*%
G36*
X12202697Y1799264D02*
G01*
X12245491Y1795520D01*
X12371776Y1783082D01*
X12391685Y1779459D01*
X12457426Y1761844D01*
X12459208Y1761336D01*
X12551570Y1733318D01*
X12567959Y1727048D01*
X12635396Y1695601D01*
X12638375Y1694112D01*
X12675969Y1674018D01*
X12722327Y1649238D01*
X12728667Y1645343D01*
X12794828Y1599017D01*
X12798600Y1596156D01*
X12870808Y1536897D01*
X12875309Y1532818D01*
X12932815Y1475312D01*
X12936895Y1470810D01*
X12996154Y1398602D01*
X12999015Y1394830D01*
X13045341Y1328669D01*
X13049236Y1322329D01*
X13094101Y1238395D01*
X13095613Y1235370D01*
X13127041Y1167973D01*
X13133319Y1151564D01*
X13161303Y1059316D01*
X13161860Y1057364D01*
X13179454Y991702D01*
X13183082Y971762D01*
X13195522Y845448D01*
X13199264Y802700D01*
X13199500Y797291D01*
X13199500Y-12597290D01*
X13199264Y-12602699D01*
X13195522Y-12645446D01*
X13183082Y-12771760D01*
X13179454Y-12791700D01*
X13161860Y-12857362D01*
X13161303Y-12859314D01*
X13133319Y-12951562D01*
X13127041Y-12967971D01*
X13095613Y-13035368D01*
X13094101Y-13038393D01*
X13049236Y-13122327D01*
X13045341Y-13128667D01*
X12999015Y-13194828D01*
X12996154Y-13198600D01*
X12936895Y-13270808D01*
X12932806Y-13275320D01*
X12875320Y-13332806D01*
X12870808Y-13336895D01*
X12798600Y-13396154D01*
X12794828Y-13399015D01*
X12728667Y-13445341D01*
X12722327Y-13449236D01*
X12638393Y-13494101D01*
X12635368Y-13495613D01*
X12567971Y-13527041D01*
X12551562Y-13533319D01*
X12459314Y-13561303D01*
X12457362Y-13561860D01*
X12391700Y-13579454D01*
X12371760Y-13583082D01*
X12245446Y-13595522D01*
X12207251Y-13598865D01*
X12202694Y-13599264D01*
X12197291Y-13599500D01*
X8624084Y-13599500D01*
X8557045Y-13579815D01*
X8511290Y-13527011D01*
X8506248Y-13499801D01*
X7788231Y-12781784D01*
X7834138Y-12774865D01*
X7956357Y-12716007D01*
X8055798Y-12623740D01*
X8123625Y-12506260D01*
X8141499Y-12427947D01*
X8851186Y-13137634D01*
X8935484Y-13008606D01*
X9028682Y-12796135D01*
X9085638Y-12571218D01*
X9104798Y-12340005D01*
X9104798Y-12339994D01*
X9085638Y-12108781D01*
X9028682Y-11883864D01*
X8935483Y-11671390D01*
X8851186Y-11542364D01*
X8144449Y-12249101D01*
X8143673Y-12238735D01*
X8094113Y-12112459D01*
X8009535Y-12006401D01*
X7897453Y-11929984D01*
X7789700Y-11896747D01*
X8449628Y-11236818D01*
X8510951Y-11203333D01*
X8537308Y-11200499D01*
X8647872Y-11200499D01*
X8707483Y-11194091D01*
X8842331Y-11143796D01*
X8900835Y-11100000D01*
X9744341Y-11100000D01*
X9764936Y-11335403D01*
X9764938Y-11335413D01*
X9826094Y-11563655D01*
X9826096Y-11563659D01*
X9826097Y-11563663D01*
X9876030Y-11670745D01*
X9925964Y-11777828D01*
X9925965Y-11777830D01*
X10061505Y-11971402D01*
X10228597Y-12138494D01*
X10422169Y-12274034D01*
X10422171Y-12274035D01*
X10636337Y-12373903D01*
X10636343Y-12373904D01*
X10636344Y-12373905D01*
X10691285Y-12388626D01*
X10864592Y-12435063D01*
X11041032Y-12450499D01*
X11041033Y-12450500D01*
X11041034Y-12450500D01*
X11158967Y-12450500D01*
X11158967Y-12450499D01*
X11335408Y-12435063D01*
X11563663Y-12373903D01*
X11777829Y-12274035D01*
X11971401Y-12138495D01*
X12138495Y-11971401D01*
X12274035Y-11777830D01*
X12373903Y-11563663D01*
X12435063Y-11335408D01*
X12455659Y-11100000D01*
X12451944Y-11057544D01*
X12435063Y-10864596D01*
X12435063Y-10864592D01*
X12373903Y-10636337D01*
X12274035Y-10422171D01*
X12274034Y-10422169D01*
X12138494Y-10228597D01*
X11971402Y-10061505D01*
X11777830Y-9925965D01*
X11777828Y-9925964D01*
X11670745Y-9876031D01*
X11563663Y-9826097D01*
X11563659Y-9826096D01*
X11563655Y-9826094D01*
X11335413Y-9764938D01*
X11335403Y-9764936D01*
X11158967Y-9749500D01*
X11158966Y-9749500D01*
X11041034Y-9749500D01*
X11041033Y-9749500D01*
X10864596Y-9764936D01*
X10864586Y-9764938D01*
X10636344Y-9826094D01*
X10636335Y-9826098D01*
X10422171Y-9925964D01*
X10422169Y-9925965D01*
X10228597Y-10061505D01*
X10061506Y-10228597D01*
X10061501Y-10228604D01*
X9925967Y-10422165D01*
X9925965Y-10422169D01*
X9826098Y-10636335D01*
X9826094Y-10636344D01*
X9764938Y-10864586D01*
X9764936Y-10864596D01*
X9744341Y-11099999D01*
X9744341Y-11100000D01*
X8900835Y-11100000D01*
X8957546Y-11057546D01*
X9043796Y-10942331D01*
X9094091Y-10807483D01*
X9100500Y-10747873D01*
X9100499Y-8852128D01*
X9094091Y-8792517D01*
X9043796Y-8657669D01*
X9043795Y-8657668D01*
X9043793Y-8657664D01*
X8957547Y-8542455D01*
X8957544Y-8542452D01*
X8842335Y-8456206D01*
X8842328Y-8456202D01*
X8707482Y-8405908D01*
X8707483Y-8405908D01*
X8647883Y-8399501D01*
X8647881Y-8399500D01*
X8647873Y-8399500D01*
X8647864Y-8399500D01*
X6752129Y-8399500D01*
X6752123Y-8399501D01*
X6692516Y-8405908D01*
X6557671Y-8456202D01*
X6557664Y-8456206D01*
X6442455Y-8542452D01*
X6442452Y-8542455D01*
X6356206Y-8657664D01*
X6356202Y-8657671D01*
X6305908Y-8792517D01*
X6299501Y-8852116D01*
X6299501Y-8852123D01*
X6299500Y-8852135D01*
X6299500Y-10747870D01*
X6299501Y-10747876D01*
X6305908Y-10807483D01*
X6356202Y-10942328D01*
X6356206Y-10942335D01*
X6442452Y-11057544D01*
X6442455Y-11057547D01*
X6557664Y-11143793D01*
X6557671Y-11143797D01*
X6602618Y-11160561D01*
X6692517Y-11194091D01*
X6752127Y-11200500D01*
X6862692Y-11200499D01*
X6929729Y-11220183D01*
X6950371Y-11236818D01*
X7611768Y-11898215D01*
X7565862Y-11905135D01*
X7443643Y-11963993D01*
X7344202Y-12056260D01*
X7276375Y-12173740D01*
X7258500Y-12252053D01*
X6548812Y-11542365D01*
X6464516Y-11671391D01*
X6464514Y-11671395D01*
X6371317Y-11883864D01*
X6314361Y-12108781D01*
X6295202Y-12339994D01*
X6295202Y-12340005D01*
X6314361Y-12571218D01*
X6371317Y-12796135D01*
X6464516Y-13008609D01*
X6548811Y-13137633D01*
X7255550Y-12430896D01*
X7256327Y-12441265D01*
X7305887Y-12567541D01*
X7390465Y-12673599D01*
X7502547Y-12750016D01*
X7610299Y-12783253D01*
X6892006Y-13501544D01*
X6884183Y-13535947D01*
X6834315Y-13584886D01*
X6775914Y-13599500D01*
X3202709Y-13599500D01*
X3197305Y-13599264D01*
X3192337Y-13598829D01*
X3154552Y-13595522D01*
X3028238Y-13583082D01*
X3008298Y-13579454D01*
X2942636Y-13561860D01*
X2940711Y-13561310D01*
X2903113Y-13549905D01*
X2848436Y-13533319D01*
X2832027Y-13527041D01*
X2764630Y-13495613D01*
X2761605Y-13494101D01*
X2677671Y-13449236D01*
X2671331Y-13445341D01*
X2605170Y-13399015D01*
X2601398Y-13396154D01*
X2529190Y-13336895D01*
X2524688Y-13332815D01*
X2467182Y-13275309D01*
X2463103Y-13270808D01*
X2403844Y-13198600D01*
X2400983Y-13194828D01*
X2354657Y-13128667D01*
X2350762Y-13122327D01*
X2325982Y-13075969D01*
X2305888Y-13038375D01*
X2304399Y-13035396D01*
X2272952Y-12967959D01*
X2266682Y-12951570D01*
X2238664Y-12859208D01*
X2238156Y-12857426D01*
X2220541Y-12791685D01*
X2216918Y-12771776D01*
X2204476Y-12645446D01*
X2200736Y-12602696D01*
X2200500Y-12597291D01*
X2200500Y-11100000D01*
X2944341Y-11100000D01*
X2964936Y-11335403D01*
X2964938Y-11335413D01*
X3026094Y-11563655D01*
X3026096Y-11563659D01*
X3026097Y-11563663D01*
X3076030Y-11670745D01*
X3125964Y-11777828D01*
X3125965Y-11777830D01*
X3261505Y-11971402D01*
X3428597Y-12138494D01*
X3622169Y-12274034D01*
X3622171Y-12274035D01*
X3836337Y-12373903D01*
X3836343Y-12373904D01*
X3836344Y-12373905D01*
X3891285Y-12388626D01*
X4064592Y-12435063D01*
X4241032Y-12450499D01*
X4241033Y-12450500D01*
X4241034Y-12450500D01*
X4358967Y-12450500D01*
X4358967Y-12450499D01*
X4535408Y-12435063D01*
X4763663Y-12373903D01*
X4977829Y-12274035D01*
X5171401Y-12138495D01*
X5338495Y-11971401D01*
X5474035Y-11777830D01*
X5573903Y-11563663D01*
X5635063Y-11335408D01*
X5655659Y-11100000D01*
X5651944Y-11057544D01*
X5635063Y-10864596D01*
X5635063Y-10864592D01*
X5573903Y-10636337D01*
X5474035Y-10422171D01*
X5474034Y-10422169D01*
X5338494Y-10228597D01*
X5171402Y-10061505D01*
X4977830Y-9925965D01*
X4977828Y-9925964D01*
X4870745Y-9876031D01*
X4763663Y-9826097D01*
X4763659Y-9826096D01*
X4763655Y-9826094D01*
X4535413Y-9764938D01*
X4535403Y-9764936D01*
X4358967Y-9749500D01*
X4358966Y-9749500D01*
X4241034Y-9749500D01*
X4241033Y-9749500D01*
X4064596Y-9764936D01*
X4064586Y-9764938D01*
X3836344Y-9826094D01*
X3836335Y-9826098D01*
X3622171Y-9925964D01*
X3622169Y-9925965D01*
X3428597Y-10061505D01*
X3261506Y-10228597D01*
X3261501Y-10228604D01*
X3125967Y-10422165D01*
X3125965Y-10422169D01*
X3026098Y-10636335D01*
X3026094Y-10636344D01*
X2964938Y-10864586D01*
X2964936Y-10864596D01*
X2944341Y-11099999D01*
X2944341Y-11100000D01*
X2200500Y-11100000D01*
X2200500Y-7000001D01*
X2584532Y-7000001D01*
X2604364Y-7226686D01*
X2604366Y-7226697D01*
X2663258Y-7446488D01*
X2663261Y-7446497D01*
X2759431Y-7652732D01*
X2759432Y-7652734D01*
X2889954Y-7839141D01*
X3050858Y-8000045D01*
X3050861Y-8000047D01*
X3237266Y-8130568D01*
X3443504Y-8226739D01*
X3663308Y-8285635D01*
X3825230Y-8299801D01*
X3889998Y-8305468D01*
X3890000Y-8305468D01*
X3890002Y-8305468D01*
X3946672Y-8300509D01*
X4116692Y-8285635D01*
X4336496Y-8226739D01*
X4542734Y-8130568D01*
X4729139Y-8000047D01*
X4890047Y-7839139D01*
X5020568Y-7652734D01*
X5116739Y-7446496D01*
X5175635Y-7226692D01*
X5195468Y-7000001D01*
X10204532Y-7000001D01*
X10224364Y-7226686D01*
X10224366Y-7226697D01*
X10283258Y-7446488D01*
X10283261Y-7446497D01*
X10379431Y-7652732D01*
X10379432Y-7652734D01*
X10509954Y-7839141D01*
X10670858Y-8000045D01*
X10670861Y-8000047D01*
X10857266Y-8130568D01*
X11063504Y-8226739D01*
X11283308Y-8285635D01*
X11445230Y-8299801D01*
X11509998Y-8305468D01*
X11510000Y-8305468D01*
X11510002Y-8305468D01*
X11566672Y-8300509D01*
X11736692Y-8285635D01*
X11956496Y-8226739D01*
X12162734Y-8130568D01*
X12349139Y-8000047D01*
X12510047Y-7839139D01*
X12640568Y-7652734D01*
X12736739Y-7446496D01*
X12795635Y-7226692D01*
X12815468Y-7000000D01*
X12795635Y-6773308D01*
X12736739Y-6553504D01*
X12640568Y-6347266D01*
X12510047Y-6160861D01*
X12510045Y-6160858D01*
X12349141Y-5999954D01*
X12162734Y-5869432D01*
X12162732Y-5869431D01*
X11956497Y-5773261D01*
X11956488Y-5773258D01*
X11736697Y-5714366D01*
X11736693Y-5714365D01*
X11736692Y-5714365D01*
X11736691Y-5714364D01*
X11736686Y-5714364D01*
X11510002Y-5694532D01*
X11509998Y-5694532D01*
X11283313Y-5714364D01*
X11283302Y-5714366D01*
X11063511Y-5773258D01*
X11063502Y-5773261D01*
X10857267Y-5869431D01*
X10857265Y-5869432D01*
X10670858Y-5999954D01*
X10509954Y-6160858D01*
X10379432Y-6347265D01*
X10379431Y-6347267D01*
X10283261Y-6553502D01*
X10283258Y-6553511D01*
X10224366Y-6773302D01*
X10224364Y-6773313D01*
X10204532Y-6999998D01*
X10204532Y-7000001D01*
X5195468Y-7000001D01*
X5195468Y-7000000D01*
X5175635Y-6773308D01*
X5116739Y-6553504D01*
X5020568Y-6347266D01*
X4890047Y-6160861D01*
X4890045Y-6160858D01*
X4729141Y-5999954D01*
X4542734Y-5869432D01*
X4542732Y-5869431D01*
X4336497Y-5773261D01*
X4336488Y-5773258D01*
X4116697Y-5714366D01*
X4116693Y-5714365D01*
X4116692Y-5714365D01*
X4116691Y-5714364D01*
X4116686Y-5714364D01*
X3890002Y-5694532D01*
X3889998Y-5694532D01*
X3663313Y-5714364D01*
X3663302Y-5714366D01*
X3443511Y-5773258D01*
X3443502Y-5773261D01*
X3237267Y-5869431D01*
X3237265Y-5869432D01*
X3050858Y-5999954D01*
X2889954Y-6160858D01*
X2759432Y-6347265D01*
X2759431Y-6347267D01*
X2663261Y-6553502D01*
X2663258Y-6553511D01*
X2604366Y-6773302D01*
X2604364Y-6773313D01*
X2584532Y-6999998D01*
X2584532Y-7000001D01*
X2200500Y-7000001D01*
X2200500Y-4449111D01*
X2220185Y-4382072D01*
X2272989Y-4336317D01*
X2342147Y-4326373D01*
X2405703Y-4355398D01*
X2442813Y-4411990D01*
X2472484Y-4506561D01*
X2472489Y-4506571D01*
X2566251Y-4675498D01*
X2566256Y-4675505D01*
X2692107Y-4822105D01*
X2844890Y-4940368D01*
X2844894Y-4940370D01*
X3018363Y-5025460D01*
X3099997Y-5046595D01*
X3099999Y-5046595D01*
X3099999Y-4296110D01*
X3124457Y-4335610D01*
X3213962Y-4403201D01*
X3321840Y-4433895D01*
X3433521Y-4423546D01*
X3533922Y-4373552D01*
X3599999Y-4301069D01*
X3600000Y-5050470D01*
X3770524Y-4987315D01*
X3770531Y-4987312D01*
X3934497Y-4885110D01*
X3950883Y-4869533D01*
X3951199Y-4844591D01*
X3948094Y-4838905D01*
X3953078Y-4769213D01*
X3981579Y-4724866D01*
X4488126Y-4218320D01*
X4549449Y-4184835D01*
X4594808Y-4188078D01*
X4539613Y-4232095D01*
X4500000Y-4314351D01*
X4500000Y-4405649D01*
X4539613Y-4487905D01*
X4610992Y-4544827D01*
X4677468Y-4560000D01*
X4720715Y-4560000D01*
X4729810Y-4587994D01*
X4731805Y-4657835D01*
X4699560Y-4713992D01*
X4300832Y-5112719D01*
X4300833Y-5112720D01*
X4435884Y-5172849D01*
X4435889Y-5172851D01*
X4610661Y-5210000D01*
X4789339Y-5210000D01*
X4964110Y-5172851D01*
X4964111Y-5172851D01*
X5073946Y-5123948D01*
X5143196Y-5114662D01*
X5174818Y-5123947D01*
X5175436Y-5124222D01*
X5285733Y-5173329D01*
X5460609Y-5210500D01*
X5460610Y-5210500D01*
X5639389Y-5210500D01*
X5639391Y-5210500D01*
X5814267Y-5173329D01*
X5924565Y-5124220D01*
X5993814Y-5114937D01*
X6025432Y-5124219D01*
X6135733Y-5173329D01*
X6310609Y-5210500D01*
X6310610Y-5210500D01*
X6489389Y-5210500D01*
X6489391Y-5210500D01*
X6664267Y-5173329D01*
X6774565Y-5124220D01*
X6843814Y-5114937D01*
X6875432Y-5124219D01*
X6985733Y-5173329D01*
X7160609Y-5210500D01*
X7160610Y-5210500D01*
X7339389Y-5210500D01*
X7339391Y-5210500D01*
X7514267Y-5173329D01*
X7624563Y-5124221D01*
X7693813Y-5114937D01*
X7725434Y-5124221D01*
X7834655Y-5172849D01*
X7835733Y-5173329D01*
X8010609Y-5210500D01*
X8010610Y-5210500D01*
X8189389Y-5210500D01*
X8189391Y-5210500D01*
X8364267Y-5173329D01*
X8474563Y-5124221D01*
X8543813Y-5114937D01*
X8575434Y-5124221D01*
X8684655Y-5172849D01*
X8685733Y-5173329D01*
X8860609Y-5210500D01*
X8860610Y-5210500D01*
X9039389Y-5210500D01*
X9039391Y-5210500D01*
X9214267Y-5173329D01*
X9324563Y-5124221D01*
X9393813Y-5114937D01*
X9425434Y-5124221D01*
X9534655Y-5172849D01*
X9535733Y-5173329D01*
X9710609Y-5210500D01*
X9710610Y-5210500D01*
X9889389Y-5210500D01*
X9889391Y-5210500D01*
X10064267Y-5173329D01*
X10175179Y-5123947D01*
X10244428Y-5114663D01*
X10276050Y-5123947D01*
X10385891Y-5172851D01*
X10560661Y-5210000D01*
X10739339Y-5210000D01*
X10914110Y-5172851D01*
X10914115Y-5172849D01*
X11049165Y-5112720D01*
X11049165Y-5112719D01*
X10650438Y-4713992D01*
X10616953Y-4652669D01*
X10620188Y-4587994D01*
X10629285Y-4560000D01*
X10672532Y-4560000D01*
X10739008Y-4544827D01*
X10810387Y-4487905D01*
X10850000Y-4405649D01*
X10850000Y-4314351D01*
X10810387Y-4232095D01*
X10755197Y-4188083D01*
X10778911Y-4182091D01*
X10845153Y-4204313D01*
X10861873Y-4218320D01*
X11368420Y-4724866D01*
X11401905Y-4786189D01*
X11398673Y-4831371D01*
X11400976Y-4867673D01*
X11494889Y-4940367D01*
X11668363Y-5025460D01*
X11750000Y-5046596D01*
X11750000Y-4296110D01*
X11774457Y-4335610D01*
X11863962Y-4403201D01*
X11971840Y-4433895D01*
X12083521Y-4423546D01*
X12183922Y-4373552D01*
X12250000Y-4301069D01*
X12250000Y-5050470D01*
X12420524Y-4987315D01*
X12420531Y-4987312D01*
X12584503Y-4885107D01*
X12724534Y-4751997D01*
X12724535Y-4751996D01*
X12834913Y-4593413D01*
X12911106Y-4415862D01*
X12950000Y-4226606D01*
X12950000Y-3630000D01*
X12300000Y-3630000D01*
X12300000Y-3130000D01*
X12950000Y-3130000D01*
X12950000Y-2581823D01*
X12935352Y-2437778D01*
X12877515Y-2253438D01*
X12877510Y-2253428D01*
X12783748Y-2084501D01*
X12783743Y-2084494D01*
X12657892Y-1937894D01*
X12505109Y-1819631D01*
X12505105Y-1819629D01*
X12331642Y-1734542D01*
X12331643Y-1734542D01*
X12250000Y-1713403D01*
X12250000Y-2463889D01*
X12225543Y-2424390D01*
X12136038Y-2356799D01*
X12028160Y-2326105D01*
X11916479Y-2336454D01*
X11816078Y-2386448D01*
X11750000Y-2458930D01*
X11750000Y-1709528D01*
X11579472Y-1772685D01*
X11579468Y-1772687D01*
X11415496Y-1874892D01*
X11275465Y-2008002D01*
X11275464Y-2008003D01*
X11165085Y-2166588D01*
X11163377Y-2170569D01*
X11118847Y-2224410D01*
X11052277Y-2245628D01*
X10998995Y-2234941D01*
X10914110Y-2197148D01*
X10739339Y-2160000D01*
X10560661Y-2160000D01*
X10385890Y-2197148D01*
X10385887Y-2197149D01*
X10276048Y-2246052D01*
X10206798Y-2255336D01*
X10175179Y-2246052D01*
X10064265Y-2196670D01*
X9922723Y-2166585D01*
X9889391Y-2159500D01*
X9710609Y-2159500D01*
X9677277Y-2166585D01*
X9535734Y-2196670D01*
X9535729Y-2196672D01*
X9425434Y-2245778D01*
X9356184Y-2255062D01*
X9324566Y-2245778D01*
X9214270Y-2196672D01*
X9214265Y-2196670D01*
X9072723Y-2166585D01*
X9039391Y-2159500D01*
X8860609Y-2159500D01*
X8827277Y-2166585D01*
X8685734Y-2196670D01*
X8685729Y-2196672D01*
X8575434Y-2245778D01*
X8506184Y-2255062D01*
X8474566Y-2245778D01*
X8364270Y-2196672D01*
X8364265Y-2196670D01*
X8222723Y-2166585D01*
X8189391Y-2159500D01*
X8010609Y-2159500D01*
X7977277Y-2166585D01*
X7835734Y-2196670D01*
X7835729Y-2196672D01*
X7725434Y-2245778D01*
X7656184Y-2255062D01*
X7624566Y-2245778D01*
X7514270Y-2196672D01*
X7514265Y-2196670D01*
X7372723Y-2166585D01*
X7339391Y-2159500D01*
X7160609Y-2159500D01*
X7127277Y-2166585D01*
X6985734Y-2196670D01*
X6985729Y-2196672D01*
X6875433Y-2245778D01*
X6806183Y-2255062D01*
X6774565Y-2245778D01*
X6665341Y-2197149D01*
X6664265Y-2196670D01*
X6522723Y-2166585D01*
X6489391Y-2159500D01*
X6310609Y-2159500D01*
X6277277Y-2166585D01*
X6135734Y-2196670D01*
X6135729Y-2196672D01*
X6025434Y-2245778D01*
X5956184Y-2255062D01*
X5924566Y-2245778D01*
X5814270Y-2196672D01*
X5814265Y-2196670D01*
X5672723Y-2166585D01*
X5639391Y-2159500D01*
X5460609Y-2159500D01*
X5427277Y-2166585D01*
X5285734Y-2196670D01*
X5285729Y-2196672D01*
X5174818Y-2246052D01*
X5105568Y-2255336D01*
X5073949Y-2246052D01*
X4964110Y-2197148D01*
X4789339Y-2160000D01*
X4610661Y-2160000D01*
X4435889Y-2197148D01*
X4435884Y-2197150D01*
X4347495Y-2236503D01*
X4278245Y-2245787D01*
X4214969Y-2216158D01*
X4188642Y-2183401D01*
X4133748Y-2084501D01*
X4133743Y-2084494D01*
X4007892Y-1937894D01*
X3855109Y-1819631D01*
X3855105Y-1819629D01*
X3681642Y-1734542D01*
X3681643Y-1734542D01*
X3599999Y-1713403D01*
X3599999Y-2463887D01*
X3575543Y-2424390D01*
X3486038Y-2356799D01*
X3378160Y-2326105D01*
X3266479Y-2336454D01*
X3166078Y-2386448D01*
X3100000Y-2458930D01*
X3100000Y-1709528D01*
X2929472Y-1772685D01*
X2929468Y-1772687D01*
X2765496Y-1874892D01*
X2625465Y-2008002D01*
X2625464Y-2008003D01*
X2515087Y-2166585D01*
X2438451Y-2345168D01*
X2393924Y-2399011D01*
X2327355Y-2420234D01*
X2259880Y-2402098D01*
X2212922Y-2350362D01*
X2200500Y-2296267D01*
X2200500Y-719111D01*
X2220185Y-652072D01*
X2272989Y-606317D01*
X2342147Y-596373D01*
X2405703Y-625398D01*
X2442813Y-681990D01*
X2472484Y-776561D01*
X2472489Y-776571D01*
X2566251Y-945498D01*
X2566256Y-945505D01*
X2692107Y-1092105D01*
X2844890Y-1210368D01*
X2844894Y-1210370D01*
X3018363Y-1295460D01*
X3100000Y-1316596D01*
X3100000Y-566110D01*
X3124457Y-605610D01*
X3213962Y-673201D01*
X3321840Y-703895D01*
X3433521Y-693546D01*
X3533922Y-643552D01*
X3600000Y-571069D01*
X3600000Y-1320470D01*
X3770524Y-1257315D01*
X3770531Y-1257312D01*
X3934503Y-1155107D01*
X4074534Y-1021997D01*
X4074535Y-1021996D01*
X4184913Y-863413D01*
X4261106Y-685862D01*
X4300000Y-496606D01*
X4300000Y-448176D01*
X11050000Y-448176D01*
X11064647Y-592221D01*
X11122484Y-776561D01*
X11122489Y-776571D01*
X11216251Y-945498D01*
X11216256Y-945505D01*
X11342107Y-1092105D01*
X11494890Y-1210368D01*
X11494894Y-1210370D01*
X11668363Y-1295460D01*
X11750000Y-1316596D01*
X11750000Y-566110D01*
X11774457Y-605610D01*
X11863962Y-673201D01*
X11971840Y-703895D01*
X12083521Y-693546D01*
X12183922Y-643552D01*
X12250000Y-571069D01*
X12250000Y-1320470D01*
X12420524Y-1257315D01*
X12420531Y-1257312D01*
X12584503Y-1155107D01*
X12724534Y-1021997D01*
X12724535Y-1021996D01*
X12834913Y-863413D01*
X12911106Y-685862D01*
X12950000Y-496606D01*
X12950000Y-250000D01*
X12300000Y-250000D01*
X12300000Y250000D01*
X12949999Y250000D01*
X12949999Y448177D01*
X12935352Y592222D01*
X12877515Y776562D01*
X12877510Y776572D01*
X12783748Y945499D01*
X12783743Y945506D01*
X12657892Y1092106D01*
X12505109Y1210369D01*
X12505105Y1210371D01*
X12331637Y1295461D01*
X12249999Y1316597D01*
X12249999Y566113D01*
X12225543Y605610D01*
X12136038Y673201D01*
X12028160Y703895D01*
X11916479Y693546D01*
X11816078Y643552D01*
X11749999Y571070D01*
X11750000Y1320472D01*
X11579472Y1257315D01*
X11579468Y1257313D01*
X11415496Y1155108D01*
X11275465Y1021998D01*
X11275464Y1021997D01*
X11165086Y863414D01*
X11088893Y685863D01*
X11050000Y496607D01*
X11050000Y250000D01*
X11700000Y250000D01*
X11700000Y-250000D01*
X11050000Y-250000D01*
X11050000Y-448176D01*
X4300000Y-448176D01*
X4300000Y-250000D01*
X3650000Y-250000D01*
X3650000Y250000D01*
X4300000Y250000D01*
X4300000Y448177D01*
X4285352Y592222D01*
X4227515Y776562D01*
X4227510Y776572D01*
X4133748Y945499D01*
X4133743Y945506D01*
X4007892Y1092106D01*
X3855109Y1210369D01*
X3855105Y1210371D01*
X3681642Y1295458D01*
X3681643Y1295458D01*
X3600000Y1316597D01*
X3600000Y566111D01*
X3575543Y605610D01*
X3486038Y673201D01*
X3378160Y703895D01*
X3266479Y693546D01*
X3166078Y643552D01*
X3100000Y571070D01*
X3100000Y1320472D01*
X2929472Y1257315D01*
X2929468Y1257313D01*
X2765496Y1155108D01*
X2625465Y1021998D01*
X2625464Y1021997D01*
X2515087Y863415D01*
X2438451Y684832D01*
X2393924Y630989D01*
X2327355Y609766D01*
X2259880Y627902D01*
X2212922Y679638D01*
X2200500Y733733D01*
X2200500Y797294D01*
X2200736Y802700D01*
X2204474Y845423D01*
X2206246Y863415D01*
X2216918Y971779D01*
X2220540Y991682D01*
X2238165Y1057460D01*
X2238655Y1059178D01*
X2266685Y1151581D01*
X2272948Y1167951D01*
X2304413Y1235427D01*
X2305872Y1238347D01*
X2350764Y1322334D01*
X2354657Y1328669D01*
X2387837Y1376055D01*
X2400994Y1394845D01*
X2403827Y1398580D01*
X2463122Y1470832D01*
X2467162Y1475290D01*
X2524710Y1532838D01*
X2529168Y1536878D01*
X2601420Y1596173D01*
X2605155Y1599006D01*
X2671334Y1645346D01*
X2677666Y1649236D01*
X2761653Y1694128D01*
X2764573Y1695587D01*
X2832049Y1727052D01*
X2848419Y1733315D01*
X2940822Y1761345D01*
X2942540Y1761835D01*
X3008318Y1779460D01*
X3028221Y1783082D01*
X3141812Y1794269D01*
X3154568Y1795526D01*
X3197305Y1799265D01*
X3202706Y1799500D01*
X12197292Y1799500D01*
X12202697Y1799264D01*
G37*
%TD.AperFunction*%
%TD*%
M02*
