%TF.GenerationSoftware,KiCad,Pcbnew,7.0.5-0*%
%TF.CreationDate,2023-08-31T21:00:23-07:00*%
%TF.ProjectId,MiSTerLaggy,4d695354-6572-44c6-9167-67792e6b6963,rev?*%
%TF.SameCoordinates,Original*%
%TF.FileFunction,Legend,Bot*%
%TF.FilePolarity,Positive*%
%FSLAX46Y46*%
G04 Gerber Fmt 4.6, Leading zero omitted, Abs format (unit mm)*
G04 Created by KiCad (PCBNEW 7.0.5-0) date 2023-08-31 21:00:23*
%MOMM*%
%LPD*%
G01*
G04 APERTURE LIST*
%ADD10C,0.150000*%
%ADD11C,0.100000*%
%ADD12C,0.650000*%
%ADD13O,1.000000X2.100000*%
%ADD14O,1.000000X1.800000*%
%ADD15C,2.200000*%
G04 APERTURE END LIST*
D10*
X-1187970Y7339039D02*
X-1378446Y6805705D01*
X-1378446Y6805705D02*
X-1568923Y7339039D01*
X-2292732Y6805705D02*
X-1835589Y6805705D01*
X-2064161Y6805705D02*
X-2064161Y7605705D01*
X-2064161Y7605705D02*
X-1987970Y7491420D01*
X-1987970Y7491420D02*
X-1911780Y7415229D01*
X-1911780Y7415229D02*
X-1835589Y7377134D01*
X-2635590Y6881896D02*
X-2673685Y6843800D01*
X-2673685Y6843800D02*
X-2635590Y6805705D01*
X-2635590Y6805705D02*
X-2597494Y6843800D01*
X-2597494Y6843800D02*
X-2635590Y6881896D01*
X-2635590Y6881896D02*
X-2635590Y6805705D01*
X-3168923Y7605705D02*
X-3245113Y7605705D01*
X-3245113Y7605705D02*
X-3321304Y7567610D01*
X-3321304Y7567610D02*
X-3359399Y7529515D01*
X-3359399Y7529515D02*
X-3397494Y7453324D01*
X-3397494Y7453324D02*
X-3435589Y7300943D01*
X-3435589Y7300943D02*
X-3435589Y7110467D01*
X-3435589Y7110467D02*
X-3397494Y6958086D01*
X-3397494Y6958086D02*
X-3359399Y6881896D01*
X-3359399Y6881896D02*
X-3321304Y6843800D01*
X-3321304Y6843800D02*
X-3245113Y6805705D01*
X-3245113Y6805705D02*
X-3168923Y6805705D01*
X-3168923Y6805705D02*
X-3092732Y6843800D01*
X-3092732Y6843800D02*
X-3054637Y6881896D01*
X-3054637Y6881896D02*
X-3016542Y6958086D01*
X-3016542Y6958086D02*
X-2978446Y7110467D01*
X-2978446Y7110467D02*
X-2978446Y7300943D01*
X-2978446Y7300943D02*
X-3016542Y7453324D01*
X-3016542Y7453324D02*
X-3054637Y7529515D01*
X-3054637Y7529515D02*
X-3092732Y7567610D01*
X-3092732Y7567610D02*
X-3168923Y7605705D01*
G36*
X-1709778Y8837590D02*
G01*
X-1679373Y8807184D01*
X-1645114Y8738668D01*
X-1645114Y8488364D01*
X-1679373Y8419847D01*
X-1709781Y8389439D01*
X-1778295Y8355181D01*
X-1933360Y8355181D01*
X-1971304Y8374153D01*
X-1971304Y8852877D01*
X-1933362Y8871848D01*
X-1778296Y8871848D01*
X-1709778Y8837590D01*
G37*
G36*
X-805016Y8837589D02*
G01*
X-774611Y8807184D01*
X-740352Y8738668D01*
X-740353Y8488364D01*
X-774611Y8419847D01*
X-805019Y8389439D01*
X-873533Y8355181D01*
X-1028598Y8355181D01*
X-1066543Y8374153D01*
X-1066542Y8852877D01*
X-1028600Y8871848D01*
X-873534Y8871848D01*
X-805016Y8837589D01*
G37*
G36*
X-133151Y8583420D02*
G01*
X-126607Y8586134D01*
X78847Y8586134D01*
X135889Y8557613D01*
X164410Y8500573D01*
X164410Y8440745D01*
X135888Y8383702D01*
X78848Y8355181D01*
X-123836Y8355181D01*
X-161780Y8374153D01*
X-161780Y8586134D01*
X-148234Y8586134D01*
X-133151Y8583420D01*
G37*
G36*
X3467857Y7782143D02*
G01*
X-3490477Y7782143D01*
X-3490477Y8942362D01*
X-2981484Y8942362D01*
X-2742879Y8274267D01*
X-2743167Y8272774D01*
X-2741187Y8267822D01*
X-2741492Y8262499D01*
X-2733824Y8248911D01*
X-2732356Y8244802D01*
X-2731516Y8243647D01*
X-2642072Y8020039D01*
X-2638719Y8004625D01*
X-2626311Y7992217D01*
X-2615473Y7978427D01*
X-2610957Y7976863D01*
X-2582177Y7948083D01*
X-2575733Y7937233D01*
X-2557224Y7927979D01*
X-2539110Y7918088D01*
X-2537652Y7918193D01*
X-2451155Y7874944D01*
X-2418866Y7869134D01*
X-2378183Y7886007D01*
X-2353081Y7922197D01*
X-2351528Y7966213D01*
X-2374019Y8004082D01*
X-2478069Y8056107D01*
X-2506197Y8084235D01*
X-2585176Y8281684D01*
X-2365608Y8896474D01*
X-2124421Y8896474D01*
X-2121304Y8887095D01*
X-2121304Y8329111D01*
X-2122033Y8308435D01*
X-2121304Y8307208D01*
X-2121304Y8141365D01*
X-2123235Y8123480D01*
X-2116379Y8109767D01*
X-2112061Y8095064D01*
X-2106708Y8090426D01*
X-2069973Y8016957D01*
X-2067290Y8004625D01*
X-2052663Y7989998D01*
X-2038601Y7974880D01*
X-2037183Y7974518D01*
X-2010748Y7948083D01*
X-2004304Y7937233D01*
X-1985795Y7927979D01*
X-1967681Y7918088D01*
X-1966223Y7918193D01*
X-1892977Y7881570D01*
X-1877850Y7871848D01*
X-1862520Y7871848D01*
X-1847437Y7869134D01*
X-1840893Y7871848D01*
X-1717011Y7871848D01*
X-1699127Y7869917D01*
X-1685414Y7876774D01*
X-1670711Y7881091D01*
X-1666073Y7886445D01*
X-1574549Y7932207D01*
X-1550527Y7954551D01*
X-1539616Y7997222D01*
X-1553506Y8039017D01*
X-1587788Y8066669D01*
X-1631577Y8071397D01*
X-1730676Y8021848D01*
X-1838122Y8021848D01*
X-1906640Y8056107D01*
X-1937047Y8086514D01*
X-1971304Y8155029D01*
X-1971304Y8205181D01*
X-1957758Y8205181D01*
X-1942675Y8202467D01*
X-1936131Y8205181D01*
X-1764630Y8205181D01*
X-1746746Y8203250D01*
X-1733033Y8210107D01*
X-1718330Y8214424D01*
X-1713692Y8219778D01*
X-1640224Y8256513D01*
X-1627890Y8259195D01*
X-1613259Y8273828D01*
X-1598146Y8287884D01*
X-1597784Y8289304D01*
X-1571350Y8315738D01*
X-1560499Y8322182D01*
X-1551243Y8340696D01*
X-1541353Y8358806D01*
X-1541458Y8360266D01*
X-1504836Y8433510D01*
X-1495114Y8448636D01*
X-1495114Y8463966D01*
X-1492400Y8479049D01*
X-1495114Y8485593D01*
X-1495114Y8752342D01*
X-1493184Y8770216D01*
X-1500039Y8783926D01*
X-1504357Y8798632D01*
X-1509712Y8803272D01*
X-1546446Y8876741D01*
X-1549128Y8889071D01*
X-1556531Y8896474D01*
X-1219659Y8896474D01*
X-1216543Y8887095D01*
X-1216542Y8329111D01*
X-1217271Y8308435D01*
X-1216543Y8307208D01*
X-1216542Y8141365D01*
X-1218473Y8123480D01*
X-1211617Y8109767D01*
X-1207299Y8095064D01*
X-1201946Y8090426D01*
X-1165211Y8016957D01*
X-1162528Y8004625D01*
X-1147901Y7989998D01*
X-1133839Y7974880D01*
X-1132421Y7974518D01*
X-1105986Y7948083D01*
X-1099542Y7937233D01*
X-1081033Y7927979D01*
X-1062919Y7918088D01*
X-1061461Y7918193D01*
X-988215Y7881570D01*
X-973088Y7871848D01*
X-957758Y7871848D01*
X-942675Y7869134D01*
X-936131Y7871848D01*
X-812249Y7871848D01*
X-794365Y7869917D01*
X-780652Y7876774D01*
X-765949Y7881091D01*
X-761311Y7886445D01*
X-669787Y7932207D01*
X-645765Y7954551D01*
X-634854Y7997222D01*
X-648744Y8039017D01*
X-683026Y8066669D01*
X-726815Y8071397D01*
X-825914Y8021848D01*
X-933360Y8021848D01*
X-1001878Y8056107D01*
X-1032285Y8086514D01*
X-1066542Y8155029D01*
X-1066542Y8205181D01*
X-1052996Y8205181D01*
X-1037913Y8202467D01*
X-1031369Y8205181D01*
X-859868Y8205181D01*
X-841984Y8203250D01*
X-828271Y8210107D01*
X-813568Y8214424D01*
X-808930Y8219778D01*
X-735462Y8256513D01*
X-723128Y8259195D01*
X-708497Y8273828D01*
X-693384Y8287884D01*
X-693022Y8289304D01*
X-666588Y8315738D01*
X-655737Y8322182D01*
X-646481Y8340696D01*
X-636591Y8358806D01*
X-636696Y8360266D01*
X-600074Y8433510D01*
X-590352Y8448636D01*
X-590352Y8463966D01*
X-587638Y8479049D01*
X-590352Y8485593D01*
X-590352Y8752342D01*
X-588422Y8770216D01*
X-595277Y8783926D01*
X-598705Y8795600D01*
X-314494Y8795600D01*
X-311780Y8789057D01*
X-311780Y8710064D01*
X-312509Y8689388D01*
X-311780Y8688161D01*
X-311780Y8329111D01*
X-312509Y8308435D01*
X-311780Y8307208D01*
X-311780Y8269399D01*
X-302537Y8237921D01*
X-269251Y8209079D01*
X-225656Y8202811D01*
X-188471Y8219793D01*
X-178691Y8214903D01*
X-163564Y8205181D01*
X-148234Y8205181D01*
X-133151Y8202467D01*
X-126607Y8205181D01*
X92513Y8205181D01*
X110397Y8203250D01*
X124110Y8210107D01*
X138813Y8214424D01*
X143451Y8219778D01*
X208242Y8252174D01*
X211157Y8252071D01*
X227764Y8261935D01*
X234975Y8265540D01*
X236989Y8267414D01*
X239756Y8269057D01*
X447755Y8269057D01*
X466051Y8228993D01*
X503103Y8205181D01*
X995955Y8205181D01*
X1012439Y8202811D01*
X1027591Y8209731D01*
X1043575Y8214424D01*
X1047311Y8218737D01*
X1052503Y8221107D01*
X1061510Y8235124D01*
X1072417Y8247710D01*
X1073228Y8253357D01*
X1076315Y8258159D01*
X1076315Y8274822D01*
X1078685Y8291305D01*
X1076315Y8296495D01*
X1076315Y8935724D01*
X1257279Y8935724D01*
X1275575Y8895660D01*
X1312627Y8871848D01*
X1412181Y8871848D01*
X1480699Y8837589D01*
X1511104Y8807184D01*
X1545363Y8738668D01*
X1545363Y8269399D01*
X1554606Y8237921D01*
X1587892Y8209079D01*
X1631487Y8202811D01*
X1671551Y8221107D01*
X1695363Y8258159D01*
X1695363Y8752342D01*
X1697293Y8770216D01*
X1695363Y8774077D01*
X1695363Y8957630D01*
X1686120Y8989108D01*
X1652834Y9017950D01*
X1609239Y9024218D01*
X1569175Y9005922D01*
X1547627Y8972394D01*
X1541740Y8975609D01*
X1540279Y8975505D01*
X1467038Y9012125D01*
X1451909Y9021848D01*
X1436579Y9021848D01*
X1421496Y9024562D01*
X1414952Y9021848D01*
X1323867Y9021848D01*
X1292389Y9012605D01*
X1263547Y8979319D01*
X1257279Y8935724D01*
X1076315Y8935724D01*
X1076315Y9268421D01*
X2019277Y9268421D01*
X2021554Y9263542D01*
X2021554Y8269399D01*
X2030797Y8237921D01*
X2064083Y8209079D01*
X2107678Y8202811D01*
X2147742Y8221107D01*
X2171554Y8258159D01*
X2171554Y8942114D01*
X2361667Y8534729D01*
X2370394Y8515196D01*
X2380324Y8508698D01*
X2388170Y8499793D01*
X2398372Y8496889D01*
X2407249Y8491080D01*
X2419117Y8490983D01*
X2430530Y8487733D01*
X2440680Y8490805D01*
X2451291Y8490717D01*
X2461330Y8497053D01*
X2472686Y8500489D01*
X2479565Y8508562D01*
X2488538Y8514224D01*
X2493557Y8524980D01*
X2501254Y8534011D01*
X2502677Y8544523D01*
X2688220Y8942115D01*
X2688220Y8269399D01*
X2697463Y8237921D01*
X2730749Y8209079D01*
X2774344Y8202811D01*
X2814408Y8221107D01*
X2838220Y8258159D01*
X2838220Y9274512D01*
X2840679Y9290669D01*
X2833757Y9306162D01*
X2828977Y9322441D01*
X2824908Y9325966D01*
X2822713Y9330881D01*
X2808513Y9340173D01*
X2795691Y9351283D01*
X2790363Y9352050D01*
X2785858Y9354997D01*
X2768886Y9355137D01*
X2752096Y9357551D01*
X2747201Y9355316D01*
X2741816Y9355360D01*
X2727461Y9346302D01*
X2712032Y9339255D01*
X2709122Y9334728D01*
X2704569Y9331854D01*
X2697392Y9316476D01*
X2688220Y9302203D01*
X2688220Y9296821D01*
X2429887Y8743250D01*
X2166916Y9306758D01*
X2162311Y9322441D01*
X2149488Y9333552D01*
X2138271Y9346284D01*
X2133092Y9347759D01*
X2129025Y9351283D01*
X2112231Y9353698D01*
X2095911Y9358344D01*
X2090758Y9356785D01*
X2085430Y9357551D01*
X2069993Y9350502D01*
X2053755Y9345588D01*
X2050264Y9341492D01*
X2045366Y9339255D01*
X2036190Y9324978D01*
X2025187Y9312066D01*
X2024464Y9306733D01*
X2021554Y9302203D01*
X2021553Y9285237D01*
X2019277Y9268421D01*
X1076315Y9268421D01*
X1076315Y9290963D01*
X1067072Y9322441D01*
X1033786Y9351283D01*
X990191Y9357551D01*
X950127Y9339255D01*
X926315Y9302203D01*
X926315Y8355181D01*
X514343Y8355181D01*
X482865Y8345938D01*
X454023Y8312652D01*
X447755Y8269057D01*
X239756Y8269057D01*
X249025Y8274562D01*
X252807Y8282127D01*
X258997Y8287884D01*
X262462Y8301438D01*
X304687Y8385888D01*
X314410Y8401017D01*
X314409Y8416348D01*
X317124Y8431430D01*
X314410Y8437974D01*
X314410Y8514247D01*
X316340Y8532121D01*
X309485Y8545831D01*
X305167Y8560537D01*
X299812Y8565177D01*
X267417Y8629968D01*
X267520Y8632880D01*
X257660Y8649481D01*
X254051Y8656700D01*
X252175Y8658717D01*
X245029Y8670749D01*
X237464Y8674532D01*
X231707Y8680721D01*
X218153Y8684187D01*
X133704Y8726411D01*
X118575Y8736134D01*
X103245Y8736134D01*
X88162Y8738848D01*
X81618Y8736134D01*
X-123836Y8736134D01*
X-161780Y8755106D01*
X-161780Y8786285D01*
X-133259Y8843328D01*
X-76219Y8871848D01*
X78847Y8871848D01*
X167893Y8827325D01*
X200182Y8821515D01*
X240865Y8838388D01*
X265967Y8874578D01*
X267520Y8918594D01*
X245029Y8956463D01*
X133704Y9012125D01*
X118575Y9021848D01*
X103245Y9021848D01*
X88162Y9024562D01*
X81618Y9021848D01*
X-89892Y9021848D01*
X-107767Y9023778D01*
X-121477Y9016924D01*
X-136183Y9012605D01*
X-140823Y9007251D01*
X-205614Y8974856D01*
X-208526Y8974958D01*
X-225127Y8965099D01*
X-232346Y8961489D01*
X-234363Y8959614D01*
X-246395Y8952467D01*
X-250178Y8944903D01*
X-256367Y8939145D01*
X-259833Y8925592D01*
X-302057Y8841143D01*
X-311780Y8826013D01*
X-311780Y8810683D01*
X-314494Y8795600D01*
X-598705Y8795600D01*
X-599595Y8798632D01*
X-604950Y8803272D01*
X-641684Y8876741D01*
X-644366Y8889071D01*
X-658986Y8903691D01*
X-673055Y8918816D01*
X-674474Y8919179D01*
X-700909Y8945614D01*
X-707352Y8956463D01*
X-725853Y8965714D01*
X-743975Y8975609D01*
X-745436Y8975505D01*
X-818677Y9012125D01*
X-833806Y9021848D01*
X-849136Y9021848D01*
X-864219Y9024562D01*
X-870763Y9021848D01*
X-1042273Y9021848D01*
X-1060148Y9023778D01*
X-1073858Y9016924D01*
X-1088564Y9012605D01*
X-1093204Y9007251D01*
X-1095436Y9006135D01*
X-1109071Y9017950D01*
X-1152666Y9024218D01*
X-1192730Y9005922D01*
X-1216542Y8968870D01*
X-1216543Y8908665D01*
X-1219659Y8896474D01*
X-1556531Y8896474D01*
X-1563748Y8903691D01*
X-1577817Y8918816D01*
X-1579236Y8919179D01*
X-1605671Y8945614D01*
X-1612114Y8956463D01*
X-1630615Y8965714D01*
X-1648737Y8975609D01*
X-1650198Y8975505D01*
X-1723439Y9012125D01*
X-1738568Y9021848D01*
X-1753898Y9021848D01*
X-1768981Y9024562D01*
X-1775525Y9021848D01*
X-1947035Y9021848D01*
X-1964910Y9023778D01*
X-1978620Y9016924D01*
X-1993326Y9012605D01*
X-1997966Y9007251D01*
X-2000198Y9006135D01*
X-2013833Y9017950D01*
X-2057428Y9024218D01*
X-2097492Y9005922D01*
X-2121304Y8968870D01*
X-2121304Y8908665D01*
X-2124421Y8896474D01*
X-2365608Y8896474D01*
X-2353000Y8931776D01*
X-2351117Y8964529D01*
X-2372764Y9002886D01*
X-2411711Y9023452D01*
X-2455594Y9019697D01*
X-2490481Y8992812D01*
X-2665353Y8503172D01*
X-2836443Y8982227D01*
X-2855734Y9008762D01*
X-2896782Y9024729D01*
X-2939945Y9015969D01*
X-2971522Y8985264D01*
X-2981484Y8942362D01*
X-3490477Y8942362D01*
X-3490477Y9892857D01*
X3467857Y9892857D01*
X3467857Y7782143D01*
G37*
D11*
X2319925Y5964343D02*
X2348496Y5992915D01*
X2348496Y5992915D02*
X2405639Y6021486D01*
X2405639Y6021486D02*
X2462782Y6021486D01*
X2462782Y6021486D02*
X2519925Y5992915D01*
X2519925Y5992915D02*
X2548496Y5964343D01*
X2548496Y5964343D02*
X2577068Y5907200D01*
X2577068Y5907200D02*
X2577068Y5850058D01*
X2577068Y5850058D02*
X2548496Y5792915D01*
X2548496Y5792915D02*
X2519925Y5764343D01*
X2519925Y5764343D02*
X2462782Y5735772D01*
X2462782Y5735772D02*
X2405639Y5735772D01*
X2405639Y5735772D02*
X2348496Y5764343D01*
X2348496Y5764343D02*
X2319925Y5792915D01*
X2319925Y6021486D02*
X2319925Y5792915D01*
X2319925Y5792915D02*
X2291353Y5764343D01*
X2291353Y5764343D02*
X2262782Y5764343D01*
X2262782Y5764343D02*
X2205639Y5792915D01*
X2205639Y5792915D02*
X2177068Y5850058D01*
X2177068Y5850058D02*
X2177068Y5992915D01*
X2177068Y5992915D02*
X2234211Y6078629D01*
X2234211Y6078629D02*
X2319925Y6135772D01*
X2319925Y6135772D02*
X2434211Y6164343D01*
X2434211Y6164343D02*
X2548496Y6135772D01*
X2548496Y6135772D02*
X2634211Y6078629D01*
X2634211Y6078629D02*
X2691353Y5992915D01*
X2691353Y5992915D02*
X2719925Y5878629D01*
X2719925Y5878629D02*
X2691353Y5764343D01*
X2691353Y5764343D02*
X2634211Y5678629D01*
X2634211Y5678629D02*
X2548496Y5621486D01*
X2548496Y5621486D02*
X2434211Y5592915D01*
X2434211Y5592915D02*
X2319925Y5621486D01*
X2319925Y5621486D02*
X2234211Y5678629D01*
X1977067Y6078629D02*
X1862782Y5678629D01*
X1862782Y5678629D02*
X1748496Y5964343D01*
X1748496Y5964343D02*
X1634210Y5678629D01*
X1634210Y5678629D02*
X1519924Y6078629D01*
X1291353Y5678629D02*
X1291353Y6078629D01*
X1291353Y6278629D02*
X1319925Y6250058D01*
X1319925Y6250058D02*
X1291353Y6221486D01*
X1291353Y6221486D02*
X1262782Y6250058D01*
X1262782Y6250058D02*
X1291353Y6278629D01*
X1291353Y6278629D02*
X1291353Y6221486D01*
X748497Y5707200D02*
X805639Y5678629D01*
X805639Y5678629D02*
X919925Y5678629D01*
X919925Y5678629D02*
X977068Y5707200D01*
X977068Y5707200D02*
X1005639Y5735772D01*
X1005639Y5735772D02*
X1034211Y5792915D01*
X1034211Y5792915D02*
X1034211Y5964343D01*
X1034211Y5964343D02*
X1005639Y6021486D01*
X1005639Y6021486D02*
X977068Y6050058D01*
X977068Y6050058D02*
X919925Y6078629D01*
X919925Y6078629D02*
X805639Y6078629D01*
X805639Y6078629D02*
X748497Y6050058D01*
X491353Y5678629D02*
X491353Y6278629D01*
X434211Y5907200D02*
X262782Y5678629D01*
X262782Y6078629D02*
X491353Y5850058D01*
X-222932Y5707200D02*
X-165789Y5678629D01*
X-165789Y5678629D02*
X-51503Y5678629D01*
X-51503Y5678629D02*
X5639Y5707200D01*
X5639Y5707200D02*
X34211Y5764343D01*
X34211Y5764343D02*
X34211Y5992915D01*
X34211Y5992915D02*
X5639Y6050058D01*
X5639Y6050058D02*
X-51503Y6078629D01*
X-51503Y6078629D02*
X-165789Y6078629D01*
X-165789Y6078629D02*
X-222932Y6050058D01*
X-222932Y6050058D02*
X-251503Y5992915D01*
X-251503Y5992915D02*
X-251503Y5935772D01*
X-251503Y5935772D02*
X34211Y5878629D01*
X-508647Y5678629D02*
X-508647Y6078629D01*
X-508647Y5964343D02*
X-537218Y6021486D01*
X-537218Y6021486D02*
X-565789Y6050058D01*
X-565789Y6050058D02*
X-622932Y6078629D01*
X-622932Y6078629D02*
X-680075Y6078629D01*
X-822933Y6078629D02*
X-937218Y5678629D01*
X-937218Y5678629D02*
X-1051504Y5964343D01*
X-1051504Y5964343D02*
X-1165790Y5678629D01*
X-1165790Y5678629D02*
X-1280076Y6078629D01*
X-1765789Y5678629D02*
X-1765789Y5992915D01*
X-1765789Y5992915D02*
X-1737218Y6050058D01*
X-1737218Y6050058D02*
X-1680075Y6078629D01*
X-1680075Y6078629D02*
X-1565789Y6078629D01*
X-1565789Y6078629D02*
X-1508647Y6050058D01*
X-1765789Y5707200D02*
X-1708647Y5678629D01*
X-1708647Y5678629D02*
X-1565789Y5678629D01*
X-1565789Y5678629D02*
X-1508647Y5707200D01*
X-1508647Y5707200D02*
X-1480075Y5764343D01*
X-1480075Y5764343D02*
X-1480075Y5821486D01*
X-1480075Y5821486D02*
X-1508647Y5878629D01*
X-1508647Y5878629D02*
X-1565789Y5907200D01*
X-1565789Y5907200D02*
X-1708647Y5907200D01*
X-1708647Y5907200D02*
X-1765789Y5935772D01*
X-2051504Y5678629D02*
X-2051504Y6278629D01*
X-2108646Y5907200D02*
X-2280075Y5678629D01*
X-2280075Y6078629D02*
X-2051504Y5850058D01*
X-2794360Y5678629D02*
X-2794360Y5992915D01*
X-2794360Y5992915D02*
X-2765789Y6050058D01*
X-2765789Y6050058D02*
X-2708646Y6078629D01*
X-2708646Y6078629D02*
X-2594360Y6078629D01*
X-2594360Y6078629D02*
X-2537218Y6050058D01*
X-2794360Y5707200D02*
X-2737218Y5678629D01*
X-2737218Y5678629D02*
X-2594360Y5678629D01*
X-2594360Y5678629D02*
X-2537218Y5707200D01*
X-2537218Y5707200D02*
X-2508646Y5764343D01*
X-2508646Y5764343D02*
X-2508646Y5821486D01*
X-2508646Y5821486D02*
X-2537218Y5878629D01*
X-2537218Y5878629D02*
X-2594360Y5907200D01*
X-2594360Y5907200D02*
X-2737218Y5907200D01*
X-2737218Y5907200D02*
X-2794360Y5935772D01*
%LPC*%
D12*
%TO.C,J1*%
X2890000Y4195000D03*
X-2890000Y4195000D03*
D13*
X4320000Y3675000D03*
D14*
X4320000Y7875000D03*
D13*
X-4320000Y3675000D03*
D14*
X-4320000Y7875000D03*
%TD*%
D15*
%TO.C,H2*%
X3200000Y-4000000D03*
%TD*%
%TO.C,H1*%
X-3200000Y-4000000D03*
%TD*%
%LPD*%
M02*
