%TF.GenerationSoftware,KiCad,Pcbnew,7.0.5-0*%
%TF.CreationDate,2023-09-03T12:09:57-07:00*%
%TF.ProjectId,MiSTerLaggy,4d695354-6572-44c6-9167-67792e6b6963,rev?*%
%TF.SameCoordinates,Original*%
%TF.FileFunction,Legend,Top*%
%TF.FilePolarity,Positive*%
%FSLAX46Y46*%
G04 Gerber Fmt 4.6, Leading zero omitted, Abs format (unit mm)*
G04 Created by KiCad (PCBNEW 7.0.5-0) date 2023-09-03 12:09:57*
%MOMM*%
%LPD*%
G01*
G04 APERTURE LIST*
G04 Aperture macros list*
%AMRoundRect*
0 Rectangle with rounded corners*
0 $1 Rounding radius*
0 $2 $3 $4 $5 $6 $7 $8 $9 X,Y pos of 4 corners*
0 Add a 4 corners polygon primitive as box body*
4,1,4,$2,$3,$4,$5,$6,$7,$8,$9,$2,$3,0*
0 Add four circle primitives for the rounded corners*
1,1,$1+$1,$2,$3*
1,1,$1+$1,$4,$5*
1,1,$1+$1,$6,$7*
1,1,$1+$1,$8,$9*
0 Add four rect primitives between the rounded corners*
20,1,$1+$1,$2,$3,$4,$5,0*
20,1,$1+$1,$4,$5,$6,$7,0*
20,1,$1+$1,$6,$7,$8,$9,0*
20,1,$1+$1,$8,$9,$2,$3,0*%
G04 Aperture macros list end*
%ADD10C,0.100000*%
%ADD11C,0.150000*%
%ADD12C,0.120000*%
%ADD13C,0.650000*%
%ADD14R,0.600000X1.240000*%
%ADD15R,0.300000X1.240000*%
%ADD16O,1.000000X2.100000*%
%ADD17O,1.000000X1.800000*%
%ADD18RoundRect,0.250000X0.450000X-0.262500X0.450000X0.262500X-0.450000X0.262500X-0.450000X-0.262500X0*%
%ADD19RoundRect,0.243750X-0.456250X0.243750X-0.456250X-0.243750X0.456250X-0.243750X0.456250X0.243750X0*%
%ADD20C,2.200000*%
%ADD21RoundRect,0.150000X-0.587500X-0.150000X0.587500X-0.150000X0.587500X0.150000X-0.587500X0.150000X0*%
G04 APERTURE END LIST*
D10*
X-148497Y-864228D02*
X-177069Y-892800D01*
X-177069Y-892800D02*
X-262783Y-921371D01*
X-262783Y-921371D02*
X-319926Y-921371D01*
X-319926Y-921371D02*
X-405640Y-892800D01*
X-405640Y-892800D02*
X-462783Y-835657D01*
X-462783Y-835657D02*
X-491354Y-778514D01*
X-491354Y-778514D02*
X-519926Y-664228D01*
X-519926Y-664228D02*
X-519926Y-578514D01*
X-519926Y-578514D02*
X-491354Y-464228D01*
X-491354Y-464228D02*
X-462783Y-407085D01*
X-462783Y-407085D02*
X-405640Y-349942D01*
X-405640Y-349942D02*
X-319926Y-321371D01*
X-319926Y-321371D02*
X-262783Y-321371D01*
X-262783Y-321371D02*
X-177069Y-349942D01*
X-177069Y-349942D02*
X-148497Y-378514D01*
D11*
X-3582269Y6305705D02*
X-3582269Y5734277D01*
X-3582269Y5734277D02*
X-3620364Y5619991D01*
X-3620364Y5619991D02*
X-3696555Y5543800D01*
X-3696555Y5543800D02*
X-3810840Y5505705D01*
X-3810840Y5505705D02*
X-3887031Y5505705D01*
X-2820364Y5505705D02*
X-3201316Y5505705D01*
X-3201316Y5505705D02*
X-3201316Y6305705D01*
X-2096554Y5581896D02*
X-2134650Y5543800D01*
X-2134650Y5543800D02*
X-2248935Y5505705D01*
X-2248935Y5505705D02*
X-2325126Y5505705D01*
X-2325126Y5505705D02*
X-2439412Y5543800D01*
X-2439412Y5543800D02*
X-2515602Y5619991D01*
X-2515602Y5619991D02*
X-2553697Y5696181D01*
X-2553697Y5696181D02*
X-2591793Y5848562D01*
X-2591793Y5848562D02*
X-2591793Y5962848D01*
X-2591793Y5962848D02*
X-2553697Y6115229D01*
X-2553697Y6115229D02*
X-2515602Y6191420D01*
X-2515602Y6191420D02*
X-2439412Y6267610D01*
X-2439412Y6267610D02*
X-2325126Y6305705D01*
X-2325126Y6305705D02*
X-2248935Y6305705D01*
X-2248935Y6305705D02*
X-2134650Y6267610D01*
X-2134650Y6267610D02*
X-2096554Y6229515D01*
X-1525126Y6305705D02*
X-1525126Y5734277D01*
X-1525126Y5734277D02*
X-1563221Y5619991D01*
X-1563221Y5619991D02*
X-1639412Y5543800D01*
X-1639412Y5543800D02*
X-1753697Y5505705D01*
X-1753697Y5505705D02*
X-1829888Y5505705D01*
X-763221Y5505705D02*
X-1144173Y5505705D01*
X-1144173Y5505705D02*
X-1144173Y6305705D01*
X-39411Y5581896D02*
X-77507Y5543800D01*
X-77507Y5543800D02*
X-191792Y5505705D01*
X-191792Y5505705D02*
X-267983Y5505705D01*
X-267983Y5505705D02*
X-382269Y5543800D01*
X-382269Y5543800D02*
X-458459Y5619991D01*
X-458459Y5619991D02*
X-496554Y5696181D01*
X-496554Y5696181D02*
X-534650Y5848562D01*
X-534650Y5848562D02*
X-534650Y5962848D01*
X-534650Y5962848D02*
X-496554Y6115229D01*
X-496554Y6115229D02*
X-458459Y6191420D01*
X-458459Y6191420D02*
X-382269Y6267610D01*
X-382269Y6267610D02*
X-267983Y6305705D01*
X-267983Y6305705D02*
X-191792Y6305705D01*
X-191792Y6305705D02*
X-77507Y6267610D01*
X-77507Y6267610D02*
X-39411Y6229515D01*
X532017Y6305705D02*
X532017Y5734277D01*
X532017Y5734277D02*
X493922Y5619991D01*
X493922Y5619991D02*
X417731Y5543800D01*
X417731Y5543800D02*
X303446Y5505705D01*
X303446Y5505705D02*
X227255Y5505705D01*
X1293922Y5505705D02*
X912970Y5505705D01*
X912970Y5505705D02*
X912970Y6305705D01*
X2017732Y5581896D02*
X1979636Y5543800D01*
X1979636Y5543800D02*
X1865351Y5505705D01*
X1865351Y5505705D02*
X1789160Y5505705D01*
X1789160Y5505705D02*
X1674874Y5543800D01*
X1674874Y5543800D02*
X1598684Y5619991D01*
X1598684Y5619991D02*
X1560589Y5696181D01*
X1560589Y5696181D02*
X1522493Y5848562D01*
X1522493Y5848562D02*
X1522493Y5962848D01*
X1522493Y5962848D02*
X1560589Y6115229D01*
X1560589Y6115229D02*
X1598684Y6191420D01*
X1598684Y6191420D02*
X1674874Y6267610D01*
X1674874Y6267610D02*
X1789160Y6305705D01*
X1789160Y6305705D02*
X1865351Y6305705D01*
X1865351Y6305705D02*
X1979636Y6267610D01*
X1979636Y6267610D02*
X2017732Y6229515D01*
X2589160Y6305705D02*
X2589160Y5734277D01*
X2589160Y5734277D02*
X2551065Y5619991D01*
X2551065Y5619991D02*
X2474874Y5543800D01*
X2474874Y5543800D02*
X2360589Y5505705D01*
X2360589Y5505705D02*
X2284398Y5505705D01*
X3351065Y5505705D02*
X2970113Y5505705D01*
X2970113Y5505705D02*
X2970113Y6305705D01*
X4074875Y5581896D02*
X4036779Y5543800D01*
X4036779Y5543800D02*
X3922494Y5505705D01*
X3922494Y5505705D02*
X3846303Y5505705D01*
X3846303Y5505705D02*
X3732017Y5543800D01*
X3732017Y5543800D02*
X3655827Y5619991D01*
X3655827Y5619991D02*
X3617732Y5696181D01*
X3617732Y5696181D02*
X3579636Y5848562D01*
X3579636Y5848562D02*
X3579636Y5962848D01*
X3579636Y5962848D02*
X3617732Y6115229D01*
X3617732Y6115229D02*
X3655827Y6191420D01*
X3655827Y6191420D02*
X3732017Y6267610D01*
X3732017Y6267610D02*
X3846303Y6305705D01*
X3846303Y6305705D02*
X3922494Y6305705D01*
X3922494Y6305705D02*
X4036779Y6267610D01*
X4036779Y6267610D02*
X4074875Y6229515D01*
X-4863221Y1975420D02*
X-4815602Y1927800D01*
X-4815602Y1927800D02*
X-4863221Y1880181D01*
X-4863221Y1880181D02*
X-4910840Y1927800D01*
X-4910840Y1927800D02*
X-4863221Y1975420D01*
X-4863221Y1975420D02*
X-4863221Y1880181D01*
D10*
X358646Y-4957085D02*
X558646Y-4957085D01*
X644360Y-5271371D02*
X358646Y-5271371D01*
X358646Y-5271371D02*
X358646Y-4671371D01*
X358646Y-4671371D02*
X644360Y-4671371D01*
D11*
%TO.C,J1*%
X-333334Y8895181D02*
X-333334Y8180896D01*
X-333334Y8180896D02*
X-380953Y8038039D01*
X-380953Y8038039D02*
X-476191Y7942800D01*
X-476191Y7942800D02*
X-619048Y7895181D01*
X-619048Y7895181D02*
X-714286Y7895181D01*
X666666Y7895181D02*
X95238Y7895181D01*
X380952Y7895181D02*
X380952Y8895181D01*
X380952Y8895181D02*
X285714Y8752324D01*
X285714Y8752324D02*
X190476Y8657086D01*
X190476Y8657086D02*
X95238Y8609467D01*
D10*
%TO.C,R1*%
X4100000Y-2422371D02*
X3900000Y-2136657D01*
X3757143Y-2422371D02*
X3757143Y-1822371D01*
X3757143Y-1822371D02*
X3985714Y-1822371D01*
X3985714Y-1822371D02*
X4042857Y-1850942D01*
X4042857Y-1850942D02*
X4071428Y-1879514D01*
X4071428Y-1879514D02*
X4100000Y-1936657D01*
X4100000Y-1936657D02*
X4100000Y-2022371D01*
X4100000Y-2022371D02*
X4071428Y-2079514D01*
X4071428Y-2079514D02*
X4042857Y-2108085D01*
X4042857Y-2108085D02*
X3985714Y-2136657D01*
X3985714Y-2136657D02*
X3757143Y-2136657D01*
X4671428Y-2422371D02*
X4328571Y-2422371D01*
X4500000Y-2422371D02*
X4500000Y-1822371D01*
X4500000Y-1822371D02*
X4442857Y-1908085D01*
X4442857Y-1908085D02*
X4385714Y-1965228D01*
X4385714Y-1965228D02*
X4328571Y-1993800D01*
%TO.C,Q2*%
X-2257143Y670486D02*
X-2314286Y699058D01*
X-2314286Y699058D02*
X-2371429Y756200D01*
X-2371429Y756200D02*
X-2457143Y841915D01*
X-2457143Y841915D02*
X-2514286Y870486D01*
X-2514286Y870486D02*
X-2571429Y870486D01*
X-2542858Y727629D02*
X-2600000Y756200D01*
X-2600000Y756200D02*
X-2657143Y813343D01*
X-2657143Y813343D02*
X-2685715Y927629D01*
X-2685715Y927629D02*
X-2685715Y1127629D01*
X-2685715Y1127629D02*
X-2657143Y1241915D01*
X-2657143Y1241915D02*
X-2600000Y1299058D01*
X-2600000Y1299058D02*
X-2542858Y1327629D01*
X-2542858Y1327629D02*
X-2428572Y1327629D01*
X-2428572Y1327629D02*
X-2371429Y1299058D01*
X-2371429Y1299058D02*
X-2314286Y1241915D01*
X-2314286Y1241915D02*
X-2285715Y1127629D01*
X-2285715Y1127629D02*
X-2285715Y927629D01*
X-2285715Y927629D02*
X-2314286Y813343D01*
X-2314286Y813343D02*
X-2371429Y756200D01*
X-2371429Y756200D02*
X-2428572Y727629D01*
X-2428572Y727629D02*
X-2542858Y727629D01*
X-2057144Y1270486D02*
X-2028572Y1299058D01*
X-2028572Y1299058D02*
X-1971429Y1327629D01*
X-1971429Y1327629D02*
X-1828572Y1327629D01*
X-1828572Y1327629D02*
X-1771429Y1299058D01*
X-1771429Y1299058D02*
X-1742858Y1270486D01*
X-1742858Y1270486D02*
X-1714287Y1213343D01*
X-1714287Y1213343D02*
X-1714287Y1156200D01*
X-1714287Y1156200D02*
X-1742858Y1070486D01*
X-1742858Y1070486D02*
X-2085715Y727629D01*
X-2085715Y727629D02*
X-1714287Y727629D01*
%TO.C,R2*%
X2100000Y-2422371D02*
X1900000Y-2136657D01*
X1757143Y-2422371D02*
X1757143Y-1822371D01*
X1757143Y-1822371D02*
X1985714Y-1822371D01*
X1985714Y-1822371D02*
X2042857Y-1850942D01*
X2042857Y-1850942D02*
X2071428Y-1879514D01*
X2071428Y-1879514D02*
X2100000Y-1936657D01*
X2100000Y-1936657D02*
X2100000Y-2022371D01*
X2100000Y-2022371D02*
X2071428Y-2079514D01*
X2071428Y-2079514D02*
X2042857Y-2108085D01*
X2042857Y-2108085D02*
X1985714Y-2136657D01*
X1985714Y-2136657D02*
X1757143Y-2136657D01*
X2328571Y-1879514D02*
X2357143Y-1850942D01*
X2357143Y-1850942D02*
X2414286Y-1822371D01*
X2414286Y-1822371D02*
X2557143Y-1822371D01*
X2557143Y-1822371D02*
X2614286Y-1850942D01*
X2614286Y-1850942D02*
X2642857Y-1879514D01*
X2642857Y-1879514D02*
X2671428Y-1936657D01*
X2671428Y-1936657D02*
X2671428Y-1993800D01*
X2671428Y-1993800D02*
X2642857Y-2079514D01*
X2642857Y-2079514D02*
X2300000Y-2422371D01*
X2300000Y-2422371D02*
X2671428Y-2422371D01*
D12*
%TO.C,J1*%
X4580000Y4950000D02*
X4580000Y6870000D01*
X4580000Y10585000D02*
X4580000Y8880000D01*
X-4580000Y6870000D02*
X-4580000Y4950000D01*
X-4580000Y8880000D02*
X-4580000Y10585000D01*
X-4580000Y10585000D02*
X4580000Y10585000D01*
%TO.C,R1*%
X3465000Y-227064D02*
X3465000Y227064D01*
X4935000Y-227064D02*
X4935000Y227064D01*
%TO.C,Q1*%
X960000Y-1115000D02*
X-960000Y-1115000D01*
X-960000Y-1115000D02*
X-960000Y-3800000D01*
X960000Y-3800000D02*
X960000Y-1115000D01*
%TO.C,Q2*%
X-3337500Y1560000D02*
X-5012500Y1560000D01*
X-3337500Y1560000D02*
X-2687500Y1560000D01*
X-3337500Y-1560000D02*
X-3987500Y-1560000D01*
X-3337500Y-1560000D02*
X-2687500Y-1560000D01*
%TO.C,R2*%
X1465000Y-227064D02*
X1465000Y227064D01*
X2935000Y-227064D02*
X2935000Y227064D01*
%TD*%
%LPC*%
D13*
%TO.C,J1*%
X2890000Y4195000D03*
X-2890000Y4195000D03*
D14*
X3200000Y3075000D03*
X2400000Y3075000D03*
D15*
X1250000Y3075000D03*
X250000Y3075000D03*
X-250000Y3075000D03*
X-1250000Y3075000D03*
D14*
X-2400000Y3075000D03*
X-3200000Y3075000D03*
X-3200000Y3075000D03*
X-2400000Y3075000D03*
D15*
X-1750000Y3075000D03*
X-750000Y3075000D03*
X750000Y3075000D03*
X1750000Y3075000D03*
D14*
X2400000Y3075000D03*
X3200000Y3075000D03*
D16*
X4320000Y3675000D03*
D17*
X4320000Y7875000D03*
D16*
X-4320000Y3675000D03*
D17*
X-4320000Y7875000D03*
%TD*%
D18*
%TO.C,R1*%
X4200000Y-912500D03*
X4200000Y912500D03*
%TD*%
D19*
%TO.C,Q1*%
X0Y-1862500D03*
X0Y-3737500D03*
%TD*%
D20*
%TO.C,H2*%
X3200000Y-4000000D03*
%TD*%
D21*
%TO.C,Q2*%
X-4275000Y950000D03*
X-4275000Y-950000D03*
X-2400000Y0D03*
%TD*%
D20*
%TO.C,H1*%
X-3200000Y-4000000D03*
%TD*%
D18*
%TO.C,R2*%
X2200000Y-912500D03*
X2200000Y912500D03*
%TD*%
%LPD*%
M02*
