%TF.GenerationSoftware,KiCad,Pcbnew,7.0.5-0*%
%TF.CreationDate,2023-08-31T21:00:23-07:00*%
%TF.ProjectId,MiSTerLaggy,4d695354-6572-44c6-9167-67792e6b6963,rev?*%
%TF.SameCoordinates,Original*%
%TF.FileFunction,Legend,Top*%
%TF.FilePolarity,Positive*%
%FSLAX46Y46*%
G04 Gerber Fmt 4.6, Leading zero omitted, Abs format (unit mm)*
G04 Created by KiCad (PCBNEW 7.0.5-0) date 2023-08-31 21:00:23*
%MOMM*%
%LPD*%
G01*
G04 APERTURE LIST*
G04 Aperture macros list*
%AMRoundRect*
0 Rectangle with rounded corners*
0 $1 Rounding radius*
0 $2 $3 $4 $5 $6 $7 $8 $9 X,Y pos of 4 corners*
0 Add a 4 corners polygon primitive as box body*
4,1,4,$2,$3,$4,$5,$6,$7,$8,$9,$2,$3,0*
0 Add four circle primitives for the rounded corners*
1,1,$1+$1,$2,$3*
1,1,$1+$1,$4,$5*
1,1,$1+$1,$6,$7*
1,1,$1+$1,$8,$9*
0 Add four rect primitives between the rounded corners*
20,1,$1+$1,$2,$3,$4,$5,0*
20,1,$1+$1,$4,$5,$6,$7,0*
20,1,$1+$1,$6,$7,$8,$9,0*
20,1,$1+$1,$8,$9,$2,$3,0*%
G04 Aperture macros list end*
%ADD10C,0.150000*%
%ADD11C,0.120000*%
%ADD12C,0.650000*%
%ADD13R,0.600000X1.240000*%
%ADD14R,0.300000X1.240000*%
%ADD15O,1.000000X2.100000*%
%ADD16O,1.000000X1.800000*%
%ADD17RoundRect,0.250000X0.450000X-0.262500X0.450000X0.262500X-0.450000X0.262500X-0.450000X-0.262500X0*%
%ADD18RoundRect,0.243750X-0.456250X0.243750X-0.456250X-0.243750X0.456250X-0.243750X0.456250X0.243750X0*%
%ADD19C,2.200000*%
%ADD20RoundRect,0.150000X-0.587500X-0.150000X0.587500X-0.150000X0.587500X0.150000X-0.587500X0.150000X0*%
G04 APERTURE END LIST*
D10*
X589160Y-5075247D02*
X855826Y-5075247D01*
X970112Y-5494295D02*
X589160Y-5494295D01*
X589160Y-5494295D02*
X589160Y-4694295D01*
X589160Y-4694295D02*
X970112Y-4694295D01*
X-253697Y-718104D02*
X-291793Y-756200D01*
X-291793Y-756200D02*
X-406078Y-794295D01*
X-406078Y-794295D02*
X-482269Y-794295D01*
X-482269Y-794295D02*
X-596555Y-756200D01*
X-596555Y-756200D02*
X-672745Y-680009D01*
X-672745Y-680009D02*
X-710840Y-603819D01*
X-710840Y-603819D02*
X-748936Y-451438D01*
X-748936Y-451438D02*
X-748936Y-337152D01*
X-748936Y-337152D02*
X-710840Y-184771D01*
X-710840Y-184771D02*
X-672745Y-108580D01*
X-672745Y-108580D02*
X-596555Y-32390D01*
X-596555Y-32390D02*
X-482269Y5705D01*
X-482269Y5705D02*
X-406078Y5705D01*
X-406078Y5705D02*
X-291793Y-32390D01*
X-291793Y-32390D02*
X-253697Y-70485D01*
X-3582269Y6305705D02*
X-3582269Y5734277D01*
X-3582269Y5734277D02*
X-3620364Y5619991D01*
X-3620364Y5619991D02*
X-3696555Y5543800D01*
X-3696555Y5543800D02*
X-3810840Y5505705D01*
X-3810840Y5505705D02*
X-3887031Y5505705D01*
X-2820364Y5505705D02*
X-3201316Y5505705D01*
X-3201316Y5505705D02*
X-3201316Y6305705D01*
X-2096554Y5581896D02*
X-2134650Y5543800D01*
X-2134650Y5543800D02*
X-2248935Y5505705D01*
X-2248935Y5505705D02*
X-2325126Y5505705D01*
X-2325126Y5505705D02*
X-2439412Y5543800D01*
X-2439412Y5543800D02*
X-2515602Y5619991D01*
X-2515602Y5619991D02*
X-2553697Y5696181D01*
X-2553697Y5696181D02*
X-2591793Y5848562D01*
X-2591793Y5848562D02*
X-2591793Y5962848D01*
X-2591793Y5962848D02*
X-2553697Y6115229D01*
X-2553697Y6115229D02*
X-2515602Y6191420D01*
X-2515602Y6191420D02*
X-2439412Y6267610D01*
X-2439412Y6267610D02*
X-2325126Y6305705D01*
X-2325126Y6305705D02*
X-2248935Y6305705D01*
X-2248935Y6305705D02*
X-2134650Y6267610D01*
X-2134650Y6267610D02*
X-2096554Y6229515D01*
X-1525126Y6305705D02*
X-1525126Y5734277D01*
X-1525126Y5734277D02*
X-1563221Y5619991D01*
X-1563221Y5619991D02*
X-1639412Y5543800D01*
X-1639412Y5543800D02*
X-1753697Y5505705D01*
X-1753697Y5505705D02*
X-1829888Y5505705D01*
X-763221Y5505705D02*
X-1144173Y5505705D01*
X-1144173Y5505705D02*
X-1144173Y6305705D01*
X-39411Y5581896D02*
X-77507Y5543800D01*
X-77507Y5543800D02*
X-191792Y5505705D01*
X-191792Y5505705D02*
X-267983Y5505705D01*
X-267983Y5505705D02*
X-382269Y5543800D01*
X-382269Y5543800D02*
X-458459Y5619991D01*
X-458459Y5619991D02*
X-496554Y5696181D01*
X-496554Y5696181D02*
X-534650Y5848562D01*
X-534650Y5848562D02*
X-534650Y5962848D01*
X-534650Y5962848D02*
X-496554Y6115229D01*
X-496554Y6115229D02*
X-458459Y6191420D01*
X-458459Y6191420D02*
X-382269Y6267610D01*
X-382269Y6267610D02*
X-267983Y6305705D01*
X-267983Y6305705D02*
X-191792Y6305705D01*
X-191792Y6305705D02*
X-77507Y6267610D01*
X-77507Y6267610D02*
X-39411Y6229515D01*
X532017Y6305705D02*
X532017Y5734277D01*
X532017Y5734277D02*
X493922Y5619991D01*
X493922Y5619991D02*
X417731Y5543800D01*
X417731Y5543800D02*
X303446Y5505705D01*
X303446Y5505705D02*
X227255Y5505705D01*
X1293922Y5505705D02*
X912970Y5505705D01*
X912970Y5505705D02*
X912970Y6305705D01*
X2017732Y5581896D02*
X1979636Y5543800D01*
X1979636Y5543800D02*
X1865351Y5505705D01*
X1865351Y5505705D02*
X1789160Y5505705D01*
X1789160Y5505705D02*
X1674874Y5543800D01*
X1674874Y5543800D02*
X1598684Y5619991D01*
X1598684Y5619991D02*
X1560589Y5696181D01*
X1560589Y5696181D02*
X1522493Y5848562D01*
X1522493Y5848562D02*
X1522493Y5962848D01*
X1522493Y5962848D02*
X1560589Y6115229D01*
X1560589Y6115229D02*
X1598684Y6191420D01*
X1598684Y6191420D02*
X1674874Y6267610D01*
X1674874Y6267610D02*
X1789160Y6305705D01*
X1789160Y6305705D02*
X1865351Y6305705D01*
X1865351Y6305705D02*
X1979636Y6267610D01*
X1979636Y6267610D02*
X2017732Y6229515D01*
X2589160Y6305705D02*
X2589160Y5734277D01*
X2589160Y5734277D02*
X2551065Y5619991D01*
X2551065Y5619991D02*
X2474874Y5543800D01*
X2474874Y5543800D02*
X2360589Y5505705D01*
X2360589Y5505705D02*
X2284398Y5505705D01*
X3351065Y5505705D02*
X2970113Y5505705D01*
X2970113Y5505705D02*
X2970113Y6305705D01*
X4074875Y5581896D02*
X4036779Y5543800D01*
X4036779Y5543800D02*
X3922494Y5505705D01*
X3922494Y5505705D02*
X3846303Y5505705D01*
X3846303Y5505705D02*
X3732017Y5543800D01*
X3732017Y5543800D02*
X3655827Y5619991D01*
X3655827Y5619991D02*
X3617732Y5696181D01*
X3617732Y5696181D02*
X3579636Y5848562D01*
X3579636Y5848562D02*
X3579636Y5962848D01*
X3579636Y5962848D02*
X3617732Y6115229D01*
X3617732Y6115229D02*
X3655827Y6191420D01*
X3655827Y6191420D02*
X3732017Y6267610D01*
X3732017Y6267610D02*
X3846303Y6305705D01*
X3846303Y6305705D02*
X3922494Y6305705D01*
X3922494Y6305705D02*
X4036779Y6267610D01*
X4036779Y6267610D02*
X4074875Y6229515D01*
%TO.C,J1*%
X-333334Y10045181D02*
X-333334Y9330896D01*
X-333334Y9330896D02*
X-380953Y9188039D01*
X-380953Y9188039D02*
X-476191Y9092800D01*
X-476191Y9092800D02*
X-619048Y9045181D01*
X-619048Y9045181D02*
X-714286Y9045181D01*
X666666Y9045181D02*
X95238Y9045181D01*
X380952Y9045181D02*
X380952Y10045181D01*
X380952Y10045181D02*
X285714Y9902324D01*
X285714Y9902324D02*
X190476Y9807086D01*
X190476Y9807086D02*
X95238Y9759467D01*
%TO.C,R1*%
X2062295Y766668D02*
X1681342Y500001D01*
X2062295Y309525D02*
X1262295Y309525D01*
X1262295Y309525D02*
X1262295Y614287D01*
X1262295Y614287D02*
X1300390Y690477D01*
X1300390Y690477D02*
X1338485Y728572D01*
X1338485Y728572D02*
X1414676Y766668D01*
X1414676Y766668D02*
X1528961Y766668D01*
X1528961Y766668D02*
X1605152Y728572D01*
X1605152Y728572D02*
X1643247Y690477D01*
X1643247Y690477D02*
X1681342Y614287D01*
X1681342Y614287D02*
X1681342Y309525D01*
X2062295Y1528572D02*
X2062295Y1071429D01*
X2062295Y1300001D02*
X1262295Y1300001D01*
X1262295Y1300001D02*
X1376580Y1223810D01*
X1376580Y1223810D02*
X1452771Y1147620D01*
X1452771Y1147620D02*
X1490866Y1071429D01*
%TO.C,Q2*%
X-676191Y761515D02*
X-752381Y799610D01*
X-752381Y799610D02*
X-828572Y875800D01*
X-828572Y875800D02*
X-942858Y990086D01*
X-942858Y990086D02*
X-1019048Y1028181D01*
X-1019048Y1028181D02*
X-1095239Y1028181D01*
X-1057143Y837705D02*
X-1133334Y875800D01*
X-1133334Y875800D02*
X-1209524Y951991D01*
X-1209524Y951991D02*
X-1247620Y1104372D01*
X-1247620Y1104372D02*
X-1247620Y1371039D01*
X-1247620Y1371039D02*
X-1209524Y1523420D01*
X-1209524Y1523420D02*
X-1133334Y1599610D01*
X-1133334Y1599610D02*
X-1057143Y1637705D01*
X-1057143Y1637705D02*
X-904762Y1637705D01*
X-904762Y1637705D02*
X-828572Y1599610D01*
X-828572Y1599610D02*
X-752381Y1523420D01*
X-752381Y1523420D02*
X-714286Y1371039D01*
X-714286Y1371039D02*
X-714286Y1104372D01*
X-714286Y1104372D02*
X-752381Y951991D01*
X-752381Y951991D02*
X-828572Y875800D01*
X-828572Y875800D02*
X-904762Y837705D01*
X-904762Y837705D02*
X-1057143Y837705D01*
X-409525Y1561515D02*
X-371429Y1599610D01*
X-371429Y1599610D02*
X-295239Y1637705D01*
X-295239Y1637705D02*
X-104763Y1637705D01*
X-104763Y1637705D02*
X-28572Y1599610D01*
X-28572Y1599610D02*
X9523Y1561515D01*
X9523Y1561515D02*
X47618Y1485324D01*
X47618Y1485324D02*
X47618Y1409134D01*
X47618Y1409134D02*
X9523Y1294848D01*
X9523Y1294848D02*
X-447620Y837705D01*
X-447620Y837705D02*
X47618Y837705D01*
D11*
%TO.C,J1*%
X4580000Y4950000D02*
X4580000Y6870000D01*
X4580000Y10585000D02*
X4580000Y8880000D01*
X-4580000Y6870000D02*
X-4580000Y4950000D01*
X-4580000Y8880000D02*
X-4580000Y10585000D01*
X-4580000Y10585000D02*
X4580000Y10585000D01*
%TO.C,R1*%
X2565000Y-227064D02*
X2565000Y227064D01*
X4035000Y-227064D02*
X4035000Y227064D01*
%TO.C,Q1*%
X960000Y-1115000D02*
X-960000Y-1115000D01*
X-960000Y-1115000D02*
X-960000Y-3800000D01*
X960000Y-3800000D02*
X960000Y-1115000D01*
%TO.C,Q2*%
X-3337500Y-1560000D02*
X-2687500Y-1560000D01*
X-3337500Y-1560000D02*
X-3987500Y-1560000D01*
X-3337500Y1560000D02*
X-2687500Y1560000D01*
X-3337500Y1560000D02*
X-5012500Y1560000D01*
%TD*%
%LPC*%
D12*
%TO.C,J1*%
X2890000Y4195000D03*
X-2890000Y4195000D03*
D13*
X3200000Y3075000D03*
X2400000Y3075000D03*
D14*
X1250000Y3075000D03*
X250000Y3075000D03*
X-250000Y3075000D03*
X-1250000Y3075000D03*
D13*
X-2400000Y3075000D03*
X-3200000Y3075000D03*
X-3200000Y3075000D03*
X-2400000Y3075000D03*
D14*
X-1750000Y3075000D03*
X-750000Y3075000D03*
X750000Y3075000D03*
X1750000Y3075000D03*
D13*
X2400000Y3075000D03*
X3200000Y3075000D03*
D15*
X4320000Y3675000D03*
D16*
X4320000Y7875000D03*
D15*
X-4320000Y3675000D03*
D16*
X-4320000Y7875000D03*
%TD*%
D17*
%TO.C,R1*%
X3300000Y-912500D03*
X3300000Y912500D03*
%TD*%
D18*
%TO.C,Q1*%
X0Y-1862500D03*
X0Y-3737500D03*
%TD*%
D19*
%TO.C,H2*%
X3200000Y-4000000D03*
%TD*%
D20*
%TO.C,Q2*%
X-2400000Y0D03*
X-4275000Y-950000D03*
X-4275000Y950000D03*
%TD*%
D19*
%TO.C,H1*%
X-3200000Y-4000000D03*
%TD*%
%LPD*%
M02*
