%TF.GenerationSoftware,KiCad,Pcbnew,7.0.5-0*%
%TF.CreationDate,2023-08-27T12:40:47-07:00*%
%TF.ProjectId,MiSTerLaggy,4d695354-6572-44c6-9167-67792e6b6963,rev?*%
%TF.SameCoordinates,Original*%
%TF.FileFunction,Legend,Top*%
%TF.FilePolarity,Positive*%
%FSLAX46Y46*%
G04 Gerber Fmt 4.6, Leading zero omitted, Abs format (unit mm)*
G04 Created by KiCad (PCBNEW 7.0.5-0) date 2023-08-27 12:40:47*
%MOMM*%
%LPD*%
G01*
G04 APERTURE LIST*
G04 Aperture macros list*
%AMRoundRect*
0 Rectangle with rounded corners*
0 $1 Rounding radius*
0 $2 $3 $4 $5 $6 $7 $8 $9 X,Y pos of 4 corners*
0 Add a 4 corners polygon primitive as box body*
4,1,4,$2,$3,$4,$5,$6,$7,$8,$9,$2,$3,0*
0 Add four circle primitives for the rounded corners*
1,1,$1+$1,$2,$3*
1,1,$1+$1,$4,$5*
1,1,$1+$1,$6,$7*
1,1,$1+$1,$8,$9*
0 Add four rect primitives between the rounded corners*
20,1,$1+$1,$2,$3,$4,$5,0*
20,1,$1+$1,$4,$5,$6,$7,0*
20,1,$1+$1,$6,$7,$8,$9,0*
20,1,$1+$1,$8,$9,$2,$3,0*%
G04 Aperture macros list end*
%ADD10C,0.150000*%
%ADD11C,0.120000*%
%ADD12C,0.650000*%
%ADD13R,0.600000X1.240000*%
%ADD14R,0.300000X1.240000*%
%ADD15O,1.000000X2.100000*%
%ADD16O,1.000000X1.800000*%
%ADD17RoundRect,0.200000X0.275000X-0.200000X0.275000X0.200000X-0.275000X0.200000X-0.275000X-0.200000X0*%
%ADD18RoundRect,0.243750X0.243750X0.456250X-0.243750X0.456250X-0.243750X-0.456250X0.243750X-0.456250X0*%
%ADD19C,2.200000*%
G04 APERTURE END LIST*
D10*
%TO.C,J1*%
X127346666Y-70254819D02*
X127346666Y-70969104D01*
X127346666Y-70969104D02*
X127299047Y-71111961D01*
X127299047Y-71111961D02*
X127203809Y-71207200D01*
X127203809Y-71207200D02*
X127060952Y-71254819D01*
X127060952Y-71254819D02*
X126965714Y-71254819D01*
X128346666Y-71254819D02*
X127775238Y-71254819D01*
X128060952Y-71254819D02*
X128060952Y-70254819D01*
X128060952Y-70254819D02*
X127965714Y-70397676D01*
X127965714Y-70397676D02*
X127870476Y-70492914D01*
X127870476Y-70492914D02*
X127775238Y-70540533D01*
%TO.C,R3*%
X122732295Y-77933332D02*
X122351342Y-78199999D01*
X122732295Y-78390475D02*
X121932295Y-78390475D01*
X121932295Y-78390475D02*
X121932295Y-78085713D01*
X121932295Y-78085713D02*
X121970390Y-78009523D01*
X121970390Y-78009523D02*
X122008485Y-77971428D01*
X122008485Y-77971428D02*
X122084676Y-77933332D01*
X122084676Y-77933332D02*
X122198961Y-77933332D01*
X122198961Y-77933332D02*
X122275152Y-77971428D01*
X122275152Y-77971428D02*
X122313247Y-78009523D01*
X122313247Y-78009523D02*
X122351342Y-78085713D01*
X122351342Y-78085713D02*
X122351342Y-78390475D01*
X121932295Y-77666666D02*
X121932295Y-77171428D01*
X121932295Y-77171428D02*
X122237057Y-77438094D01*
X122237057Y-77438094D02*
X122237057Y-77323809D01*
X122237057Y-77323809D02*
X122275152Y-77247618D01*
X122275152Y-77247618D02*
X122313247Y-77209523D01*
X122313247Y-77209523D02*
X122389438Y-77171428D01*
X122389438Y-77171428D02*
X122579914Y-77171428D01*
X122579914Y-77171428D02*
X122656104Y-77209523D01*
X122656104Y-77209523D02*
X122694200Y-77247618D01*
X122694200Y-77247618D02*
X122732295Y-77323809D01*
X122732295Y-77323809D02*
X122732295Y-77552380D01*
X122732295Y-77552380D02*
X122694200Y-77628571D01*
X122694200Y-77628571D02*
X122656104Y-77666666D01*
%TO.C,Q1*%
X125223809Y-78838485D02*
X125147619Y-78800390D01*
X125147619Y-78800390D02*
X125071428Y-78724200D01*
X125071428Y-78724200D02*
X124957142Y-78609914D01*
X124957142Y-78609914D02*
X124880952Y-78571819D01*
X124880952Y-78571819D02*
X124804761Y-78571819D01*
X124842857Y-78762295D02*
X124766666Y-78724200D01*
X124766666Y-78724200D02*
X124690476Y-78648009D01*
X124690476Y-78648009D02*
X124652380Y-78495628D01*
X124652380Y-78495628D02*
X124652380Y-78228961D01*
X124652380Y-78228961D02*
X124690476Y-78076580D01*
X124690476Y-78076580D02*
X124766666Y-78000390D01*
X124766666Y-78000390D02*
X124842857Y-77962295D01*
X124842857Y-77962295D02*
X124995238Y-77962295D01*
X124995238Y-77962295D02*
X125071428Y-78000390D01*
X125071428Y-78000390D02*
X125147619Y-78076580D01*
X125147619Y-78076580D02*
X125185714Y-78228961D01*
X125185714Y-78228961D02*
X125185714Y-78495628D01*
X125185714Y-78495628D02*
X125147619Y-78648009D01*
X125147619Y-78648009D02*
X125071428Y-78724200D01*
X125071428Y-78724200D02*
X124995238Y-78762295D01*
X124995238Y-78762295D02*
X124842857Y-78762295D01*
X125947618Y-78762295D02*
X125490475Y-78762295D01*
X125719047Y-78762295D02*
X125719047Y-77962295D01*
X125719047Y-77962295D02*
X125642856Y-78076580D01*
X125642856Y-78076580D02*
X125566666Y-78152771D01*
X125566666Y-78152771D02*
X125490475Y-78190866D01*
%TO.C,R2*%
X133362295Y-77933332D02*
X132981342Y-78199999D01*
X133362295Y-78390475D02*
X132562295Y-78390475D01*
X132562295Y-78390475D02*
X132562295Y-78085713D01*
X132562295Y-78085713D02*
X132600390Y-78009523D01*
X132600390Y-78009523D02*
X132638485Y-77971428D01*
X132638485Y-77971428D02*
X132714676Y-77933332D01*
X132714676Y-77933332D02*
X132828961Y-77933332D01*
X132828961Y-77933332D02*
X132905152Y-77971428D01*
X132905152Y-77971428D02*
X132943247Y-78009523D01*
X132943247Y-78009523D02*
X132981342Y-78085713D01*
X132981342Y-78085713D02*
X132981342Y-78390475D01*
X132638485Y-77628571D02*
X132600390Y-77590475D01*
X132600390Y-77590475D02*
X132562295Y-77514285D01*
X132562295Y-77514285D02*
X132562295Y-77323809D01*
X132562295Y-77323809D02*
X132600390Y-77247618D01*
X132600390Y-77247618D02*
X132638485Y-77209523D01*
X132638485Y-77209523D02*
X132714676Y-77171428D01*
X132714676Y-77171428D02*
X132790866Y-77171428D01*
X132790866Y-77171428D02*
X132905152Y-77209523D01*
X132905152Y-77209523D02*
X133362295Y-77666666D01*
X133362295Y-77666666D02*
X133362295Y-77171428D01*
%TO.C,R1*%
X136362295Y-73533332D02*
X135981342Y-73799999D01*
X136362295Y-73990475D02*
X135562295Y-73990475D01*
X135562295Y-73990475D02*
X135562295Y-73685713D01*
X135562295Y-73685713D02*
X135600390Y-73609523D01*
X135600390Y-73609523D02*
X135638485Y-73571428D01*
X135638485Y-73571428D02*
X135714676Y-73533332D01*
X135714676Y-73533332D02*
X135828961Y-73533332D01*
X135828961Y-73533332D02*
X135905152Y-73571428D01*
X135905152Y-73571428D02*
X135943247Y-73609523D01*
X135943247Y-73609523D02*
X135981342Y-73685713D01*
X135981342Y-73685713D02*
X135981342Y-73990475D01*
X136362295Y-72771428D02*
X136362295Y-73228571D01*
X136362295Y-72999999D02*
X135562295Y-72999999D01*
X135562295Y-72999999D02*
X135676580Y-73076190D01*
X135676580Y-73076190D02*
X135752771Y-73152380D01*
X135752771Y-73152380D02*
X135790866Y-73228571D01*
D11*
%TO.C,J1*%
X132260000Y-73175000D02*
X132260000Y-71255000D01*
X132260000Y-67540000D02*
X132260000Y-69245000D01*
X123100000Y-71255000D02*
X123100000Y-73175000D01*
X123100000Y-69245000D02*
X123100000Y-67540000D01*
X123100000Y-67540000D02*
X132260000Y-67540000D01*
%TO.C,R3*%
X123277500Y-78037258D02*
X123277500Y-77562742D01*
X124322500Y-78037258D02*
X124322500Y-77562742D01*
%TO.C,Q1*%
X129385000Y-79160000D02*
X129385000Y-77240000D01*
X129385000Y-77240000D02*
X126700000Y-77240000D01*
X126700000Y-79160000D02*
X129385000Y-79160000D01*
%TO.C,R2*%
X131077500Y-78037258D02*
X131077500Y-77562742D01*
X132122500Y-78037258D02*
X132122500Y-77562742D01*
%TO.C,R1*%
X133877500Y-73637258D02*
X133877500Y-73162742D01*
X134922500Y-73637258D02*
X134922500Y-73162742D01*
%TD*%
%LPC*%
D12*
%TO.C,J1*%
X130570000Y-73930000D03*
X124790000Y-73930000D03*
D13*
X130880000Y-75050000D03*
X130080000Y-75050000D03*
D14*
X128930000Y-75050000D03*
X127930000Y-75050000D03*
X127430000Y-75050000D03*
X126430000Y-75050000D03*
D13*
X125280000Y-75050000D03*
X124480000Y-75050000D03*
X124480000Y-75050000D03*
X125280000Y-75050000D03*
D14*
X125930000Y-75050000D03*
X126930000Y-75050000D03*
X128430000Y-75050000D03*
X129430000Y-75050000D03*
D13*
X130080000Y-75050000D03*
X130880000Y-75050000D03*
D15*
X132000000Y-74450000D03*
D16*
X132000000Y-70250000D03*
D15*
X123360000Y-74450000D03*
D16*
X123360000Y-70250000D03*
%TD*%
D17*
%TO.C,R3*%
X123800000Y-78625000D03*
X123800000Y-76975000D03*
%TD*%
D18*
%TO.C,Q1*%
X128637500Y-78200000D03*
X126762500Y-78200000D03*
%TD*%
D19*
%TO.C,H2*%
X135400000Y-69300000D03*
%TD*%
%TO.C,H1*%
X120000000Y-69300000D03*
%TD*%
%TO.C,H3*%
X120000000Y-77400000D03*
%TD*%
%TO.C,H4*%
X135400000Y-77400000D03*
%TD*%
D17*
%TO.C,R2*%
X131600000Y-78625000D03*
X131600000Y-76975000D03*
%TD*%
%TO.C,R1*%
X134400000Y-74225000D03*
X134400000Y-72575000D03*
%TD*%
%LPD*%
M02*
