%TF.GenerationSoftware,KiCad,Pcbnew,7.0.5-0*%
%TF.CreationDate,2023-09-16T13:11:08-07:00*%
%TF.ProjectId,MiSTerLaggy,4d695354-6572-44c6-9167-67792e6b6963,rev?*%
%TF.SameCoordinates,Original*%
%TF.FileFunction,Copper,L2,Bot*%
%TF.FilePolarity,Positive*%
%FSLAX46Y46*%
G04 Gerber Fmt 4.6, Leading zero omitted, Abs format (unit mm)*
G04 Created by KiCad (PCBNEW 7.0.5-0) date 2023-09-16 13:11:08*
%MOMM*%
%LPD*%
G01*
G04 APERTURE LIST*
%TA.AperFunction,ComponentPad*%
%ADD10O,1.000000X2.100000*%
%TD*%
%TA.AperFunction,ComponentPad*%
%ADD11O,1.000000X1.800000*%
%TD*%
%TA.AperFunction,ViaPad*%
%ADD12C,0.800000*%
%TD*%
%TA.AperFunction,Conductor*%
%ADD13C,0.250000*%
%TD*%
G04 APERTURE END LIST*
D10*
%TO.P,J1,S1,SHIELD*%
%TO.N,GND*%
X4320000Y3675000D03*
D11*
X4320000Y7875000D03*
D10*
X-4320000Y3675000D03*
D11*
X-4320000Y7875000D03*
%TD*%
D12*
%TO.N,GND*%
X1000000Y-500000D03*
X-3750000Y-2000000D03*
X1750000Y-5000000D03*
%TO.N,Net-(J1-D+-PadA6)*%
X-250000Y4294502D03*
X1150000Y1500000D03*
%TD*%
D13*
%TO.N,Net-(J1-D+-PadA6)*%
X1150000Y1500000D02*
X1150000Y2894502D01*
X1150000Y2894502D02*
X-250000Y4294502D01*
%TD*%
%TA.AperFunction,Conductor*%
%TO.N,GND*%
G36*
X-4491954Y9479815D02*
G01*
X-4446199Y9427011D01*
X-4436255Y9357853D01*
X-4465280Y9294297D01*
X-4524058Y9256523D01*
X-4540216Y9252930D01*
X-4571940Y9248071D01*
X-4762666Y9177435D01*
X-4935268Y9069851D01*
X-5082669Y8929736D01*
X-5082670Y8929734D01*
X-5198857Y8762805D01*
X-5279060Y8575908D01*
X-5320000Y8376691D01*
X-5320000Y8125000D01*
X-4620000Y8125000D01*
X-4620000Y7625000D01*
X-5320000Y7625000D01*
X-5320000Y7424287D01*
X-5304582Y7272662D01*
X-5243701Y7078619D01*
X-5243696Y7078609D01*
X-5144995Y6900785D01*
X-5144995Y6900784D01*
X-5012522Y6746470D01*
X-5012521Y6746469D01*
X-4851696Y6621982D01*
X-4669093Y6532411D01*
X-4570000Y6506756D01*
X-4570000Y7308890D01*
X-4545543Y7269390D01*
X-4456038Y7201799D01*
X-4348160Y7171105D01*
X-4236479Y7181454D01*
X-4136078Y7231448D01*
X-4070000Y7303931D01*
X-4070000Y6501634D01*
X-4068056Y6501931D01*
X-4068055Y6501931D01*
X-3877340Y6572564D01*
X-3877336Y6572566D01*
X-3704733Y6680150D01*
X-3557332Y6820265D01*
X-3557331Y6820267D01*
X-3441144Y6987196D01*
X-3360941Y7174093D01*
X-3320000Y7373310D01*
X-3320000Y7625000D01*
X-4020000Y7625000D01*
X-4020000Y8125000D01*
X-3320000Y8125000D01*
X-3320000Y8325714D01*
X-3335419Y8477339D01*
X-3396300Y8671382D01*
X-3396305Y8671392D01*
X-3495006Y8849216D01*
X-3495006Y8849217D01*
X-3627479Y9003531D01*
X-3627480Y9003532D01*
X-3788305Y9128019D01*
X-3970908Y9217590D01*
X-3970907Y9217590D01*
X-4117167Y9255459D01*
X-4177133Y9291319D01*
X-4208191Y9353906D01*
X-4200482Y9423349D01*
X-4156453Y9477600D01*
X-4090083Y9499436D01*
X-4086086Y9499500D01*
X4081007Y9499500D01*
X4148046Y9479815D01*
X4193801Y9427011D01*
X4203745Y9357853D01*
X4174720Y9294297D01*
X4115942Y9256523D01*
X4099784Y9252930D01*
X4068060Y9248071D01*
X3877334Y9177435D01*
X3704732Y9069851D01*
X3557331Y8929736D01*
X3557330Y8929734D01*
X3441143Y8762805D01*
X3360940Y8575908D01*
X3320000Y8376691D01*
X3320000Y8125000D01*
X4020000Y8125000D01*
X4020000Y7625000D01*
X3320000Y7625000D01*
X3320000Y7424287D01*
X3335418Y7272662D01*
X3396299Y7078619D01*
X3396304Y7078609D01*
X3495005Y6900785D01*
X3495005Y6900784D01*
X3627478Y6746470D01*
X3627479Y6746469D01*
X3788304Y6621982D01*
X3970907Y6532411D01*
X4070000Y6506756D01*
X4070000Y7308890D01*
X4094457Y7269390D01*
X4183962Y7201799D01*
X4291840Y7171105D01*
X4403521Y7181454D01*
X4503922Y7231448D01*
X4570000Y7303931D01*
X4570000Y6501634D01*
X4571944Y6501931D01*
X4571945Y6501931D01*
X4762660Y6572564D01*
X4762664Y6572566D01*
X4935267Y6680150D01*
X5082668Y6820265D01*
X5082669Y6820267D01*
X5198856Y6987196D01*
X5279059Y7174093D01*
X5320000Y7373310D01*
X5320000Y7625000D01*
X4620000Y7625000D01*
X4620000Y8125000D01*
X5320000Y8125000D01*
X5320000Y8325714D01*
X5304581Y8477339D01*
X5243700Y8671382D01*
X5243695Y8671392D01*
X5144994Y8849216D01*
X5144994Y8849217D01*
X5012521Y9003531D01*
X5012520Y9003532D01*
X4851695Y9128019D01*
X4669092Y9217590D01*
X4669093Y9217590D01*
X4522833Y9255459D01*
X4462867Y9291319D01*
X4431809Y9353906D01*
X4439518Y9423349D01*
X4483547Y9477600D01*
X4549917Y9499436D01*
X4553914Y9499500D01*
X5625500Y9499500D01*
X5692539Y9479815D01*
X5738294Y9427011D01*
X5749500Y9375500D01*
X5749500Y-8125500D01*
X5729815Y-8192539D01*
X5677011Y-8238294D01*
X5625500Y-8249500D01*
X-5625500Y-8249500D01*
X-5692539Y-8229815D01*
X-5738294Y-8177011D01*
X-5749500Y-8125500D01*
X-5749500Y-2750000D01*
X-1355659Y-2750000D01*
X-1335064Y-2985403D01*
X-1335062Y-2985413D01*
X-1273906Y-3213655D01*
X-1273904Y-3213659D01*
X-1273903Y-3213663D01*
X-1223970Y-3320745D01*
X-1174036Y-3427828D01*
X-1174035Y-3427830D01*
X-1038495Y-3621402D01*
X-871403Y-3788494D01*
X-677831Y-3924034D01*
X-677829Y-3924035D01*
X-463663Y-4023903D01*
X-235408Y-4085063D01*
X-58968Y-4100499D01*
X-58967Y-4100500D01*
X-58966Y-4100500D01*
X58967Y-4100500D01*
X58967Y-4100499D01*
X235408Y-4085063D01*
X463663Y-4023903D01*
X677829Y-3924035D01*
X871401Y-3788495D01*
X1038495Y-3621401D01*
X1174035Y-3427830D01*
X1273903Y-3213663D01*
X1335063Y-2985408D01*
X1355659Y-2750000D01*
X1335063Y-2514592D01*
X1273903Y-2286337D01*
X1174035Y-2072171D01*
X1174034Y-2072169D01*
X1038494Y-1878597D01*
X871402Y-1711505D01*
X677830Y-1575965D01*
X677828Y-1575964D01*
X570745Y-1526031D01*
X463663Y-1476097D01*
X463659Y-1476096D01*
X463655Y-1476094D01*
X235413Y-1414938D01*
X235403Y-1414936D01*
X58967Y-1399500D01*
X58966Y-1399500D01*
X-58966Y-1399500D01*
X-58967Y-1399500D01*
X-235404Y-1414936D01*
X-235414Y-1414938D01*
X-463656Y-1476094D01*
X-463665Y-1476098D01*
X-677829Y-1575964D01*
X-677831Y-1575965D01*
X-871403Y-1711505D01*
X-1038494Y-1878597D01*
X-1038499Y-1878604D01*
X-1174033Y-2072165D01*
X-1174035Y-2072169D01*
X-1273902Y-2286335D01*
X-1273906Y-2286344D01*
X-1335062Y-2514586D01*
X-1335064Y-2514596D01*
X-1355659Y-2749999D01*
X-1355659Y-2750000D01*
X-5749500Y-2750000D01*
X-5749500Y3074287D01*
X-5320000Y3074287D01*
X-5304582Y2922662D01*
X-5243701Y2728619D01*
X-5243696Y2728609D01*
X-5144995Y2550785D01*
X-5144995Y2550784D01*
X-5012522Y2396470D01*
X-5012521Y2396469D01*
X-4851696Y2271982D01*
X-4669093Y2182411D01*
X-4570001Y2156756D01*
X-4570001Y2958890D01*
X-4545543Y2919390D01*
X-4456038Y2851799D01*
X-4348160Y2821105D01*
X-4236479Y2831454D01*
X-4136078Y2881448D01*
X-4070001Y2953931D01*
X-4070000Y2151634D01*
X-4068056Y2151931D01*
X-4068055Y2151931D01*
X-3877340Y2222564D01*
X-3877336Y2222566D01*
X-3704733Y2330150D01*
X-3557332Y2470265D01*
X-3557331Y2470267D01*
X-3441144Y2637196D01*
X-3360941Y2824093D01*
X-3320000Y3023310D01*
X-3320000Y3564616D01*
X-3300315Y3631655D01*
X-3247511Y3677410D01*
X-3178353Y3687354D01*
X-3148546Y3679177D01*
X-3040236Y3634313D01*
X-2927720Y3619500D01*
X-2927713Y3619500D01*
X-2852287Y3619500D01*
X-2852280Y3619500D01*
X-2739764Y3634313D01*
X-2599767Y3692302D01*
X-2479549Y3784549D01*
X-2387302Y3904767D01*
X-2329313Y4044764D01*
X-2309534Y4195000D01*
X-2322634Y4294502D01*
X-1155460Y4294502D01*
X-1135674Y4106246D01*
X-1135673Y4106243D01*
X-1077182Y3926225D01*
X-1077179Y3926218D01*
X-982533Y3762286D01*
X-914426Y3686646D01*
X-855871Y3621614D01*
X-702735Y3510354D01*
X-702730Y3510351D01*
X-529808Y3433360D01*
X-529803Y3433358D01*
X-344646Y3394002D01*
X-285452Y3394002D01*
X-218413Y3374317D01*
X-197771Y3357683D01*
X488181Y2671731D01*
X521666Y2610408D01*
X524500Y2584050D01*
X524500Y2198688D01*
X504815Y2131649D01*
X492650Y2115716D01*
X417466Y2032216D01*
X322821Y1868285D01*
X322818Y1868278D01*
X264327Y1688260D01*
X264326Y1688256D01*
X244540Y1500000D01*
X264326Y1311744D01*
X264327Y1311741D01*
X322818Y1131723D01*
X322821Y1131716D01*
X417467Y967784D01*
X544128Y827113D01*
X544129Y827112D01*
X697265Y715852D01*
X697270Y715849D01*
X870192Y638858D01*
X870197Y638856D01*
X1055354Y599500D01*
X1055355Y599500D01*
X1244644Y599500D01*
X1244646Y599500D01*
X1429803Y638856D01*
X1602730Y715849D01*
X1755871Y827112D01*
X1882533Y967784D01*
X1977179Y1131716D01*
X2035674Y1311744D01*
X2055460Y1500000D01*
X2035674Y1688256D01*
X1977179Y1868284D01*
X1882533Y2032216D01*
X1882532Y2032217D01*
X1807349Y2115717D01*
X1777119Y2178709D01*
X1775499Y2198689D01*
X1775499Y2811752D01*
X1777224Y2827374D01*
X1776938Y2827401D01*
X1777671Y2835161D01*
X1777673Y2835169D01*
X1776219Y2881448D01*
X1775531Y2903350D01*
X1775500Y2905297D01*
X1775500Y2933848D01*
X1775500Y2933852D01*
X1774631Y2940730D01*
X1774172Y2946559D01*
X1772709Y2993130D01*
X1767122Y3012358D01*
X1763174Y3031418D01*
X1760663Y3051298D01*
X1743512Y3094615D01*
X1741619Y3100144D01*
X1728618Y3144893D01*
X1728616Y3144896D01*
X1718423Y3162131D01*
X1709861Y3179608D01*
X1702487Y3198232D01*
X1702486Y3198234D01*
X1675079Y3235957D01*
X1671888Y3240816D01*
X1648172Y3280919D01*
X1648165Y3280928D01*
X1634006Y3295087D01*
X1621368Y3309883D01*
X1609594Y3326089D01*
X1573688Y3355793D01*
X1569376Y3359716D01*
X734093Y4195000D01*
X2309533Y4195000D01*
X2329312Y4044766D01*
X2329313Y4044764D01*
X2378416Y3926218D01*
X2387302Y3904767D01*
X2479549Y3784549D01*
X2599767Y3692302D01*
X2739764Y3634313D01*
X2852280Y3619500D01*
X2852287Y3619500D01*
X2927713Y3619500D01*
X2927720Y3619500D01*
X3040236Y3634313D01*
X3148546Y3679177D01*
X3218017Y3686646D01*
X3280496Y3655371D01*
X3316148Y3595282D01*
X3320000Y3564616D01*
X3319999Y3074287D01*
X3335418Y2922662D01*
X3396299Y2728619D01*
X3396304Y2728609D01*
X3495005Y2550785D01*
X3495005Y2550784D01*
X3627478Y2396470D01*
X3627479Y2396469D01*
X3788304Y2271982D01*
X3970907Y2182411D01*
X4070000Y2156756D01*
X4070000Y2958890D01*
X4094457Y2919390D01*
X4183962Y2851799D01*
X4291840Y2821105D01*
X4403521Y2831454D01*
X4503922Y2881448D01*
X4569999Y2953931D01*
X4569999Y2151635D01*
X4571944Y2151931D01*
X4571945Y2151931D01*
X4762660Y2222564D01*
X4762664Y2222566D01*
X4935267Y2330150D01*
X5082668Y2470265D01*
X5082669Y2470267D01*
X5198856Y2637196D01*
X5279059Y2824093D01*
X5320000Y3023310D01*
X5320000Y3425000D01*
X4620000Y3425000D01*
X4620000Y3925000D01*
X5320000Y3925000D01*
X5320000Y4275714D01*
X5304581Y4427339D01*
X5243700Y4621382D01*
X5243695Y4621392D01*
X5144994Y4799216D01*
X5144994Y4799217D01*
X5012521Y4953531D01*
X5012520Y4953532D01*
X4851695Y5078019D01*
X4669093Y5167589D01*
X4570000Y5193247D01*
X4570000Y4391111D01*
X4545543Y4430610D01*
X4456038Y4498201D01*
X4348160Y4528895D01*
X4236479Y4518546D01*
X4136078Y4468552D01*
X4070000Y4396070D01*
X4070000Y5198367D01*
X4068053Y5198069D01*
X4068047Y5198067D01*
X3877342Y5127438D01*
X3877335Y5127435D01*
X3704732Y5019851D01*
X3557331Y4879736D01*
X3557330Y4879734D01*
X3441143Y4712804D01*
X3434531Y4697397D01*
X3390002Y4643555D01*
X3323432Y4622335D01*
X3255958Y4640473D01*
X3245095Y4647927D01*
X3180234Y4697698D01*
X3180230Y4697700D01*
X3089731Y4735186D01*
X3040236Y4755687D01*
X3026171Y4757539D01*
X2927727Y4770500D01*
X2927720Y4770500D01*
X2852280Y4770500D01*
X2852272Y4770500D01*
X2739764Y4755687D01*
X2739763Y4755687D01*
X2599770Y4697700D01*
X2599767Y4697699D01*
X2599767Y4697698D01*
X2554269Y4662786D01*
X2479549Y4605451D01*
X2387300Y4485230D01*
X2329313Y4345237D01*
X2329312Y4345235D01*
X2309533Y4195001D01*
X2309533Y4195000D01*
X734093Y4195000D01*
X688960Y4240133D01*
X655475Y4301456D01*
X653323Y4314834D01*
X635674Y4482758D01*
X577179Y4662786D01*
X482533Y4826718D01*
X355871Y4967390D01*
X355870Y4967391D01*
X202734Y5078651D01*
X202729Y5078654D01*
X29807Y5155645D01*
X29802Y5155647D01*
X-116000Y5186637D01*
X-155354Y5195002D01*
X-344646Y5195002D01*
X-377103Y5188104D01*
X-529803Y5155647D01*
X-529808Y5155645D01*
X-702730Y5078654D01*
X-702735Y5078651D01*
X-855871Y4967391D01*
X-982534Y4826717D01*
X-1077179Y4662787D01*
X-1077182Y4662780D01*
X-1134870Y4485233D01*
X-1135674Y4482758D01*
X-1155460Y4294502D01*
X-2322634Y4294502D01*
X-2329313Y4345236D01*
X-2387302Y4485233D01*
X-2479549Y4605451D01*
X-2599767Y4697698D01*
X-2599771Y4697700D01*
X-2663199Y4723973D01*
X-2739764Y4755687D01*
X-2753829Y4757539D01*
X-2852273Y4770500D01*
X-2852280Y4770500D01*
X-2927720Y4770500D01*
X-2927728Y4770500D01*
X-3040236Y4755687D01*
X-3040237Y4755687D01*
X-3180231Y4697700D01*
X-3180234Y4697698D01*
X-3247364Y4646187D01*
X-3312533Y4620993D01*
X-3380978Y4635032D01*
X-3430968Y4683846D01*
X-3431269Y4684386D01*
X-3495003Y4799212D01*
X-3495006Y4799217D01*
X-3627479Y4953531D01*
X-3627480Y4953532D01*
X-3788305Y5078019D01*
X-3970907Y5167589D01*
X-4070001Y5193247D01*
X-4070001Y4391113D01*
X-4094457Y4430610D01*
X-4183962Y4498201D01*
X-4291840Y4528895D01*
X-4403521Y4518546D01*
X-4503922Y4468552D01*
X-4570000Y4396070D01*
X-4570000Y5198367D01*
X-4571947Y5198069D01*
X-4571953Y5198067D01*
X-4762658Y5127438D01*
X-4762665Y5127435D01*
X-4935268Y5019851D01*
X-5082669Y4879736D01*
X-5082670Y4879734D01*
X-5198857Y4712805D01*
X-5279060Y4525908D01*
X-5320000Y4326691D01*
X-5320000Y3925000D01*
X-4620000Y3925000D01*
X-4620000Y3425000D01*
X-5320000Y3425000D01*
X-5320000Y3074287D01*
X-5749500Y3074287D01*
X-5749500Y9375500D01*
X-5729815Y9442539D01*
X-5677011Y9488294D01*
X-5625500Y9499500D01*
X-4558993Y9499500D01*
X-4491954Y9479815D01*
G37*
%TD.AperFunction*%
%TD*%
M02*
