M48
; DRILL file {KiCad 7.0.5-0} date 2023 August 30, Wednesday 06:54:43
; FORMAT={-:-/ absolute / inch / decimal}
; #@! TF.CreationDate,2023-08-30T06:54:43-07:00
; #@! TF.GenerationSoftware,Kicad,Pcbnew,7.0.5-0
; #@! TF.FileFunction,Plated,1,2,PTH
FMAT,2
INCH
; #@! TA.AperFunction,Plated,PTH,ComponentDrill
T1C0.0157
; #@! TA.AperFunction,Plated,PTH,ComponentDrill
T2C0.0236
; #@! TA.AperFunction,Plated,PTH,ComponentDrill
T3C0.0315
; #@! TA.AperFunction,Plated,PTH,ComponentDrill
T4C0.0354
%
G90
G05
T1
X0.185Y-0.1185
X0.185Y-0.1717
X0.2185Y-0.1185
X0.2185Y-0.1717
X0.252Y-0.1185
X0.252Y-0.1717
X0.2854Y-0.1185
X0.2854Y-0.1717
X0.3189Y-0.1185
X0.3189Y-0.1717
X0.3524Y-0.1185
X0.3524Y-0.1717
X0.3858Y-0.1185
X0.3858Y-0.1717
X0.4193Y-0.1185
X0.4193Y-0.1717
T3
X0.1531Y-0.2756
X0.4531Y-0.2756
T4
X0.3031Y-0.3858
X0.3031Y-0.4858
T2
G00X0.1319Y-0.0157
M15
G01X0.1319Y0.0157
M16
G05
G00X0.1319Y-0.1626
M15
G01X0.1319Y-0.1035
M16
G05
G00X0.4724Y-0.0157
M15
G01X0.4724Y0.0157
M16
G05
G00X0.4724Y-0.1626
M15
G01X0.4724Y-0.1035
M16
G05
T0
M30
