%TF.GenerationSoftware,KiCad,Pcbnew,7.0.5-0*%
%TF.CreationDate,2023-08-27T12:40:47-07:00*%
%TF.ProjectId,MiSTerLaggy,4d695354-6572-44c6-9167-67792e6b6963,rev?*%
%TF.SameCoordinates,Original*%
%TF.FileFunction,Copper,L2,Bot*%
%TF.FilePolarity,Positive*%
%FSLAX46Y46*%
G04 Gerber Fmt 4.6, Leading zero omitted, Abs format (unit mm)*
G04 Created by KiCad (PCBNEW 7.0.5-0) date 2023-08-27 12:40:47*
%MOMM*%
%LPD*%
G01*
G04 APERTURE LIST*
%TA.AperFunction,ComponentPad*%
%ADD10O,1.000000X2.100000*%
%TD*%
%TA.AperFunction,ComponentPad*%
%ADD11O,1.000000X1.800000*%
%TD*%
%TA.AperFunction,ViaPad*%
%ADD12C,0.800000*%
%TD*%
%TA.AperFunction,Conductor*%
%ADD13C,0.250000*%
%TD*%
G04 APERTURE END LIST*
D10*
%TO.P,J1,S1,SHIELD*%
%TO.N,GND*%
X132000000Y-74450000D03*
D11*
X132000000Y-70250000D03*
D10*
X123360000Y-74450000D03*
D11*
X123360000Y-70250000D03*
%TD*%
D12*
%TO.N,GND*%
X125600000Y-77200000D03*
%TO.N,Net-(J1-D+-PadA6)*%
X129800000Y-72600000D03*
X127400000Y-73800000D03*
%TD*%
D13*
%TO.N,GND*%
X123360000Y-74960000D02*
X123360000Y-74450000D01*
X125600000Y-77200000D02*
X123360000Y-74960000D01*
%TO.N,Net-(J1-D+-PadA6)*%
X127400000Y-73800000D02*
X128600000Y-73800000D01*
X128600000Y-73800000D02*
X129800000Y-72600000D01*
%TD*%
%TA.AperFunction,Conductor*%
%TO.N,GND*%
G36*
X135602019Y-67100633D02*
G01*
X135640149Y-67103131D01*
X135683793Y-67105992D01*
X135865459Y-67118985D01*
X135873102Y-67120015D01*
X135989451Y-67143158D01*
X136133666Y-67174531D01*
X136140383Y-67176395D01*
X136258618Y-67216531D01*
X136260224Y-67217103D01*
X136391740Y-67266156D01*
X136397483Y-67268635D01*
X136511830Y-67325024D01*
X136514042Y-67326173D01*
X136634913Y-67392173D01*
X136639641Y-67395037D01*
X136746649Y-67466537D01*
X136749358Y-67468454D01*
X136858652Y-67550271D01*
X136862345Y-67553265D01*
X136959502Y-67638469D01*
X136962448Y-67641228D01*
X137058769Y-67737549D01*
X137061526Y-67740492D01*
X137146729Y-67837648D01*
X137149732Y-67841353D01*
X137201564Y-67910592D01*
X137231543Y-67950639D01*
X137233461Y-67953349D01*
X137304961Y-68060357D01*
X137307828Y-68065091D01*
X137373802Y-68185912D01*
X137374992Y-68188204D01*
X137431356Y-68302499D01*
X137433842Y-68308258D01*
X137482878Y-68439727D01*
X137483497Y-68441465D01*
X137523597Y-68559596D01*
X137525472Y-68566352D01*
X137556848Y-68710590D01*
X137579980Y-68826880D01*
X137581015Y-68834560D01*
X137594021Y-69016413D01*
X137597179Y-69064596D01*
X137599367Y-69097966D01*
X137599500Y-69102023D01*
X137599500Y-77597976D01*
X137599367Y-77602033D01*
X137594021Y-77683585D01*
X137581015Y-77865438D01*
X137579980Y-77873118D01*
X137556848Y-77989408D01*
X137525472Y-78133646D01*
X137523597Y-78140402D01*
X137483497Y-78258533D01*
X137482878Y-78260271D01*
X137433842Y-78391740D01*
X137431356Y-78397499D01*
X137374992Y-78511794D01*
X137373802Y-78514086D01*
X137307828Y-78634907D01*
X137304961Y-78639641D01*
X137233461Y-78746649D01*
X137231543Y-78749359D01*
X137149744Y-78858631D01*
X137146723Y-78862357D01*
X137061529Y-78959502D01*
X137058755Y-78962464D01*
X136962464Y-79058755D01*
X136959502Y-79061529D01*
X136862357Y-79146723D01*
X136858631Y-79149744D01*
X136749359Y-79231543D01*
X136746649Y-79233461D01*
X136639641Y-79304961D01*
X136634907Y-79307828D01*
X136514086Y-79373802D01*
X136511794Y-79374992D01*
X136397499Y-79431356D01*
X136391740Y-79433842D01*
X136260271Y-79482878D01*
X136258533Y-79483497D01*
X136140402Y-79523597D01*
X136133646Y-79525472D01*
X135989408Y-79556848D01*
X135873118Y-79579980D01*
X135865438Y-79581015D01*
X135683585Y-79594021D01*
X135627608Y-79597690D01*
X135602025Y-79599367D01*
X135597976Y-79599500D01*
X119802024Y-79599500D01*
X119797974Y-79599367D01*
X119767355Y-79597360D01*
X119716413Y-79594021D01*
X119534560Y-79581015D01*
X119526880Y-79579980D01*
X119410590Y-79556848D01*
X119266352Y-79525472D01*
X119259596Y-79523597D01*
X119141465Y-79483497D01*
X119139727Y-79482878D01*
X119008258Y-79433842D01*
X119002499Y-79431356D01*
X118888204Y-79374992D01*
X118885912Y-79373802D01*
X118765091Y-79307828D01*
X118760357Y-79304961D01*
X118653349Y-79233461D01*
X118650639Y-79231543D01*
X118610592Y-79201564D01*
X118541353Y-79149732D01*
X118537648Y-79146729D01*
X118440492Y-79061526D01*
X118437549Y-79058769D01*
X118341228Y-78962448D01*
X118338469Y-78959502D01*
X118305450Y-78921851D01*
X118253265Y-78862345D01*
X118250271Y-78858652D01*
X118168454Y-78749358D01*
X118166537Y-78746649D01*
X118095037Y-78639641D01*
X118092170Y-78634907D01*
X118026173Y-78514042D01*
X118025024Y-78511830D01*
X117968635Y-78397483D01*
X117966156Y-78391740D01*
X117921272Y-78271402D01*
X117917103Y-78260224D01*
X117916531Y-78258618D01*
X117876395Y-78140383D01*
X117874531Y-78133666D01*
X117843150Y-77989408D01*
X117820015Y-77873102D01*
X117818985Y-77865459D01*
X117805992Y-77683793D01*
X117802821Y-77635408D01*
X117800633Y-77602018D01*
X117800500Y-77597963D01*
X117800500Y-77400000D01*
X118644341Y-77400000D01*
X118664936Y-77635403D01*
X118664938Y-77635413D01*
X118726094Y-77863655D01*
X118726096Y-77863659D01*
X118726097Y-77863663D01*
X118730506Y-77873118D01*
X118825964Y-78077828D01*
X118825965Y-78077830D01*
X118961505Y-78271402D01*
X119128597Y-78438494D01*
X119322169Y-78574034D01*
X119322171Y-78574035D01*
X119536337Y-78673903D01*
X119764592Y-78735063D01*
X119941032Y-78750499D01*
X119941033Y-78750500D01*
X119941034Y-78750500D01*
X120058967Y-78750500D01*
X120058967Y-78750499D01*
X120235408Y-78735063D01*
X120463663Y-78673903D01*
X120677829Y-78574035D01*
X120871401Y-78438495D01*
X121038495Y-78271401D01*
X121174035Y-78077830D01*
X121273903Y-77863663D01*
X121335063Y-77635408D01*
X121355659Y-77400000D01*
X134044341Y-77400000D01*
X134064936Y-77635403D01*
X134064938Y-77635413D01*
X134126094Y-77863655D01*
X134126096Y-77863659D01*
X134126097Y-77863663D01*
X134130506Y-77873118D01*
X134225964Y-78077828D01*
X134225965Y-78077830D01*
X134361505Y-78271402D01*
X134528597Y-78438494D01*
X134722169Y-78574034D01*
X134722171Y-78574035D01*
X134936337Y-78673903D01*
X135164592Y-78735063D01*
X135341032Y-78750499D01*
X135341033Y-78750500D01*
X135341034Y-78750500D01*
X135458967Y-78750500D01*
X135458967Y-78750499D01*
X135635408Y-78735063D01*
X135863663Y-78673903D01*
X136077829Y-78574035D01*
X136271401Y-78438495D01*
X136438495Y-78271401D01*
X136574035Y-78077830D01*
X136673903Y-77863663D01*
X136735063Y-77635408D01*
X136755659Y-77400000D01*
X136735063Y-77164592D01*
X136673903Y-76936337D01*
X136574035Y-76722171D01*
X136574034Y-76722169D01*
X136438494Y-76528597D01*
X136271402Y-76361505D01*
X136077830Y-76225965D01*
X136077828Y-76225964D01*
X135970745Y-76176030D01*
X135863663Y-76126097D01*
X135863659Y-76126096D01*
X135863655Y-76126094D01*
X135635413Y-76064938D01*
X135635403Y-76064936D01*
X135458967Y-76049500D01*
X135458966Y-76049500D01*
X135341034Y-76049500D01*
X135341033Y-76049500D01*
X135164596Y-76064936D01*
X135164586Y-76064938D01*
X134936344Y-76126094D01*
X134936335Y-76126098D01*
X134722171Y-76225964D01*
X134722169Y-76225965D01*
X134528597Y-76361505D01*
X134361506Y-76528597D01*
X134361501Y-76528604D01*
X134225967Y-76722165D01*
X134225965Y-76722169D01*
X134126098Y-76936335D01*
X134126094Y-76936344D01*
X134064938Y-77164586D01*
X134064936Y-77164596D01*
X134044341Y-77399999D01*
X134044341Y-77400000D01*
X121355659Y-77400000D01*
X121335063Y-77164592D01*
X121273903Y-76936337D01*
X121174035Y-76722171D01*
X121174034Y-76722169D01*
X121038494Y-76528597D01*
X120871402Y-76361505D01*
X120677830Y-76225965D01*
X120677828Y-76225964D01*
X120570745Y-76176031D01*
X120463663Y-76126097D01*
X120463659Y-76126096D01*
X120463655Y-76126094D01*
X120235413Y-76064938D01*
X120235403Y-76064936D01*
X120058967Y-76049500D01*
X120058966Y-76049500D01*
X119941034Y-76049500D01*
X119941033Y-76049500D01*
X119764596Y-76064936D01*
X119764586Y-76064938D01*
X119536344Y-76126094D01*
X119536335Y-76126098D01*
X119322171Y-76225964D01*
X119322169Y-76225965D01*
X119128597Y-76361505D01*
X118961506Y-76528597D01*
X118961501Y-76528604D01*
X118825967Y-76722165D01*
X118825965Y-76722169D01*
X118726098Y-76936335D01*
X118726094Y-76936344D01*
X118664938Y-77164586D01*
X118664936Y-77164596D01*
X118644341Y-77399999D01*
X118644341Y-77400000D01*
X117800500Y-77400000D01*
X117800500Y-75050713D01*
X122360000Y-75050713D01*
X122375418Y-75202338D01*
X122436299Y-75396381D01*
X122436304Y-75396391D01*
X122535005Y-75574215D01*
X122535005Y-75574216D01*
X122667478Y-75728530D01*
X122667479Y-75728531D01*
X122828304Y-75853018D01*
X123010907Y-75942589D01*
X123110000Y-75968244D01*
X123110000Y-75166110D01*
X123134457Y-75205610D01*
X123223962Y-75273201D01*
X123331840Y-75303895D01*
X123443521Y-75293546D01*
X123543922Y-75243552D01*
X123610000Y-75171069D01*
X123610000Y-75973366D01*
X123611944Y-75973069D01*
X123611945Y-75973069D01*
X123802660Y-75902436D01*
X123802664Y-75902434D01*
X123975267Y-75794850D01*
X124122668Y-75654735D01*
X124122669Y-75654733D01*
X124238856Y-75487804D01*
X124319059Y-75300907D01*
X124360000Y-75101690D01*
X124360000Y-74560384D01*
X124379685Y-74493345D01*
X124432489Y-74447590D01*
X124501647Y-74437646D01*
X124531454Y-74445823D01*
X124639764Y-74490687D01*
X124752280Y-74505500D01*
X124752287Y-74505500D01*
X124827713Y-74505500D01*
X124827720Y-74505500D01*
X124940236Y-74490687D01*
X125080233Y-74432698D01*
X125200451Y-74340451D01*
X125292698Y-74220233D01*
X125350687Y-74080236D01*
X125370466Y-73930000D01*
X125353351Y-73800000D01*
X126494540Y-73800000D01*
X126514326Y-73988256D01*
X126514327Y-73988259D01*
X126572818Y-74168277D01*
X126572821Y-74168284D01*
X126667467Y-74332216D01*
X126771351Y-74447590D01*
X126794129Y-74472888D01*
X126947265Y-74584148D01*
X126947270Y-74584151D01*
X127120192Y-74661142D01*
X127120197Y-74661144D01*
X127305354Y-74700500D01*
X127305355Y-74700500D01*
X127494644Y-74700500D01*
X127494646Y-74700500D01*
X127679803Y-74661144D01*
X127852730Y-74584151D01*
X128005871Y-74472888D01*
X128008805Y-74469629D01*
X128011600Y-74466526D01*
X128071087Y-74429879D01*
X128103748Y-74425500D01*
X128517257Y-74425500D01*
X128532877Y-74427224D01*
X128532904Y-74426939D01*
X128540666Y-74427673D01*
X128540666Y-74427672D01*
X128540667Y-74427673D01*
X128543999Y-74427568D01*
X128608847Y-74425531D01*
X128610794Y-74425500D01*
X128639347Y-74425500D01*
X128639350Y-74425500D01*
X128646228Y-74424630D01*
X128652041Y-74424172D01*
X128698627Y-74422709D01*
X128717869Y-74417117D01*
X128736912Y-74413174D01*
X128756792Y-74410664D01*
X128800122Y-74393507D01*
X128805646Y-74391617D01*
X128809396Y-74390527D01*
X128850390Y-74378618D01*
X128867629Y-74368422D01*
X128885103Y-74359862D01*
X128903727Y-74352488D01*
X128903727Y-74352487D01*
X128903732Y-74352486D01*
X128941449Y-74325082D01*
X128946305Y-74321892D01*
X128986420Y-74298170D01*
X129000589Y-74283999D01*
X129015379Y-74271368D01*
X129031587Y-74259594D01*
X129061299Y-74223676D01*
X129065212Y-74219376D01*
X129747771Y-73536819D01*
X129809095Y-73503334D01*
X129835453Y-73500500D01*
X129894644Y-73500500D01*
X129894646Y-73500500D01*
X129916690Y-73495814D01*
X129986354Y-73501127D01*
X130042089Y-73543263D01*
X130066196Y-73608842D01*
X130057033Y-73664555D01*
X130009314Y-73779760D01*
X130009312Y-73779765D01*
X129989533Y-73929999D01*
X129989533Y-73930000D01*
X130009312Y-74080234D01*
X130009313Y-74080236D01*
X130067302Y-74220233D01*
X130159549Y-74340451D01*
X130279767Y-74432698D01*
X130419764Y-74490687D01*
X130532280Y-74505500D01*
X130532287Y-74505500D01*
X130607713Y-74505500D01*
X130607720Y-74505500D01*
X130720236Y-74490687D01*
X130828546Y-74445823D01*
X130898017Y-74438354D01*
X130960496Y-74469629D01*
X130996148Y-74529718D01*
X131000000Y-74560384D01*
X131000000Y-75050713D01*
X131015418Y-75202338D01*
X131076299Y-75396381D01*
X131076304Y-75396391D01*
X131175005Y-75574215D01*
X131175005Y-75574216D01*
X131307478Y-75728530D01*
X131307479Y-75728531D01*
X131468304Y-75853018D01*
X131650907Y-75942589D01*
X131750000Y-75968244D01*
X131750000Y-75166110D01*
X131774457Y-75205610D01*
X131863962Y-75273201D01*
X131971840Y-75303895D01*
X132083521Y-75293546D01*
X132183922Y-75243552D01*
X132249999Y-75171069D01*
X132250000Y-75973366D01*
X132251944Y-75973069D01*
X132251945Y-75973069D01*
X132442660Y-75902436D01*
X132442664Y-75902434D01*
X132615267Y-75794850D01*
X132762668Y-75654735D01*
X132762669Y-75654733D01*
X132878856Y-75487804D01*
X132959059Y-75300907D01*
X133000000Y-75101690D01*
X133000000Y-74700000D01*
X132300000Y-74700000D01*
X132300000Y-74200000D01*
X133000000Y-74200000D01*
X133000000Y-73849286D01*
X132984581Y-73697661D01*
X132923700Y-73503618D01*
X132923695Y-73503608D01*
X132824994Y-73325784D01*
X132824994Y-73325783D01*
X132692521Y-73171469D01*
X132692520Y-73171468D01*
X132531695Y-73046981D01*
X132349093Y-72957411D01*
X132250000Y-72931753D01*
X132250000Y-73733889D01*
X132225543Y-73694390D01*
X132136038Y-73626799D01*
X132028160Y-73596105D01*
X131916479Y-73606454D01*
X131816078Y-73656448D01*
X131750000Y-73728930D01*
X131750000Y-72926633D01*
X131748053Y-72926931D01*
X131748047Y-72926933D01*
X131557342Y-72997562D01*
X131557335Y-72997565D01*
X131384732Y-73105149D01*
X131237331Y-73245264D01*
X131237330Y-73245266D01*
X131121143Y-73412196D01*
X131114531Y-73427603D01*
X131070002Y-73481445D01*
X131003432Y-73502665D01*
X130935958Y-73484527D01*
X130925095Y-73477073D01*
X130860234Y-73427302D01*
X130860230Y-73427300D01*
X130756058Y-73384151D01*
X130720236Y-73369313D01*
X130706171Y-73367461D01*
X130607727Y-73354500D01*
X130603670Y-73354235D01*
X130603789Y-73352413D01*
X130543857Y-73334815D01*
X130498102Y-73282011D01*
X130488158Y-73212853D01*
X130517183Y-73149297D01*
X130518746Y-73147528D01*
X130518943Y-73147308D01*
X130532533Y-73132216D01*
X130627179Y-72968284D01*
X130685674Y-72788256D01*
X130705460Y-72600000D01*
X130685674Y-72411744D01*
X130627179Y-72231716D01*
X130532533Y-72067784D01*
X130405871Y-71927112D01*
X130405870Y-71927111D01*
X130252734Y-71815851D01*
X130252729Y-71815848D01*
X130079807Y-71738857D01*
X130079802Y-71738855D01*
X129934001Y-71707865D01*
X129894646Y-71699500D01*
X129705354Y-71699500D01*
X129672897Y-71706398D01*
X129520197Y-71738855D01*
X129520192Y-71738857D01*
X129347270Y-71815848D01*
X129347265Y-71815851D01*
X129194129Y-71927111D01*
X129067466Y-72067785D01*
X128972821Y-72231715D01*
X128972818Y-72231722D01*
X128914327Y-72411740D01*
X128914326Y-72411744D01*
X128896679Y-72579649D01*
X128870094Y-72644263D01*
X128861039Y-72654368D01*
X128377228Y-73138181D01*
X128315905Y-73171666D01*
X128289547Y-73174500D01*
X128103748Y-73174500D01*
X128036709Y-73154815D01*
X128011600Y-73133474D01*
X128005873Y-73127114D01*
X128005869Y-73127110D01*
X127852734Y-73015851D01*
X127852729Y-73015848D01*
X127679807Y-72938857D01*
X127679802Y-72938855D01*
X127534000Y-72907865D01*
X127494646Y-72899500D01*
X127305354Y-72899500D01*
X127272897Y-72906398D01*
X127120197Y-72938855D01*
X127120192Y-72938857D01*
X126947270Y-73015848D01*
X126947265Y-73015851D01*
X126794129Y-73127111D01*
X126667466Y-73267785D01*
X126572821Y-73431715D01*
X126572818Y-73431722D01*
X126519407Y-73596105D01*
X126514326Y-73611744D01*
X126494540Y-73800000D01*
X125353351Y-73800000D01*
X125350687Y-73779764D01*
X125292698Y-73639767D01*
X125200451Y-73519549D01*
X125080233Y-73427302D01*
X125080229Y-73427300D01*
X125016801Y-73401027D01*
X124940236Y-73369313D01*
X124926171Y-73367461D01*
X124827727Y-73354500D01*
X124827720Y-73354500D01*
X124752280Y-73354500D01*
X124752272Y-73354500D01*
X124639764Y-73369313D01*
X124639763Y-73369313D01*
X124499769Y-73427300D01*
X124499766Y-73427302D01*
X124432636Y-73478813D01*
X124367467Y-73504007D01*
X124299022Y-73489968D01*
X124249032Y-73441154D01*
X124248731Y-73440614D01*
X124184997Y-73325788D01*
X124184994Y-73325783D01*
X124052521Y-73171469D01*
X124052520Y-73171468D01*
X123891695Y-73046981D01*
X123709093Y-72957411D01*
X123610000Y-72931753D01*
X123610000Y-73733889D01*
X123585543Y-73694390D01*
X123496038Y-73626799D01*
X123388160Y-73596105D01*
X123276479Y-73606454D01*
X123176078Y-73656448D01*
X123110000Y-73728930D01*
X123110000Y-72926633D01*
X123108053Y-72926931D01*
X123108047Y-72926933D01*
X122917342Y-72997562D01*
X122917335Y-72997565D01*
X122744732Y-73105149D01*
X122597331Y-73245264D01*
X122597330Y-73245266D01*
X122481143Y-73412195D01*
X122400940Y-73599092D01*
X122360000Y-73798309D01*
X122360000Y-74200000D01*
X123060000Y-74200000D01*
X123060000Y-74700000D01*
X122360000Y-74700000D01*
X122360000Y-75050713D01*
X117800500Y-75050713D01*
X117800500Y-70700713D01*
X122360000Y-70700713D01*
X122375418Y-70852338D01*
X122436299Y-71046381D01*
X122436304Y-71046391D01*
X122535005Y-71224215D01*
X122535005Y-71224216D01*
X122667478Y-71378530D01*
X122667479Y-71378531D01*
X122828304Y-71503018D01*
X123010907Y-71592589D01*
X123110000Y-71618244D01*
X123110000Y-70816110D01*
X123134457Y-70855610D01*
X123223962Y-70923201D01*
X123331840Y-70953895D01*
X123443521Y-70943546D01*
X123543922Y-70893552D01*
X123610000Y-70821069D01*
X123610000Y-71623366D01*
X123611944Y-71623069D01*
X123611945Y-71623069D01*
X123802660Y-71552436D01*
X123802664Y-71552434D01*
X123975267Y-71444850D01*
X124122668Y-71304735D01*
X124122669Y-71304733D01*
X124238856Y-71137804D01*
X124319059Y-70950907D01*
X124360000Y-70751690D01*
X124360000Y-70700713D01*
X131000000Y-70700713D01*
X131015418Y-70852338D01*
X131076299Y-71046381D01*
X131076304Y-71046391D01*
X131175005Y-71224215D01*
X131175005Y-71224216D01*
X131307478Y-71378530D01*
X131307479Y-71378531D01*
X131468304Y-71503018D01*
X131650907Y-71592589D01*
X131750000Y-71618244D01*
X131750000Y-70816110D01*
X131774457Y-70855610D01*
X131863962Y-70923201D01*
X131971840Y-70953895D01*
X132083521Y-70943546D01*
X132183922Y-70893552D01*
X132250000Y-70821069D01*
X132250000Y-71623366D01*
X132251944Y-71623069D01*
X132251945Y-71623069D01*
X132442660Y-71552436D01*
X132442664Y-71552434D01*
X132615267Y-71444850D01*
X132762668Y-71304735D01*
X132762669Y-71304733D01*
X132878856Y-71137804D01*
X132959059Y-70950907D01*
X133000000Y-70751690D01*
X133000000Y-70500000D01*
X132300000Y-70500000D01*
X132300000Y-70000000D01*
X133000000Y-70000000D01*
X133000000Y-69799286D01*
X132984581Y-69647661D01*
X132923700Y-69453618D01*
X132923695Y-69453608D01*
X132838435Y-69300000D01*
X134044341Y-69300000D01*
X134064936Y-69535403D01*
X134064938Y-69535413D01*
X134126094Y-69763655D01*
X134126096Y-69763659D01*
X134126097Y-69763663D01*
X134153393Y-69822198D01*
X134225964Y-69977828D01*
X134225965Y-69977830D01*
X134361505Y-70171402D01*
X134528597Y-70338494D01*
X134722169Y-70474034D01*
X134722171Y-70474035D01*
X134936337Y-70573903D01*
X135164592Y-70635063D01*
X135341032Y-70650499D01*
X135341033Y-70650500D01*
X135341034Y-70650500D01*
X135458967Y-70650500D01*
X135458967Y-70650499D01*
X135635408Y-70635063D01*
X135863663Y-70573903D01*
X136077829Y-70474035D01*
X136271401Y-70338495D01*
X136438495Y-70171401D01*
X136574035Y-69977830D01*
X136673903Y-69763663D01*
X136735063Y-69535408D01*
X136755659Y-69300000D01*
X136735063Y-69064592D01*
X136673903Y-68836337D01*
X136574035Y-68622171D01*
X136574034Y-68622169D01*
X136438494Y-68428597D01*
X136271402Y-68261505D01*
X136077830Y-68125965D01*
X136077828Y-68125964D01*
X135947285Y-68065091D01*
X135863663Y-68026097D01*
X135863659Y-68026096D01*
X135863655Y-68026094D01*
X135635413Y-67964938D01*
X135635403Y-67964936D01*
X135458967Y-67949500D01*
X135458966Y-67949500D01*
X135341034Y-67949500D01*
X135341033Y-67949500D01*
X135164596Y-67964936D01*
X135164586Y-67964938D01*
X134936344Y-68026094D01*
X134936335Y-68026098D01*
X134722171Y-68125964D01*
X134722169Y-68125965D01*
X134528597Y-68261505D01*
X134361506Y-68428597D01*
X134361501Y-68428604D01*
X134225967Y-68622165D01*
X134225965Y-68622169D01*
X134126098Y-68836335D01*
X134126094Y-68836344D01*
X134064938Y-69064586D01*
X134064936Y-69064596D01*
X134044341Y-69299999D01*
X134044341Y-69300000D01*
X132838435Y-69300000D01*
X132824994Y-69275784D01*
X132824994Y-69275783D01*
X132692521Y-69121469D01*
X132692520Y-69121468D01*
X132531695Y-68996981D01*
X132349093Y-68907411D01*
X132250000Y-68881753D01*
X132250000Y-69683889D01*
X132225543Y-69644390D01*
X132136038Y-69576799D01*
X132028160Y-69546105D01*
X131916479Y-69556454D01*
X131816078Y-69606448D01*
X131749999Y-69678931D01*
X131750000Y-68876633D01*
X131748053Y-68876931D01*
X131748047Y-68876933D01*
X131557342Y-68947562D01*
X131557335Y-68947565D01*
X131384732Y-69055149D01*
X131237331Y-69195264D01*
X131237330Y-69195266D01*
X131121143Y-69362195D01*
X131040940Y-69549092D01*
X131000000Y-69748309D01*
X131000000Y-70000000D01*
X131700000Y-70000000D01*
X131700000Y-70500000D01*
X131000000Y-70500000D01*
X131000000Y-70700713D01*
X124360000Y-70700713D01*
X124360000Y-70500000D01*
X123660000Y-70500000D01*
X123660000Y-70000000D01*
X124360000Y-70000000D01*
X124360000Y-69799286D01*
X124344581Y-69647661D01*
X124283700Y-69453618D01*
X124283695Y-69453608D01*
X124184994Y-69275784D01*
X124184994Y-69275783D01*
X124052521Y-69121469D01*
X124052520Y-69121468D01*
X123891695Y-68996981D01*
X123709093Y-68907411D01*
X123610000Y-68881753D01*
X123610000Y-69683889D01*
X123585543Y-69644390D01*
X123496038Y-69576799D01*
X123388160Y-69546105D01*
X123276479Y-69556454D01*
X123176078Y-69606448D01*
X123109999Y-69678931D01*
X123110000Y-68876633D01*
X123108053Y-68876931D01*
X123108047Y-68876933D01*
X122917342Y-68947562D01*
X122917335Y-68947565D01*
X122744732Y-69055149D01*
X122597331Y-69195264D01*
X122597330Y-69195266D01*
X122481143Y-69362195D01*
X122400940Y-69549092D01*
X122360000Y-69748309D01*
X122360000Y-70000000D01*
X123060000Y-70000000D01*
X123060000Y-70500000D01*
X122360000Y-70500000D01*
X122360000Y-70700713D01*
X117800500Y-70700713D01*
X117800500Y-69300000D01*
X118644341Y-69300000D01*
X118664936Y-69535403D01*
X118664938Y-69535413D01*
X118726094Y-69763655D01*
X118726096Y-69763659D01*
X118726097Y-69763663D01*
X118753393Y-69822198D01*
X118825964Y-69977828D01*
X118825965Y-69977830D01*
X118961505Y-70171402D01*
X119128597Y-70338494D01*
X119322169Y-70474034D01*
X119322171Y-70474035D01*
X119536337Y-70573903D01*
X119764592Y-70635063D01*
X119941032Y-70650499D01*
X119941033Y-70650500D01*
X119941034Y-70650500D01*
X120058967Y-70650500D01*
X120058967Y-70650499D01*
X120235408Y-70635063D01*
X120463663Y-70573903D01*
X120677829Y-70474035D01*
X120871401Y-70338495D01*
X121038495Y-70171401D01*
X121174035Y-69977830D01*
X121273903Y-69763663D01*
X121335063Y-69535408D01*
X121355659Y-69300000D01*
X121335063Y-69064592D01*
X121273903Y-68836337D01*
X121174035Y-68622171D01*
X121174034Y-68622169D01*
X121038494Y-68428597D01*
X120871402Y-68261505D01*
X120677830Y-68125965D01*
X120677828Y-68125964D01*
X120547285Y-68065091D01*
X120463663Y-68026097D01*
X120463659Y-68026096D01*
X120463655Y-68026094D01*
X120235413Y-67964938D01*
X120235403Y-67964936D01*
X120058967Y-67949500D01*
X120058966Y-67949500D01*
X119941034Y-67949500D01*
X119941033Y-67949500D01*
X119764596Y-67964936D01*
X119764586Y-67964938D01*
X119536344Y-68026094D01*
X119536335Y-68026098D01*
X119322171Y-68125964D01*
X119322169Y-68125965D01*
X119128597Y-68261505D01*
X118961506Y-68428597D01*
X118961501Y-68428604D01*
X118825967Y-68622165D01*
X118825965Y-68622169D01*
X118726098Y-68836335D01*
X118726094Y-68836344D01*
X118664938Y-69064586D01*
X118664936Y-69064596D01*
X118644341Y-69299999D01*
X118644341Y-69300000D01*
X117800500Y-69300000D01*
X117800500Y-69102036D01*
X117800633Y-69097981D01*
X117804023Y-69046237D01*
X117805986Y-69016290D01*
X117818986Y-68834536D01*
X117820015Y-68826901D01*
X117843155Y-68710567D01*
X117874533Y-68566323D01*
X117876392Y-68559625D01*
X117916547Y-68441335D01*
X117917087Y-68439817D01*
X117966162Y-68308242D01*
X117968628Y-68302530D01*
X118025044Y-68188129D01*
X118026152Y-68185996D01*
X118092184Y-68065066D01*
X118095029Y-68060368D01*
X118166563Y-67953311D01*
X118168428Y-67950676D01*
X118250291Y-67841321D01*
X118253244Y-67837678D01*
X118338503Y-67740459D01*
X118341198Y-67737581D01*
X118437581Y-67641198D01*
X118440459Y-67638503D01*
X118537678Y-67553244D01*
X118541321Y-67550291D01*
X118650676Y-67468428D01*
X118653311Y-67466563D01*
X118760368Y-67395029D01*
X118765066Y-67392184D01*
X118885996Y-67326152D01*
X118888129Y-67325044D01*
X119002530Y-67268628D01*
X119008242Y-67266162D01*
X119139817Y-67217087D01*
X119141335Y-67216547D01*
X119259625Y-67176392D01*
X119266323Y-67174533D01*
X119410567Y-67143155D01*
X119526901Y-67120015D01*
X119534536Y-67118986D01*
X119716290Y-67105986D01*
X119746237Y-67104023D01*
X119797981Y-67100633D01*
X119802036Y-67100500D01*
X135597964Y-67100500D01*
X135602019Y-67100633D01*
G37*
%TD.AperFunction*%
%TD*%
M02*
