%TF.GenerationSoftware,KiCad,Pcbnew,7.0.5-0*%
%TF.CreationDate,2023-09-16T13:11:08-07:00*%
%TF.ProjectId,MiSTerLaggy,4d695354-6572-44c6-9167-67792e6b6963,rev?*%
%TF.SameCoordinates,Original*%
%TF.FileFunction,Legend,Top*%
%TF.FilePolarity,Positive*%
%FSLAX46Y46*%
G04 Gerber Fmt 4.6, Leading zero omitted, Abs format (unit mm)*
G04 Created by KiCad (PCBNEW 7.0.5-0) date 2023-09-16 13:11:08*
%MOMM*%
%LPD*%
G01*
G04 APERTURE LIST*
G04 Aperture macros list*
%AMRoundRect*
0 Rectangle with rounded corners*
0 $1 Rounding radius*
0 $2 $3 $4 $5 $6 $7 $8 $9 X,Y pos of 4 corners*
0 Add a 4 corners polygon primitive as box body*
4,1,4,$2,$3,$4,$5,$6,$7,$8,$9,$2,$3,0*
0 Add four circle primitives for the rounded corners*
1,1,$1+$1,$2,$3*
1,1,$1+$1,$4,$5*
1,1,$1+$1,$6,$7*
1,1,$1+$1,$8,$9*
0 Add four rect primitives between the rounded corners*
20,1,$1+$1,$2,$3,$4,$5,0*
20,1,$1+$1,$4,$5,$6,$7,0*
20,1,$1+$1,$6,$7,$8,$9,0*
20,1,$1+$1,$8,$9,$2,$3,0*%
G04 Aperture macros list end*
%ADD10C,0.100000*%
%ADD11C,0.150000*%
%ADD12C,0.120000*%
%ADD13C,0.650000*%
%ADD14R,0.600000X1.240000*%
%ADD15R,0.300000X1.240000*%
%ADD16O,1.000000X2.100000*%
%ADD17O,1.000000X1.800000*%
%ADD18RoundRect,0.200000X0.275000X-0.200000X0.275000X0.200000X-0.275000X0.200000X-0.275000X-0.200000X0*%
%ADD19RoundRect,0.243750X-0.243750X-0.456250X0.243750X-0.456250X0.243750X0.456250X-0.243750X0.456250X0*%
%ADD20RoundRect,0.150000X-0.587500X-0.150000X0.587500X-0.150000X0.587500X0.150000X-0.587500X0.150000X0*%
%ADD21C,2.200000*%
G04 APERTURE END LIST*
D10*
X-1885772Y-5698496D02*
X-1857200Y-5727068D01*
X-1857200Y-5727068D02*
X-1828629Y-5812782D01*
X-1828629Y-5812782D02*
X-1828629Y-5869925D01*
X-1828629Y-5869925D02*
X-1857200Y-5955639D01*
X-1857200Y-5955639D02*
X-1914343Y-6012782D01*
X-1914343Y-6012782D02*
X-1971486Y-6041353D01*
X-1971486Y-6041353D02*
X-2085772Y-6069925D01*
X-2085772Y-6069925D02*
X-2171486Y-6069925D01*
X-2171486Y-6069925D02*
X-2285772Y-6041353D01*
X-2285772Y-6041353D02*
X-2342915Y-6012782D01*
X-2342915Y-6012782D02*
X-2400058Y-5955639D01*
X-2400058Y-5955639D02*
X-2428629Y-5869925D01*
X-2428629Y-5869925D02*
X-2428629Y-5812782D01*
X-2428629Y-5812782D02*
X-2400058Y-5727068D01*
X-2400058Y-5727068D02*
X-2371486Y-5698496D01*
D11*
X-3582269Y6305705D02*
X-3582269Y5734277D01*
X-3582269Y5734277D02*
X-3620364Y5619991D01*
X-3620364Y5619991D02*
X-3696555Y5543800D01*
X-3696555Y5543800D02*
X-3810840Y5505705D01*
X-3810840Y5505705D02*
X-3887031Y5505705D01*
X-2820364Y5505705D02*
X-3201316Y5505705D01*
X-3201316Y5505705D02*
X-3201316Y6305705D01*
X-2096554Y5581896D02*
X-2134650Y5543800D01*
X-2134650Y5543800D02*
X-2248935Y5505705D01*
X-2248935Y5505705D02*
X-2325126Y5505705D01*
X-2325126Y5505705D02*
X-2439412Y5543800D01*
X-2439412Y5543800D02*
X-2515602Y5619991D01*
X-2515602Y5619991D02*
X-2553697Y5696181D01*
X-2553697Y5696181D02*
X-2591793Y5848562D01*
X-2591793Y5848562D02*
X-2591793Y5962848D01*
X-2591793Y5962848D02*
X-2553697Y6115229D01*
X-2553697Y6115229D02*
X-2515602Y6191420D01*
X-2515602Y6191420D02*
X-2439412Y6267610D01*
X-2439412Y6267610D02*
X-2325126Y6305705D01*
X-2325126Y6305705D02*
X-2248935Y6305705D01*
X-2248935Y6305705D02*
X-2134650Y6267610D01*
X-2134650Y6267610D02*
X-2096554Y6229515D01*
X-1525126Y6305705D02*
X-1525126Y5734277D01*
X-1525126Y5734277D02*
X-1563221Y5619991D01*
X-1563221Y5619991D02*
X-1639412Y5543800D01*
X-1639412Y5543800D02*
X-1753697Y5505705D01*
X-1753697Y5505705D02*
X-1829888Y5505705D01*
X-763221Y5505705D02*
X-1144173Y5505705D01*
X-1144173Y5505705D02*
X-1144173Y6305705D01*
X-39411Y5581896D02*
X-77507Y5543800D01*
X-77507Y5543800D02*
X-191792Y5505705D01*
X-191792Y5505705D02*
X-267983Y5505705D01*
X-267983Y5505705D02*
X-382269Y5543800D01*
X-382269Y5543800D02*
X-458459Y5619991D01*
X-458459Y5619991D02*
X-496554Y5696181D01*
X-496554Y5696181D02*
X-534650Y5848562D01*
X-534650Y5848562D02*
X-534650Y5962848D01*
X-534650Y5962848D02*
X-496554Y6115229D01*
X-496554Y6115229D02*
X-458459Y6191420D01*
X-458459Y6191420D02*
X-382269Y6267610D01*
X-382269Y6267610D02*
X-267983Y6305705D01*
X-267983Y6305705D02*
X-191792Y6305705D01*
X-191792Y6305705D02*
X-77507Y6267610D01*
X-77507Y6267610D02*
X-39411Y6229515D01*
X532017Y6305705D02*
X532017Y5734277D01*
X532017Y5734277D02*
X493922Y5619991D01*
X493922Y5619991D02*
X417731Y5543800D01*
X417731Y5543800D02*
X303446Y5505705D01*
X303446Y5505705D02*
X227255Y5505705D01*
X1293922Y5505705D02*
X912970Y5505705D01*
X912970Y5505705D02*
X912970Y6305705D01*
X2017732Y5581896D02*
X1979636Y5543800D01*
X1979636Y5543800D02*
X1865351Y5505705D01*
X1865351Y5505705D02*
X1789160Y5505705D01*
X1789160Y5505705D02*
X1674874Y5543800D01*
X1674874Y5543800D02*
X1598684Y5619991D01*
X1598684Y5619991D02*
X1560589Y5696181D01*
X1560589Y5696181D02*
X1522493Y5848562D01*
X1522493Y5848562D02*
X1522493Y5962848D01*
X1522493Y5962848D02*
X1560589Y6115229D01*
X1560589Y6115229D02*
X1598684Y6191420D01*
X1598684Y6191420D02*
X1674874Y6267610D01*
X1674874Y6267610D02*
X1789160Y6305705D01*
X1789160Y6305705D02*
X1865351Y6305705D01*
X1865351Y6305705D02*
X1979636Y6267610D01*
X1979636Y6267610D02*
X2017732Y6229515D01*
X2589160Y6305705D02*
X2589160Y5734277D01*
X2589160Y5734277D02*
X2551065Y5619991D01*
X2551065Y5619991D02*
X2474874Y5543800D01*
X2474874Y5543800D02*
X2360589Y5505705D01*
X2360589Y5505705D02*
X2284398Y5505705D01*
X3351065Y5505705D02*
X2970113Y5505705D01*
X2970113Y5505705D02*
X2970113Y6305705D01*
X4074875Y5581896D02*
X4036779Y5543800D01*
X4036779Y5543800D02*
X3922494Y5505705D01*
X3922494Y5505705D02*
X3846303Y5505705D01*
X3846303Y5505705D02*
X3732017Y5543800D01*
X3732017Y5543800D02*
X3655827Y5619991D01*
X3655827Y5619991D02*
X3617732Y5696181D01*
X3617732Y5696181D02*
X3579636Y5848562D01*
X3579636Y5848562D02*
X3579636Y5962848D01*
X3579636Y5962848D02*
X3617732Y6115229D01*
X3617732Y6115229D02*
X3655827Y6191420D01*
X3655827Y6191420D02*
X3732017Y6267610D01*
X3732017Y6267610D02*
X3846303Y6305705D01*
X3846303Y6305705D02*
X3922494Y6305705D01*
X3922494Y6305705D02*
X4036779Y6267610D01*
X4036779Y6267610D02*
X4074875Y6229515D01*
X-4863221Y1975420D02*
X-4815602Y1927800D01*
X-4815602Y1927800D02*
X-4863221Y1880181D01*
X-4863221Y1880181D02*
X-4910840Y1927800D01*
X-4910840Y1927800D02*
X-4863221Y1975420D01*
X-4863221Y1975420D02*
X-4863221Y1880181D01*
D10*
X2107085Y-6041353D02*
X2107085Y-5841353D01*
X2421371Y-5755639D02*
X2421371Y-6041353D01*
X2421371Y-6041353D02*
X1821371Y-6041353D01*
X1821371Y-6041353D02*
X1821371Y-5755639D01*
D11*
%TO.C,J1*%
X-333334Y8895181D02*
X-333334Y8180896D01*
X-333334Y8180896D02*
X-380953Y8038039D01*
X-380953Y8038039D02*
X-476191Y7942800D01*
X-476191Y7942800D02*
X-619048Y7895181D01*
X-619048Y7895181D02*
X-714286Y7895181D01*
X666666Y7895181D02*
X95238Y7895181D01*
X380952Y7895181D02*
X380952Y8895181D01*
X380952Y8895181D02*
X285714Y8752324D01*
X285714Y8752324D02*
X190476Y8657086D01*
X190476Y8657086D02*
X95238Y8609467D01*
%TO.C,R1*%
X4612295Y-2633332D02*
X4231342Y-2899999D01*
X4612295Y-3090475D02*
X3812295Y-3090475D01*
X3812295Y-3090475D02*
X3812295Y-2785713D01*
X3812295Y-2785713D02*
X3850390Y-2709523D01*
X3850390Y-2709523D02*
X3888485Y-2671428D01*
X3888485Y-2671428D02*
X3964676Y-2633332D01*
X3964676Y-2633332D02*
X4078961Y-2633332D01*
X4078961Y-2633332D02*
X4155152Y-2671428D01*
X4155152Y-2671428D02*
X4193247Y-2709523D01*
X4193247Y-2709523D02*
X4231342Y-2785713D01*
X4231342Y-2785713D02*
X4231342Y-3090475D01*
X4612295Y-1871428D02*
X4612295Y-2328571D01*
X4612295Y-2099999D02*
X3812295Y-2099999D01*
X3812295Y-2099999D02*
X3926580Y-2176190D01*
X3926580Y-2176190D02*
X4002771Y-2252380D01*
X4002771Y-2252380D02*
X4040866Y-2328571D01*
D10*
%TO.C,Q2*%
X-2107143Y670486D02*
X-2164286Y699058D01*
X-2164286Y699058D02*
X-2221429Y756200D01*
X-2221429Y756200D02*
X-2307143Y841915D01*
X-2307143Y841915D02*
X-2364286Y870486D01*
X-2364286Y870486D02*
X-2421429Y870486D01*
X-2392858Y727629D02*
X-2450000Y756200D01*
X-2450000Y756200D02*
X-2507143Y813343D01*
X-2507143Y813343D02*
X-2535715Y927629D01*
X-2535715Y927629D02*
X-2535715Y1127629D01*
X-2535715Y1127629D02*
X-2507143Y1241915D01*
X-2507143Y1241915D02*
X-2450000Y1299058D01*
X-2450000Y1299058D02*
X-2392858Y1327629D01*
X-2392858Y1327629D02*
X-2278572Y1327629D01*
X-2278572Y1327629D02*
X-2221429Y1299058D01*
X-2221429Y1299058D02*
X-2164286Y1241915D01*
X-2164286Y1241915D02*
X-2135715Y1127629D01*
X-2135715Y1127629D02*
X-2135715Y927629D01*
X-2135715Y927629D02*
X-2164286Y813343D01*
X-2164286Y813343D02*
X-2221429Y756200D01*
X-2221429Y756200D02*
X-2278572Y727629D01*
X-2278572Y727629D02*
X-2392858Y727629D01*
X-1907144Y1270486D02*
X-1878572Y1299058D01*
X-1878572Y1299058D02*
X-1821429Y1327629D01*
X-1821429Y1327629D02*
X-1678572Y1327629D01*
X-1678572Y1327629D02*
X-1621429Y1299058D01*
X-1621429Y1299058D02*
X-1592858Y1270486D01*
X-1592858Y1270486D02*
X-1564287Y1213343D01*
X-1564287Y1213343D02*
X-1564287Y1156200D01*
X-1564287Y1156200D02*
X-1592858Y1070486D01*
X-1592858Y1070486D02*
X-1935715Y727629D01*
X-1935715Y727629D02*
X-1564287Y727629D01*
D11*
%TO.C,R2*%
X2612295Y-2633332D02*
X2231342Y-2899999D01*
X2612295Y-3090475D02*
X1812295Y-3090475D01*
X1812295Y-3090475D02*
X1812295Y-2785713D01*
X1812295Y-2785713D02*
X1850390Y-2709523D01*
X1850390Y-2709523D02*
X1888485Y-2671428D01*
X1888485Y-2671428D02*
X1964676Y-2633332D01*
X1964676Y-2633332D02*
X2078961Y-2633332D01*
X2078961Y-2633332D02*
X2155152Y-2671428D01*
X2155152Y-2671428D02*
X2193247Y-2709523D01*
X2193247Y-2709523D02*
X2231342Y-2785713D01*
X2231342Y-2785713D02*
X2231342Y-3090475D01*
X1888485Y-2328571D02*
X1850390Y-2290475D01*
X1850390Y-2290475D02*
X1812295Y-2214285D01*
X1812295Y-2214285D02*
X1812295Y-2023809D01*
X1812295Y-2023809D02*
X1850390Y-1947618D01*
X1850390Y-1947618D02*
X1888485Y-1909523D01*
X1888485Y-1909523D02*
X1964676Y-1871428D01*
X1964676Y-1871428D02*
X2040866Y-1871428D01*
X2040866Y-1871428D02*
X2155152Y-1909523D01*
X2155152Y-1909523D02*
X2612295Y-2366666D01*
X2612295Y-2366666D02*
X2612295Y-1871428D01*
D12*
%TO.C,J1*%
X4580000Y4950000D02*
X4580000Y6870000D01*
X4580000Y10585000D02*
X4580000Y8880000D01*
X-4580000Y6870000D02*
X-4580000Y4950000D01*
X-4580000Y8880000D02*
X-4580000Y10585000D01*
X-4580000Y10585000D02*
X4580000Y10585000D01*
%TO.C,R1*%
X3677500Y-237258D02*
X3677500Y237258D01*
X4722500Y-237258D02*
X4722500Y237258D01*
%TO.C,Q1*%
X-1685000Y-5040000D02*
X-1685000Y-6960000D01*
X-1685000Y-6960000D02*
X1000000Y-6960000D01*
X1000000Y-5040000D02*
X-1685000Y-5040000D01*
%TO.C,Q2*%
X-3187500Y1560000D02*
X-4862500Y1560000D01*
X-3187500Y1560000D02*
X-2537500Y1560000D01*
X-3187500Y-1560000D02*
X-3837500Y-1560000D01*
X-3187500Y-1560000D02*
X-2537500Y-1560000D01*
%TO.C,R2*%
X1677500Y-237258D02*
X1677500Y237258D01*
X2722500Y-237258D02*
X2722500Y237258D01*
%TD*%
%LPC*%
D13*
%TO.C,J1*%
X2890000Y4195000D03*
X-2890000Y4195000D03*
D14*
X3200000Y3075000D03*
X2400000Y3075000D03*
D15*
X1250000Y3075000D03*
X250000Y3075000D03*
X-250000Y3075000D03*
X-1250000Y3075000D03*
D14*
X-2400000Y3075000D03*
X-3200000Y3075000D03*
X-3200000Y3075000D03*
X-2400000Y3075000D03*
D15*
X-1750000Y3075000D03*
X-750000Y3075000D03*
X750000Y3075000D03*
X1750000Y3075000D03*
D14*
X2400000Y3075000D03*
X3200000Y3075000D03*
D16*
X4320000Y3675000D03*
D17*
X4320000Y7875000D03*
D16*
X-4320000Y3675000D03*
D17*
X-4320000Y7875000D03*
%TD*%
D18*
%TO.C,R1*%
X4200000Y-825000D03*
X4200000Y825000D03*
%TD*%
D19*
%TO.C,Q1*%
X-937500Y-6000000D03*
X937500Y-6000000D03*
%TD*%
D20*
%TO.C,Q2*%
X-4125000Y950000D03*
X-4125000Y-950000D03*
X-2250000Y0D03*
%TD*%
D21*
%TO.C,H1*%
X0Y-2750000D03*
%TD*%
D18*
%TO.C,R2*%
X2200000Y-825000D03*
X2200000Y825000D03*
%TD*%
%LPD*%
M02*
